SplineFontDB: 3.2
FontName: ArundinaSans
FullName: Arundina Sans
FamilyName: Arundina Sans
Weight: Book
Copyright: Copyright (c) 2003 by Bitstream, Inc. All Rights Reserved.\nCopyright (c) 2007 by Software Industry Promotion Agency (Public Organization). All Rights Reserved.
Version: 2.05
ItalicAngle: 0
UnderlinePosition: -153
UnderlineWidth: 102
Ascent: 1638
Descent: 410
InvalidEm: 0
LayerCount: 3
Layer: 0 0 "Back" 1
Layer: 1 1 "Fore" 0
Layer: 2 0 "Cube" 0
XUID: [1021 375 425136265 761299]
FSType: 0
OS2Version: 2
OS2_WeightWidthSlopeOnly: 0
OS2_UseTypoMetrics: 1
CreationTime: 1131303360
ModificationTime: 1580624948
PfmFamily: 33
TTFWeight: 400
TTFWidth: 5
LineGap: 0
VLineGap: 0
Panose: 2 11 3 0 2 2 2 2 2 4
OS2TypoAscent: 2488
OS2TypoAOffset: 0
OS2TypoDescent: -1067
OS2TypoDOffset: 0
OS2TypoLinegap: 0
OS2WinAscent: 0
OS2WinAOffset: 1
OS2WinDescent: 0
OS2WinDOffset: 1
HheadAscent: 0
HheadAOffset: 1
HheadDescent: 0
HheadDOffset: 1
OS2SubXSize: 1434
OS2SubYSize: 1331
OS2SubXOff: 0
OS2SubYOff: 287
OS2SupXSize: 1434
OS2SupYSize: 1331
OS2SupXOff: 0
OS2SupYOff: 977
OS2StrikeYSize: 82
OS2StrikeYPos: 512
OS2FamilyClass: 2050
OS2Vendor: 'BLWK'
Lookup: 4 0 0 "'frac' Diagonal Fractions in Latin lookup 0" { "'frac' Diagonal Fractions in Latin lookup 0 subtable"  } ['frac' ('latn' <'dflt' > ) ]
Lookup: 6 0 0 "'liga' Standard Ligatures in Latin lookup 1" { "'liga' Standard Ligatures in Latin lookup 1 subtable"  } ['liga' ('latn' <'dflt' > 'thai' <'dflt' > ) ]
Lookup: 6 0 0 "'liga' Standard Ligatures in Latin lookup 2" { "'liga' Standard Ligatures in Latin lookup 2 subtable"  } ['liga' ('latn' <'dflt' > 'thai' <'dflt' > ) ]
Lookup: 6 0 0 "'liga' Standard Ligatures in Latin lookup 3" { "'liga' Standard Ligatures in Latin lookup 3 subtable"  } ['liga' ('latn' <'dflt' > 'thai' <'dflt' > ) ]
Lookup: 6 0 0 "'liga' Standard Ligatures in Latin lookup 4" { "'liga' Standard Ligatures in Latin lookup 4 subtable"  } ['liga' ('latn' <'dflt' > 'thai' <'dflt' > ) ]

StartChar: .notdef
Encoding: 385 -1 0
Width: 1293
VWidth: 3555
Flags: W
HStem: -380 120<231 1062> 1394 120<231 1062>
VStem: 109 122<-260 1394> 1062 122<-260 1394>
LayerCount: 3
Fore
SplineSet
109 1514 m 1,0,-1
 1184 1514 l 1,1,-1
 1184 -380 l 1,2,-1
 109 -380 l 1,3,-1
 109 1514 l 1,0,-1
1062 -260 m 1,4,-1
 1062 1394 l 1,5,-1
 231 1394 l 1,6,-1
 231 -260 l 1,7,-1
 1062 -260 l 1,4,-1
EndSplineSet
Layer: 2
SplineSet
109 1514 m 1
 1184 1514 l 1
 1184 -380 l 1
 109 -380 l 1
 109 1514 l 1
1062 -260 m 1
 1062 1394 l 1
 231 1394 l 1
 231 -260 l 1
 1062 -260 l 1
EndSplineSet
EndChar

StartChar: exclam
Encoding: 2 33 4
Width: 824
VWidth: 3555
Flags: W
HStem: 0 252<309 512> 1473 20G<309 512>
VStem: 309 203<0 252 592.923 1493>
LayerCount: 3
Fore
SplineSet
512 0 m 1,0,-1
 309 0 l 1,1,-1
 309 252 l 1,2,-1
 512 252 l 1,3,-1
 512 0 l 1,0,-1
512 838 m 1,4,-1
 495 479 l 1,5,-1
 330 479 l 1,6,-1
 309 838 l 1,7,-1
 309 1493 l 1,8,-1
 512 1493 l 1,9,-1
 512 838 l 1,4,-1
EndSplineSet
Layer: 2
SplineSet
512 0 m 1
 309 0 l 1
 309 252 l 1
 512 252 l 1
 512 0 l 1
512 838 m 1
 495 479 l 1
 330 479 l 1
 309 838 l 1
 309 1493 l 1
 512 1493 l 1
 512 838 l 1
EndSplineSet
EndChar

StartChar: quotedbl
Encoding: 3 34 5
Width: 944
VWidth: 3555
Flags: W
HStem: 939 554<200 370 576 746>
VStem: 200 170<939 1493> 576 170<939 1493>
LayerCount: 3
Fore
SplineSet
200 939 m 1,0,-1
 200 1493 l 1,1,-1
 370 1493 l 1,2,-1
 370 939 l 1,3,-1
 200 939 l 1,0,-1
576 939 m 1,4,-1
 576 1493 l 1,5,-1
 746 1493 l 1,6,-1
 746 939 l 1,7,-1
 576 939 l 1,4,-1
EndSplineSet
Layer: 2
SplineSet
200 939 m 1
 200 1493 l 1
 370 1493 l 1
 370 939 l 1
 200 939 l 1
576 939 m 1
 576 1493 l 1
 746 1493 l 1
 746 939 l 1
 576 939 l 1
EndSplineSet
EndChar

StartChar: numbersign
Encoding: 4 35 6
Width: 1716
VWidth: 3555
Flags: W
HStem: 0 21G<370 534.085 825 989.036> 413 156<156 472 675 929 1127 1448> 903 156<271 597 797 1049 1248 1561>
VStem: 370 159<0 159> 736 160<1312 1472> 825 159<0 159> 1191 160<1312 1472>
DStem2: 370 0 529 0 0.241915 0.970297<38.4645 425.408 625.883 931.093 1130.84 1516.82> 825 0 984 0 0.241915 0.970297<38.4645 425.892 625.158 930.368 1129.88 1516.82>
LayerCount: 3
Fore
SplineSet
675 569 m 1,0,-1
 967 569 l 1,1,-1
 1049 903 l 1,2,-1
 757 903 l 1,3,-1
 675 569 l 1,0,-1
1088 1059 m 1,4,-1
 1191 1472 l 1,5,-1
 1351 1472 l 1,6,-1
 1248 1059 l 1,7,-1
 1561 1059 l 1,8,-1
 1561 903 l 1,9,-1
 1208 903 l 1,10,-1
 1127 569 l 1,11,-1
 1448 569 l 1,12,-1
 1448 413 l 1,13,-1
 1088 413 l 1,14,-1
 984 0 l 1,15,-1
 825 0 l 1,16,-1
 929 413 l 1,17,-1
 634 413 l 1,18,-1
 529 0 l 1,19,-1
 370 0 l 1,20,-1
 472 413 l 1,21,-1
 156 413 l 1,22,-1
 156 569 l 1,23,-1
 512 569 l 1,24,-1
 597 903 l 1,25,-1
 271 903 l 1,26,-1
 271 1059 l 1,27,-1
 634 1059 l 1,28,-1
 736 1472 l 1,29,-1
 896 1472 l 1,30,-1
 797 1059 l 1,31,-1
 1088 1059 l 1,4,-1
EndSplineSet
Layer: 2
SplineSet
675 569 m 1xf2
 967 569 l 1
 1049 903 l 1
 757 903 l 1
 675 569 l 1xf2
1088 1059 m 1
 1191 1472 l 1
 1351 1472 l 1
 1248 1059 l 1
 1561 1059 l 1
 1561 903 l 1
 1208 903 l 1
 1127 569 l 1
 1448 569 l 1
 1448 413 l 1
 1088 413 l 1
 984 0 l 1
 825 0 l 1xf6
 929 413 l 1
 634 413 l 1
 529 0 l 1
 370 0 l 1
 472 413 l 1
 156 413 l 1
 156 569 l 1
 512 569 l 1
 597 903 l 1
 271 903 l 1
 271 1059 l 1
 634 1059 l 1
 736 1472 l 1
 896 1472 l 1xfa
 797 1059 l 1
 1088 1059 l 1
EndSplineSet
EndChar

StartChar: dollar
Encoding: 5 36 7
Width: 1303
VWidth: 3555
Flags: W
HStem: 0 142<341.046 594 693 837.321> 1180 146<443.909 594 693 932.911>
VStem: 167 189<852.641 1099.76> 594 99<-302 0 146 580 767 1180 1326 1557> 950 184<235.208 487.522>
LayerCount: 3
Fore
SplineSet
594 0 m 1,0,1
 488 0 488 0 383 23.5 c 128,-1,2
 278 47 278 47 167 92 c 1,3,-1
 167 271 l 1,4,5
 271 210 271 210 375 176 c 128,-1,6
 479 142 479 142 594 142 c 1,7,-1
 594 601 l 1,8,9
 370 634 370 634 268.5 720.5 c 128,-1,10
 167 807 167 807 167 957 c 3,11,12
 167 1120 167 1120 277 1214.5 c 128,-1,13
 387 1309 387 1309 594 1323 c 1,14,-1
 594 1557 l 1,15,-1
 693 1557 l 1,16,-1
 693 1326 l 1,17,18
 786 1323 786 1323 873 1308 c 128,-1,19
 960 1293 960 1293 1045 1262 c 1,20,-1
 1045 1088 l 1,21,22
 865 1177 865 1177 693 1180 c 1,23,-1
 693 753 l 1,24,25
 920 719 920 719 1027 629.5 c 128,-1,26
 1134 540 1134 540 1134 380 c 3,27,28
 1134 210 1134 210 1020 113.5 c 128,-1,29
 906 17 906 17 693 0 c 1,30,-1
 693 -302 l 1,31,-1
 594 -302 l 1,32,-1
 594 0 l 1,0,1
594 1184 m 1,33,34
 356 1160 356 1160 356 974 c 3,35,36
 356 889 356 889 412.5 839.5 c 128,-1,37
 469 790 469 790 594 767 c 1,38,-1
 594 1184 l 1,33,34
693 146 m 1,39,40
 950 174 950 174 950 363 c 3,41,42
 950 451 950 451 889 502.5 c 128,-1,43
 828 554 828 554 693 580 c 1,44,-1
 693 146 l 1,39,40
EndSplineSet
Layer: 2
SplineSet
1134 380 m 3
 1134 127 944 20 693 0 c 1
 693 -302 l 1
 594 -302 l 1
 594 0 l 1
 428 0 297 39 167 92 c 1
 167 271 l 1
 289 200 417 142 594 142 c 1
 594 601 l 1
 351 637 167 713 167 957 c 3
 167 1200 350 1307 594 1323 c 1
 594 1557 l 1
 693 1557 l 1
 693 1326 l 1
 827 1322 939 1301 1045 1262 c 1
 1045 1088 l 1
 925 1147 808 1178 693 1180 c 1
 693 753 l 1
 943 715 1134 635 1134 380 c 3
594 1184 m 1
 435 1168 356 1098 356 974 c 3
 356 836 460 792 594 767 c 1
 594 1184 l 1
693 146 m 1
 864 165 950 237 950 363 c 3
 950 507 835 553 693 580 c 1
 693 146 l 1
EndSplineSet
EndChar

StartChar: percent
Encoding: 6 37 8
Width: 1947
VWidth: 3555
Flags: W
HStem: -28 127<1378.84 1602.27> 658 125<1380.21 1598.6> 708 127<348.658 566.951> 1394 128<350.077 566.24>
VStem: 115 156<917.989 1306.63> 431 156<-28 128> 644 163<922.527 1307.76> 1144 161<179.28 576.99> 1361 161<1361 1522> 1679 156<185.949 570.448>
DStem2: 431 -28 587 -28 0.516525 0.856272<80.5779 1807.59>
LayerCount: 3
Fore
SplineSet
1489 658 m 3,0,1
 1401 658 1401 658 1353 583.5 c 128,-1,2
 1305 509 1305 509 1305 377 c 259,3,4
 1305 245 1305 245 1353 172 c 128,-1,5
 1401 99 1401 99 1489 99 c 3,6,7
 1575 99 1575 99 1627 172 c 128,-1,8
 1679 245 1679 245 1679 377 c 259,9,10
 1679 509 1679 509 1627 583.5 c 128,-1,11
 1575 658 1575 658 1489 658 c 3,0,1
1489 783 m 259,12,13
 1649 783 1649 783 1742 676 c 128,-1,14
 1835 569 1835 569 1835 377 c 3,15,16
 1835 193 1835 193 1742 82.5 c 128,-1,17
 1649 -28 1649 -28 1489 -28 c 259,18,19
 1330 -28 1330 -28 1237 82.5 c 128,-1,20
 1144 193 1144 193 1144 377 c 3,21,22
 1144 569 1144 569 1237 676 c 128,-1,23
 1330 783 1330 783 1489 783 c 259,12,13
458 1394 m 3,24,25
 373 1394 373 1394 322 1319.5 c 128,-1,26
 271 1245 271 1245 271 1116 c 3,27,28
 271 984 271 984 320.5 909.5 c 128,-1,29
 370 835 370 835 458 835 c 3,30,31
 543 835 543 835 593.5 909.5 c 128,-1,32
 644 984 644 984 644 1116 c 3,33,34
 644 1245 644 1245 592 1319.5 c 128,-1,35
 540 1394 540 1394 458 1394 c 3,24,25
587 -28 m 1,36,-1
 431 -28 l 1,37,-1
 1361 1522 l 1,38,-1
 1522 1522 l 1,39,-1
 587 -28 l 1,36,-1
458 1522 m 259,40,41
 618 1522 618 1522 712.5 1415.5 c 128,-1,42
 807 1309 807 1309 807 1116 c 259,43,44
 807 924 807 924 712.5 816 c 128,-1,45
 618 708 618 708 458 708 c 259,46,47
 299 708 299 708 207 816 c 128,-1,48
 115 924 115 924 115 1116 c 3,49,50
 115 1302 115 1302 207 1412 c 128,-1,51
 299 1522 299 1522 458 1522 c 259,40,41
EndSplineSet
Layer: 2
SplineSet
1679 377 m 259xdfc0
 1679 525 1623 658 1489 658 c 3
 1354 658 1305 525 1305 377 c 259
 1305 228 1353 99 1489 99 c 3
 1623 99 1679 229 1679 377 c 259xdfc0
1144 377 m 3
 1144 614 1262 783 1489 783 c 259
 1717 783 1835 615 1835 377 c 3
 1835 146 1713 -28 1489 -28 c 259
 1266 -28 1144 147 1144 377 c 3
644 1116 m 3
 644 1259 587 1394 458 1394 c 3
 326 1394 271 1260 271 1116 c 3
 271 967 322 835 458 835 c 3xbfc0
 591 835 644 969 644 1116 c 3
587 -28 m 1
 431 -28 l 1
 1361 1522 l 1
 1522 1522 l 1
 587 -28 l 1
115 1116 m 3
 115 1348 234 1522 458 1522 c 259
 687 1522 807 1354 807 1116 c 259
 807 878 686 708 458 708 c 259
 231 708 115 879 115 1116 c 3
EndSplineSet
EndChar

StartChar: ampersand
Encoding: 7 38 9
Width: 1598
VWidth: 3555
Flags: W
HStem: -28 160<511.243 894.658> 0 21G<1266.14 1536> 1364 158<572.893 931.396>
VStem: 128 195<303.284 653.444> 299 192<1030.92 1288.46> 1283 182<622 804>
DStem2: 641 917 498 807 0.69847 -0.715639<-16.8283 725.61 897.044 1106.75>
LayerCount: 3
Fore
SplineSet
498 807 m 1,0,1
 404 722 404 722 363.5 642 c 128,-1,2
 323 562 323 562 323 472 c 3,3,4
 323 323 323 323 428 227.5 c 128,-1,5
 533 132 533 132 696 132 c 3,6,7
 878 132 878 132 1028 260 c 1,8,-1
 498 807 l 1,0,1
1144 394 m 1,9,10
 1208 484 1208 484 1240 586.5 c 128,-1,11
 1272 689 1272 689 1283 804 c 1,12,-1
 1465 804 l 1,13,14
 1443 533 1443 533 1255 285 c 1,15,-1
 1536 0 l 1,16,-1
 1286 0 l 1,17,-1
 1141 146 l 1,18,19
 936 -28 936 -28 679 -28 c 3,20,21
 437 -28 437 -28 282.5 108.5 c 128,-1,22
 128 245 128 245 128 462 c 3,23,24
 128 715 128 715 394 917 c 1,25,26
 349 977 349 977 324 1039.5 c 128,-1,27
 299 1102 299 1102 299 1163 c 3,28,29
 299 1326 299 1326 411 1424 c 128,-1,30
 523 1522 523 1522 708 1522 c 3,31,32
 861 1522 861 1522 1042 1451 c 1,33,-1
 1042 1266 l 1,34,35
 868 1364 868 1364 726 1364 c 3,36,37
 618 1364 618 1364 554.5 1308 c 128,-1,38
 491 1252 491 1252 491 1167 c 3,39,40
 491 1113 491 1113 520.5 1061.5 c 128,-1,41
 550 1010 550 1010 641 917 c 2,42,-1
 1144 394 l 1,9,10
EndSplineSet
Layer: 2
SplineSet
323 472 m 3xb4
 323 267 488 132 696 132 c 3
 817 132 928 175 1028 260 c 1
 498 807 l 1
 399 718 323 629 323 472 c 3xb4
726 1364 m 3
 595 1364 491 1291 491 1167 c 3
 491 1051 556 1004 641 917 c 2
 1144 394 l 1
 1224 506 1267 637 1283 804 c 1
 1465 804 l 1
 1450 623 1380 450 1255 285 c 1
 1536 0 l 1
 1286 0 l 1x6c
 1141 146 l 1
 1004 30 850 -28 679 -28 c 3
 369 -28 128 159 128 462 c 3xb4
 128 631 217 782 394 917 c 1
 345 982 299 1063 299 1163 c 3xac
 299 1390 475 1522 708 1522 c 3
 810 1522 921 1498 1042 1451 c 1
 1042 1266 l 1
 926 1331 821 1364 726 1364 c 3
EndSplineSet
EndChar

StartChar: quotesingle
Encoding: 8 39 10
Width: 564
VWidth: 3555
Flags: W
HStem: 939 554<200 370>
VStem: 200 170<939 1493>
LayerCount: 3
Fore
SplineSet
200 939 m 1,0,-1
 200 1493 l 1,1,-1
 370 1493 l 1,2,-1
 370 939 l 1,3,-1
 200 939 l 1,0,-1
EndSplineSet
Layer: 2
SplineSet
200 939 m 1
 200 1493 l 1
 370 1493 l 1
 370 939 l 1
 200 939 l 1
EndSplineSet
EndChar

StartChar: parenleft
Encoding: 9 40 11
Width: 798
VWidth: 3555
Flags: W
VStem: 174 199<289.17 981.274> 476 161<-271 -110 1396 1557>
LayerCount: 3
Fore
SplineSet
476 -271 m 1,0,1
 174 204 174 204 174 644 c 259,2,3
 174 1085 174 1085 476 1557 c 1,4,-1
 637 1557 l 1,5,6
 373 1099 373 1099 373 644 c 259,7,8
 373 191 373 191 637 -271 c 1,9,-1
 476 -271 l 1,0,1
EndSplineSet
Layer: 2
SplineSet
637 1557 m 1
 483 1290 373 1020 373 644 c 259
 373 268 483 -3 637 -271 c 1
 476 -271 l 1
 311 -12 174 272 174 644 c 3
 174 938 275 1242 476 1557 c 1
 637 1557 l 1
EndSplineSet
EndChar

StartChar: parenright
Encoding: 10 41 12
Width: 798
VWidth: 3555
Flags: W
VStem: 163 160<1397 1557> 431 190<306.025 980.607>
LayerCount: 3
Fore
SplineSet
431 644 m 259,0,1
 431 1082 431 1082 163 1557 c 1,2,-1
 323 1557 l 1,3,4
 621 1085 621 1085 621 644 c 259,5,6
 621 200 621 200 323 -271 c 1,7,-1
 163 -271 l 1,8,9
 431 208 431 208 431 644 c 259,0,1
EndSplineSet
Layer: 2
SplineSet
323 1557 m 1
 522 1242 621 938 621 644 c 3
 621 348 522 43 323 -271 c 1
 163 -271 l 1
 314 -2 431 269 431 644 c 259
 431 1017 314 1290 163 1557 c 1
 323 1557 l 1
EndSplineSet
EndChar

StartChar: asterisk
Encoding: 11 42 13
Width: 1022
VWidth: 3555
Flags: W
HStem: 1502 20G<458 573>
VStem: 458 115<587 963 1144 1522>
DStem2: 420 1055 458 963 0.864746 0.50221<-405.846 -13.343 177.003 566.483> 458 1144 420 1055 0.864486 -0.502656<-392.507 0 190.397 580.31>
LayerCount: 3
Fore
SplineSet
963 858 m 1,0,-1
 906 760 l 1,1,-1
 573 963 l 1,2,-1
 573 587 l 1,3,-1
 458 587 l 1,4,-1
 458 963 l 1,5,-1
 122 760 l 1,6,-1
 64 858 l 1,7,-1
 420 1055 l 1,8,-1
 64 1248 l 1,9,-1
 122 1347 l 1,10,-1
 458 1144 l 1,11,-1
 458 1522 l 1,12,-1
 573 1522 l 1,13,-1
 573 1144 l 1,14,-1
 906 1347 l 1,15,-1
 963 1248 l 1,16,-1
 604 1055 l 1,17,-1
 963 858 l 1,0,-1
EndSplineSet
Layer: 2
SplineSet
963 858 m 1
 906 760 l 1
 573 963 l 1
 573 587 l 1
 458 587 l 1
 458 963 l 1
 122 760 l 1
 64 858 l 1
 420 1055 l 1
 64 1248 l 1
 122 1347 l 1
 458 1144 l 1
 458 1522 l 1
 573 1522 l 1
 573 1144 l 1
 906 1347 l 1
 963 1248 l 1
 604 1055 l 1
 963 858 l 1
EndSplineSet
EndChar

StartChar: plus
Encoding: 12 43 14
Width: 1716
VWidth: 3555
Flags: W
HStem: 0 21G<771 946> 559 170<220 771 946 1500>
VStem: 771 175<0 559 729 1286>
LayerCount: 3
Fore
SplineSet
1500 729 m 1,0,-1
 1500 559 l 1,1,-1
 946 559 l 1,2,-1
 946 0 l 1,3,-1
 771 0 l 1,4,-1
 771 559 l 1,5,-1
 220 559 l 1,6,-1
 220 729 l 1,7,-1
 771 729 l 1,8,-1
 771 1286 l 1,9,-1
 946 1286 l 1,10,-1
 946 729 l 1,11,-1
 1500 729 l 1,0,-1
EndSplineSet
Layer: 2
SplineSet
1500 729 m 1
 1500 559 l 1
 946 559 l 1
 946 0 l 1
 771 0 l 1
 771 559 l 1
 220 559 l 1
 220 729 l 1
 771 729 l 1
 771 1286 l 1
 946 1286 l 1
 946 729 l 1
 1500 729 l 1
EndSplineSet
EndChar

StartChar: comma
Encoding: 13 44 15
Width: 649
VWidth: 3555
Flags: W
HStem: -238 490<238 288>
VStem: 238 217<82 252>
LayerCount: 3
Fore
SplineSet
455 82 m 1,0,-1
 288 -238 l 1,1,-1
 156 -238 l 1,2,-1
 238 82 l 1,3,-1
 238 252 l 1,4,-1
 455 252 l 1,5,-1
 455 82 l 1,0,-1
EndSplineSet
Layer: 2
SplineSet
455 82 m 1
 288 -238 l 1
 156 -238 l 1
 238 82 l 1
 238 252 l 1
 455 252 l 1
 455 82 l 1
EndSplineSet
EndChar

StartChar: hyphen
Encoding: 14 45 16
Width: 737
VWidth: 3555
Flags: W
HStem: 479 165<99 641>
VStem: 99 542<479 644>
LayerCount: 3
Fore
SplineSet
641 479 m 1,0,-1
 99 479 l 1,1,-1
 99 644 l 1,2,-1
 641 644 l 1,3,-1
 641 479 l 1,0,-1
EndSplineSet
Layer: 2
SplineSet
641 479 m 1
 99 479 l 1
 99 644 l 1
 641 644 l 1
 641 479 l 1
EndSplineSet
EndChar

StartChar: period
Encoding: 15 46 17
Width: 649
VWidth: 3555
Flags: W
HStem: 0 252<220 434>
VStem: 220 214<0 252>
LayerCount: 3
Fore
SplineSet
434 0 m 1,0,-1
 220 0 l 1,1,-1
 220 252 l 1,2,-1
 434 252 l 1,3,-1
 434 0 l 1,0,-1
EndSplineSet
Layer: 2
SplineSet
434 0 m 1
 220 0 l 1
 220 252 l 1
 434 252 l 1
 434 0 l 1
EndSplineSet
EndChar

StartChar: slash
Encoding: 16 47 18
Width: 689
VWidth: 3555
Flags: W
HStem: 1473 20G<512.843 689>
VStem: 0 167<-193 -26> 519 170<1323 1493>
DStem2: 0 -193 167 -193 0.295758 0.955263<49.3915 1764.07>
LayerCount: 3
Fore
SplineSet
167 -193 m 1,0,-1
 0 -193 l 1,1,-1
 519 1493 l 1,2,-1
 689 1493 l 1,3,-1
 167 -193 l 1,0,-1
EndSplineSet
Layer: 2
SplineSet
167 -193 m 1
 0 -193 l 1
 519 1493 l 1
 689 1493 l 1
 167 -193 l 1
EndSplineSet
EndChar

StartChar: zero
Encoding: 17 48 19
Width: 1303
VWidth: 3555
Flags: W
HStem: -28 160<511.772 791.141> 1361 161<511.629 791.141>
VStem: 135 204<374.41 1118.42> 967 203<374.41 1118.2>
LayerCount: 3
Fore
SplineSet
651 1361 m 259,0,1
 339 1361 339 1361 339 746 c 259,2,3
 339 132 339 132 651 132 c 259,4,5
 967 132 967 132 967 746 c 259,6,7
 967 1361 967 1361 651 1361 c 259,0,1
651 1522 m 259,8,9
 906 1522 906 1522 1038 1322.5 c 128,-1,10
 1170 1123 1170 1123 1170 746 c 259,11,12
 1170 370 1170 370 1038 171 c 128,-1,13
 906 -28 906 -28 651 -28 c 259,14,15
 394 -28 394 -28 264.5 171 c 128,-1,16
 135 370 135 370 135 746 c 259,17,18
 135 1123 135 1123 264.5 1322.5 c 128,-1,19
 394 1522 394 1522 651 1522 c 259,8,9
EndSplineSet
Layer: 2
SplineSet
651 1361 m 3
 443 1361 339 1156 339 746 c 259
 339 337 443 132 651 132 c 3
 862 132 967 337 967 746 c 259
 967 1156 862 1361 651 1361 c 3
135 746 m 259
 135 1175 258 1522 651 1522 c 259
 1042 1522 1170 1174 1170 746 c 259
 1170 318 1042 -28 651 -28 c 259
 259 -28 135 318 135 746 c 259
EndSplineSet
EndChar

StartChar: one
Encoding: 18 49 20
Width: 1303
VWidth: 3555
Flags: W
HStem: 0 167<252 587 783 1116> 1238 187<227 414> 1473 20G<478.294 783>
VStem: 587 196<167 1312>
DStem2: 227 1425 227 1238 0.97952 0.201346<0 329.875>
LayerCount: 3
Fore
SplineSet
587 1312 m 1,0,-1
 227 1238 l 1,1,-1
 227 1425 l 1,2,-1
 583 1493 l 1,3,-1
 783 1493 l 1,4,-1
 783 167 l 1,5,-1
 1116 167 l 1,6,-1
 1116 0 l 1,7,-1
 252 0 l 1,8,-1
 252 167 l 1,9,-1
 587 167 l 1,10,-1
 587 1312 l 1,0,-1
EndSplineSet
Layer: 2
SplineSet
587 1312 m 1
 227 1238 l 1
 227 1425 l 1
 583 1493 l 1
 783 1493 l 1
 783 167 l 1
 1116 167 l 1
 1116 0 l 1
 252 0 l 1
 252 167 l 1
 587 167 l 1
 587 1312 l 1
EndSplineSet
EndChar

StartChar: two
Encoding: 19 50 21
Width: 1303
VWidth: 3555
Flags: W
HStem: 0 167<391 1099> 1219 21G<160 239.5> 1351 171<353.908 762.396>
VStem: 889 203<910.637 1228.02>
DStem2: 149 167 391 167 0.696569 0.71749<168.57 1084.82>
LayerCount: 3
Fore
SplineSet
160 1425 m 1,0,1
 410 1522 410 1522 583 1522 c 259,2,3
 818 1522 818 1522 955 1406 c 128,-1,4
 1092 1290 1092 1290 1092 1095 c 259,5,6
 1092 1003 1092 1003 1056.5 920.5 c 128,-1,7
 1021 838 1021 838 932 726 c 0,8,9
 906 696 906 696 771.5 560 c 128,-1,10
 637 424 637 424 391 167 c 1,11,-1
 1099 167 l 1,12,-1
 1099 0 l 1,13,-1
 149 0 l 1,14,-1
 149 167 l 1,15,16
 266 288 266 288 414 439 c 128,-1,17
 562 590 562 590 624 656 c 128,-1,18
 686 722 686 722 715 750 c 0,19,20
 814 858 814 858 851.5 932.5 c 128,-1,21
 889 1007 889 1007 889 1082 c 259,22,23
 889 1201 889 1201 805.5 1276 c 128,-1,24
 722 1351 722 1351 587 1351 c 259,25,26
 398 1351 398 1351 160 1219 c 1,27,-1
 160 1425 l 1,0,1
EndSplineSet
Layer: 2
SplineSet
583 1522 m 3
 873 1522 1092 1373 1092 1095 c 3
 1092 927 1024 843 932 726 c 0
 915 706 862 651 772 560 c 0
 682 469 555 338 391 167 c 1
 1099 167 l 1
 1099 0 l 1
 149 0 l 1
 149 167 l 1
 287 310 485 509 624 656 c 0
 665 700 696 731 715 750 c 0
 812 856 889 930 889 1082 c 3
 889 1248 757 1351 587 1351 c 3
 461 1351 319 1307 160 1219 c 1
 160 1425 l 1
 291 1476 427 1522 583 1522 c 3
EndSplineSet
EndChar

StartChar: three
Encoding: 20 51 22
Width: 1303
VWidth: 3555
Flags: W
HStem: -28 170<272.582 793.679> 715 167<413 800.726> 1351 171<295.012 792.353>
VStem: 903 203<972.107 1250.44> 939 202<274.582 588.297>
LayerCount: 3
Fore
SplineSet
590 1351 m 259,0,1
 414.875 1351 414.875 1351 203 1276 c 1,2,-1
 203 1458 l 1,3,4
 434 1522 434 1522 608 1522 c 259,5,6
 842 1522 842 1522 974 1419 c 128,-1,7
 1106 1316 1106 1316 1106 1134 c 259,8,9
 1106 1010 1106 1010 1034.5 924 c 128,-1,10
 963 838 963 838 832 807 c 1,11,12
 981 771 981 771 1061 675.5 c 128,-1,13
 1141 580 1141 580 1141 437 c 259,14,15
 1141 214 1141 214 989.5 93 c 128,-1,16
 838 -28 838 -28 559 -28 c 259,17,18
 371.916666667 -28 371.916666667 -28 153 43 c 1,19,-1
 153 238 l 1,20,21
 334.333333333 142 334.333333333 142 550 142 c 259,22,23
 939 142 939 142 939 437 c 259,24,25
 939 569 939 569 846 642 c 128,-1,26
 753 715 753 715 590 715 c 2,27,-1
 413 715 l 1,28,-1
 413 882 l 1,29,-1
 597 882 l 2,30,31
 903 882 903 882 903 1113 c 259,32,33
 903 1227 903 1227 821.5 1289 c 128,-1,34
 740 1351 740 1351 590 1351 c 259,0,1
EndSplineSet
Layer: 2
SplineSet
1106 1134 m 3xf0
 1106 951 988 844 832 807 c 1
 1011 764 1141 647 1141 437 c 3
 1141 114 898 -28 559 -28 c 3
 404 -28 282 1 153 43 c 1
 153 238 l 1
 258 182 395 142 550 142 c 3
 809 142 939 240 939 437 c 3xe8
 939 627 789 715 590 715 c 2
 413 715 l 1
 413 882 l 1
 597 882 l 2
 801 882 903 959 903 1113 c 3
 903 1281 769 1351 590 1351 c 3
 443 1351 328 1320 203 1276 c 1
 203 1458 l 1
 357 1501 492 1522 608 1522 c 3
 889 1522 1106 1400 1106 1134 c 3xf0
EndSplineSet
EndChar

StartChar: four
Encoding: 21 52 23
Width: 1303
VWidth: 3555
Flags: W
HStem: 0 21G<771 977> 352 167<264 771 977 1191> 1473 20G<708.884 977>
VStem: 771 206<0 352 519 1319>
LayerCount: 3
Fore
SplineSet
771 519 m 1,0,-1
 771 1319 l 1,1,-1
 264 519 l 1,2,-1
 771 519 l 1,0,-1
977 519 m 1,3,-1
 1191 519 l 1,4,-1
 1191 352 l 1,5,-1
 977 352 l 1,6,-1
 977 0 l 1,7,-1
 771 0 l 1,8,-1
 771 352 l 1,9,-1
 99 352 l 1,10,-1
 99 543 l 1,11,-1
 722 1493 l 1,12,-1
 977 1493 l 1,13,-1
 977 519 l 1,3,-1
EndSplineSet
Layer: 2
SplineSet
771 519 m 1
 771 1319 l 1
 264 519 l 1
 771 519 l 1
977 519 m 1
 1191 519 l 1
 1191 352 l 1
 977 352 l 1
 977 0 l 1
 771 0 l 1
 771 352 l 1
 99 352 l 1
 99 543 l 1
 722 1493 l 1
 977 1493 l 1
 977 519 l 1
EndSplineSet
EndChar

StartChar: five
Encoding: 22 53 24
Width: 1303
VWidth: 3555
Flags: W
HStem: -28 170<280.609 753.121> 821 167<407.581 756.454> 1326 167<404 1014>
VStem: 224 180<960 1326> 924 199<303.954 658.463>
LayerCount: 3
Fore
SplineSet
543 821 m 259,0,1
 393 821 393 821 224 743 c 1,2,-1
 224 1493 l 1,3,-1
 1014 1493 l 1,4,-1
 1014 1326 l 1,5,-1
 404 1326 l 1,6,-1
 404 960 l 1,7,8
 509 988 509 988 583 988 c 259,9,10
 838 988 838 988 980.5 851.5 c 128,-1,11
 1123 715 1123 715 1123 479 c 259,12,13
 1123 234 1123 234 974 103 c 128,-1,14
 825 -28 825 -28 554 -28 c 259,15,16
 370 -28 370 -28 156 35 c 1,17,-1
 156 238 l 1,18,19
 352 142 352 142 543 142 c 259,20,21
 726 142 726 142 825 230.5 c 128,-1,22
 924 319 924 319 924 479 c 259,23,24
 924 641 924 641 825 731 c 128,-1,25
 726 821 726 821 543 821 c 259,0,1
EndSplineSet
Layer: 2
SplineSet
543 821 m 3
 423 821 314 784 224 743 c 1
 224 1493 l 1
 1014 1493 l 1
 1014 1326 l 1
 404 1326 l 1
 404 960 l 1
 474 979 534 988 583 988 c 3
 912 988 1123 802 1123 479 c 3
 1123 140 900 -28 554 -28 c 3
 431 -28 299 -7 156 35 c 1
 156 238 l 1
 266 184 390 142 543 142 c 3
 774 142 924 255 924 479 c 259
 924 705 775 821 543 821 c 3
EndSplineSet
EndChar

StartChar: six
Encoding: 23 54 25
Width: 1303
VWidth: 3555
Flags: W
HStem: -28 160<520.156 837.894> 828 160<515.938 837.305> 1351 171<576.765 1010.85>
VStem: 142 238<372.662 905.553> 974 203<282.07 677.224>
LayerCount: 3
Fore
SplineSet
679 828 m 259,0,1
 536 828 536 828 458 734.5 c 128,-1,2
 380 641 380 641 380 479 c 259,3,4
 380 319 380 319 458 225.5 c 128,-1,5
 536 132 536 132 679 132 c 259,6,7
 814 132 814 132 894 225.5 c 128,-1,8
 974 319 974 319 974 479 c 259,9,10
 974 641 974 641 894 734.5 c 128,-1,11
 814 828 814 828 679 828 c 259,0,1
760 1522 m 259,12,13
 884.666666667 1522 884.666666667 1522 1078 1462 c 1,14,-1
 1078 1276 l 1,15,16
 937.375 1351 937.375 1351 767 1351 c 259,17,18
 373 1351 373 1351 345 811 c 1,19,20
 401 896 401 896 492 942 c 128,-1,21
 583 988 583 988 689 988 c 259,22,23
 917 988 917 988 1047 851.5 c 128,-1,24
 1177 715 1177 715 1177 479 c 259,25,26
 1177 245 1177 245 1040 108.5 c 128,-1,27
 903 -28 903 -28 679 -28 c 259,28,29
 413 -28 413 -28 277.5 171 c 128,-1,30
 142 370 142 370 142 746 c 259,31,32
 142 1095.08125 142 1095.08125 310.243842365 1308.540625 c 128,-1,33
 478.487684729 1522 478.487684729 1522 760 1522 c 259,12,13
EndSplineSet
Layer: 2
SplineSet
974 479 m 259
 974 679 871 828 679 828 c 3
 480 828 380 684 380 479 c 259
 380 276 480 132 679 132 c 3
 870 132 974 280 974 479 c 259
760 1522 m 3
 882 1522 976 1494 1078 1462 c 1
 1078 1276 l 1
 991 1322 889 1351 767 1351 c 3
 504 1351 364 1171 345 811 c 1
 411 912 532 988 689 988 c 3
 996 988 1177 788 1177 479 c 259
 1177 173 982 -28 679 -28 c 3
 278 -28 142 311 142 746 c 3
 142 1174 340 1522 760 1522 c 3
EndSplineSet
EndChar

StartChar: seven
Encoding: 24 55 26
Width: 1303
VWidth: 3555
Flags: W
HStem: 0 21G<377 594.697> 1326 167<167 885>
DStem2: 377 0 587 0 0.359156 0.933277<75.4228 1419.98>
LayerCount: 3
Fore
SplineSet
1130 1411 m 1,0,-1
 587 0 l 1,1,-1
 377 0 l 1,2,-1
 885 1326 l 1,3,-1
 167 1326 l 1,4,-1
 167 1493 l 1,5,-1
 1130 1493 l 1,6,-1
 1130 1411 l 1,0,-1
EndSplineSet
Layer: 2
SplineSet
1130 1411 m 1
 587 0 l 1
 377 0 l 1
 885 1326 l 1
 167 1326 l 1
 167 1493 l 1
 1130 1493 l 1
 1130 1411 l 1
EndSplineSet
EndChar

StartChar: eight
Encoding: 25 56 27
Width: 1303
VWidth: 3555
Flags: W
HStem: -28 160<473.985 836.247> 712 156<478.104 821.971> 1361 161<478.738 823.636>
VStem: 139 206<254.879 587.291> 170 207<966.687 1265.68> 932 198<969.806 1257.81> 963 204<254.188 588.176>
LayerCount: 3
Fore
SplineSet
651 712 m 259,0,1
 509 712 509 712 427 635.5 c 128,-1,2
 345 559 345 559 345 420 c 259,3,4
 345 285 345 285 427 208.5 c 128,-1,5
 509 132 509 132 651 132 c 259,6,7
 800 132 800 132 881.5 208.5 c 128,-1,8
 963 285 963 285 963 420 c 259,9,10
 963 559 963 559 881.5 635.5 c 128,-1,11
 800 712 800 712 651 712 c 259,0,1
451 797 m 1,12,13
 319 828 319 828 244.5 917.5 c 128,-1,14
 170 1007 170 1007 170 1134 c 259,15,16
 170 1316 170 1316 298.5 1419 c 128,-1,17
 427 1522 427 1522 651 1522 c 259,18,19
 875 1522 875 1522 1002.5 1419 c 128,-1,20
 1130 1316 1130 1316 1130 1134 c 259,21,22
 1130 1007 1130 1007 1057 917.5 c 128,-1,23
 984 828 984 828 854 797 c 1,24,25
 1003 760 1003 760 1085 664.5 c 128,-1,26
 1167 569 1167 569 1167 420 c 259,27,28
 1167 207 1167 207 1033 89.5 c 128,-1,29
 899 -28 899 -28 651 -28 c 259,30,31
 401 -28 401 -28 270 89.5 c 128,-1,32
 139 207 139 207 139 420 c 259,33,34
 139 569 139 569 220.5 664.5 c 128,-1,35
 302 760 302 760 451 797 c 1,12,13
377 1116 m 259,36,37
 377 998 377 998 448 933 c 128,-1,38
 519 868 519 868 651 868 c 259,39,40
 779 868 779 868 855.5 933 c 128,-1,41
 932 998 932 998 932 1116 c 259,42,43
 932 1231 932 1231 855.5 1296 c 128,-1,44
 779 1361 779 1361 651 1361 c 259,45,46
 519 1361 519 1361 448 1296 c 128,-1,47
 377 1231 377 1231 377 1116 c 259,36,37
EndSplineSet
Layer: 2
SplineSet
963 420 m 3xf2
 963 610 844 712 651 712 c 3
 464 712 345 606 345 420 c 3
 345 237 466 132 651 132 c 3
 842 132 963 233 963 420 c 3xf2
139 420 m 3
 139 635 270 752 451 797 c 1
 292 834 170 948 170 1134 c 3
 170 1396 377 1522 651 1522 c 259
 925 1522 1130 1396 1130 1134 c 3xec
 1130 949 1011 834 854 797 c 1
 1035 752 1167 635 1167 420 c 3
 1167 120 962 -28 651 -28 c 259
 338 -28 139 119 139 420 c 3
651 1361 m 3
 484 1361 377 1277 377 1116 c 3
 377 952 483 868 651 868 c 3
 815 868 932 954 932 1116 c 3
 932 1275 814 1361 651 1361 c 3
EndSplineSet
EndChar

StartChar: nine
Encoding: 26 57 28
Width: 1303
VWidth: 3555
Flags: W
HStem: -28 170<294.996 724.721> 505 160<466.789 787.041> 1361 161<466.561 781.759>
VStem: 128 207<811.081 1214.63> 960 203<430.172 686>
LayerCount: 3
Fore
SplineSet
960 686 m 1,0,1
 830 505 830 505 615 505 c 259,2,3
 387 505 387 505 257.5 639.5 c 128,-1,4
 128 774 128 774 128 1014 c 259,5,6
 128 1248 128 1248 264.5 1385 c 128,-1,7
 401 1522 401 1522 625 1522 c 259,8,9
 885 1522 885 1522 1024 1322.5 c 128,-1,10
 1163 1123 1163 1123 1163 746 c 259,11,12
 1163 400 1163 400 994.5 186 c 128,-1,13
 826 -28 826 -28 540 -28 c 259,14,15
 384 -28 384 -28 227 28 c 1,16,-1
 227 217 l 1,17,18
 368 142 368 142 533 142 c 259,19,20
 736 142 736 142 841 276 c 128,-1,21
 946 410 946 410 960 686 c 1,0,1
625 665 m 259,22,23
 760 665 760 665 842 757 c 128,-1,24
 924 849 924 849 924 1014 c 259,25,26
 924 1177 924 1177 842 1269 c 128,-1,27
 760 1361 760 1361 625 1361 c 259,28,29
 491 1361 491 1361 413 1269 c 128,-1,30
 335 1177 335 1177 335 1014 c 259,31,32
 335 849 335 849 413 757 c 128,-1,33
 491 665 491 665 625 665 c 259,22,23
EndSplineSet
Layer: 2
SplineSet
625 1522 m 3
 1021 1522 1163 1178 1163 746 c 3
 1163 316 963 -28 540 -28 c 3
 436 -28 332 -9 227 28 c 1
 227 217 l 1
 313 171 413 142 533 142 c 3
 841 142 944 367 960 686 c 1
 889 586 775 505 615 505 c 3
 306 505 128 701 128 1014 c 3
 128 1320 322 1522 625 1522 c 3
335 1014 m 259
 335 812 432 665 625 665 c 259
 819 665 924 811 924 1014 c 259
 924 1215 818 1361 625 1361 c 259
 433 1361 335 1214 335 1014 c 259
EndSplineSet
EndChar

StartChar: colon
Encoding: 27 58 29
Width: 689
VWidth: 3555
Flags: W
HStem: 0 252<238 455> 807 255<238 455>
VStem: 238 217<0 252 807 1062>
LayerCount: 3
Fore
SplineSet
455 0 m 1,0,-1
 238 0 l 1,1,-1
 238 252 l 1,2,-1
 455 252 l 1,3,-1
 455 0 l 1,0,-1
455 807 m 1,4,-1
 238 807 l 1,5,-1
 238 1062 l 1,6,-1
 455 1062 l 1,7,-1
 455 807 l 1,4,-1
EndSplineSet
Layer: 2
SplineSet
455 0 m 1
 238 0 l 1
 238 252 l 1
 455 252 l 1
 455 0 l 1
455 807 m 1
 238 807 l 1
 238 1062 l 1
 455 1062 l 1
 455 807 l 1
EndSplineSet
EndChar

StartChar: semicolon
Encoding: 28 59 30
Width: 689
VWidth: 3555
Flags: W
HStem: 807 255<238 455>
VStem: 238 217<82 252 807 1062>
LayerCount: 3
Fore
SplineSet
455 807 m 1,0,-1
 238 807 l 1,1,-1
 238 1062 l 1,2,-1
 455 1062 l 1,3,-1
 455 807 l 1,0,-1
455 82 m 1,4,-1
 288 -238 l 1,5,-1
 156 -238 l 1,6,-1
 238 82 l 1,7,-1
 238 252 l 1,8,-1
 455 252 l 1,9,-1
 455 82 l 1,4,-1
EndSplineSet
Layer: 2
SplineSet
455 807 m 1
 238 807 l 1
 238 1062 l 1
 455 1062 l 1
 455 807 l 1
455 82 m 1
 288 -238 l 1
 156 -238 l 1
 238 82 l 1
 238 252 l 1
 455 252 l 1
 455 82 l 1
EndSplineSet
EndChar

StartChar: less
Encoding: 29 60 31
Width: 1716
VWidth: 3555
Flags: W
DStem2: 220 726 469 641 0.939901 0.341448<205.012 1299.02> 469 641 220 562 0.939429 -0.342745<0 1092.97>
LayerCount: 3
Fore
SplineSet
1500 278 m 1,0,-1
 1500 95 l 1,1,-1
 220 562 l 1,2,-1
 220 726 l 1,3,-1
 1500 1191 l 1,4,-1
 1500 1007 l 1,5,-1
 469 641 l 1,6,-1
 1500 278 l 1,0,-1
EndSplineSet
Layer: 2
SplineSet
1500 278 m 1
 1500 95 l 1
 220 562 l 1
 220 726 l 1
 1500 1191 l 1
 1500 1007 l 1
 469 641 l 1
 1500 278 l 1
EndSplineSet
EndChar

StartChar: equal
Encoding: 30 61 32
Width: 1716
VWidth: 3555
Flags: W
HStem: 352 171<220 1500> 760 172<220 1500>
LayerCount: 3
Fore
SplineSet
1500 760 m 1,0,-1
 220 760 l 1,1,-1
 220 932 l 1,2,-1
 1500 932 l 1,3,-1
 1500 760 l 1,0,-1
1500 352 m 1,4,-1
 220 352 l 1,5,-1
 220 523 l 1,6,-1
 1500 523 l 1,7,-1
 1500 352 l 1,4,-1
EndSplineSet
Layer: 2
SplineSet
1500 760 m 1
 220 760 l 1
 220 932 l 1
 1500 932 l 1
 1500 760 l 1
1500 352 m 1
 220 352 l 1
 220 523 l 1
 1500 523 l 1
 1500 352 l 1
EndSplineSet
EndChar

StartChar: greater
Encoding: 31 62 33
Width: 1716
VWidth: 3555
Flags: W
DStem2: 220 1191 220 1007 0.939901 -0.341448<62.8265 1154.01> 220 278 220 95 0.939429 0.342745<0 1090.15>
LayerCount: 3
Fore
SplineSet
1500 726 m 1,0,-1
 1500 562 l 1,1,-1
 220 95 l 1,2,-1
 220 278 l 1,3,-1
 1248 641 l 1,4,-1
 220 1007 l 1,5,-1
 220 1191 l 1,6,-1
 1500 726 l 1,0,-1
EndSplineSet
Layer: 2
SplineSet
1500 726 m 1
 1500 562 l 1
 220 95 l 1
 220 278 l 1
 1248 641 l 1
 220 1007 l 1
 220 1191 l 1
 1500 726 l 1
EndSplineSet
EndChar

StartChar: question
Encoding: 32 63 34
Width: 1086
VWidth: 3555
Flags: W
HStem: 0 252<391 597> 1219 21G<146 196.5> 1358 164<303.79 660.238>
VStem: 391 206<0 252 401 721.986> 743 203<1039.13 1279.07>
DStem2: 540 871 696 783 0.714669 0.699463<-130.724 320.139>
LayerCount: 3
Fore
SplineSet
597 0 m 1,0,-1
 391 0 l 1,1,-1
 391 252 l 1,2,-1
 597 252 l 1,3,-1
 597 0 l 1,0,-1
502 1358 m 259,4,5
 340 1358 340 1358 146 1219 c 1,6,-1
 146 1411 l 1,7,8
 342 1522 342 1522 532 1522 c 259,9,10
 722 1522 722 1522 834 1426 c 128,-1,11
 946 1330 946 1330 946 1170 c 259,12,13
 946 1026 946 1026 783 868 c 2,14,-1
 696 783 l 2,15,16
 611 700 611 700 600.5 653 c 128,-1,17
 590 606 590 606 590 523 c 2,18,-1
 590 401 l 1,19,-1
 394 401 l 1,20,-1
 394 559 l 2,21,22
 394 654 394 654 424.5 720 c 128,-1,23
 455 786 455 786 540 871 c 2,24,-1
 634 963 l 2,25,26
 743 1068 743 1068 743 1156 c 259,27,28
 743 1248 743 1248 677 1303 c 128,-1,29
 611 1358 611 1358 502 1358 c 259,4,5
EndSplineSet
Layer: 2
SplineSet
597 0 m 1
 391 0 l 1
 391 252 l 1
 597 252 l 1
 597 0 l 1
536 1522 m 3
 768 1522 946 1395 946 1170 c 3
 946 1029 873 956 783 868 c 2
 696 783 l 2
 616 705 590 675 590 523 c 2
 590 401 l 1
 394 401 l 1
 394 559 l 2
 394 719 444 777 540 871 c 2
 634 963 l 2
 704 1032 743 1093 743 1156 c 259
 743 1286 637 1358 502 1358 c 3
 358 1358 247 1291 146 1219 c 1
 146 1411 l 1
 277 1485 407 1522 536 1522 c 3
EndSplineSet
EndChar

StartChar: at
Encoding: 33 64 35
Width: 2050
VWidth: 3555
Flags: W
HStem: -356 142<794.709 1296.63> 89 142<876.229 1179.72> 842 146<873.113 1179.05> 1302 146<789.817 1311.3>
VStem: 135 143<288.438 798.265> 604 156<352.988 724.496> 1309 142<231 238 373.16 698.67 838 970> 1760 150<426.72 878.972>
LayerCount: 3
Fore
SplineSet
1028 842 m 259,0,1
 899 842 899 842 829.5 760 c 128,-1,2
 760 678 760 678 760 536 c 259,3,4
 760 398 760 398 830 314.5 c 128,-1,5
 900 231 900 231 1028 231 c 259,6,7
 1156 231 1156 231 1227.5 315 c 128,-1,8
 1299 399 1299 399 1299 536 c 259,9,10
 1299 672 1299 672 1226.5 757 c 128,-1,11
 1154 842 1154 842 1028 842 c 259,0,1
1611 -153 m 1,12,13
 1356 -356 1356 -356 1042 -356 c 259,14,15
 856 -356 856 -356 689.5 -290.5 c 128,-1,16
 523 -225 523 -225 400.5 -109 c 128,-1,17
 278 7 278 7 206.5 175.5 c 128,-1,18
 135 344 135 344 135 540 c 259,19,20
 135 737 135 737 204.5 906.5 c 128,-1,21
 274 1076 274 1076 395.5 1194.5 c 128,-1,22
 517 1313 517 1313 687.5 1380.5 c 128,-1,23
 858 1448 858 1448 1055 1448 c 259,24,25
 1284 1448 1284 1448 1480.5 1343.5 c 128,-1,26
 1677 1239 1677 1239 1793.5 1057 c 128,-1,27
 1910 875 1910 875 1910 658 c 259,28,29
 1910 390 1910 390 1747.5 239.5 c 128,-1,30
 1585 89 1585 89 1309 85 c 1,31,-1
 1309 238 l 1,32,33
 1190 89 1190 89 991 89 c 259,34,35
 815 89 815 89 709.5 216.5 c 128,-1,36
 604 344 604 344 604 536 c 259,37,38
 604 731 604 731 709 859.5 c 128,-1,39
 814 988 814 988 991 988 c 259,40,41
 1191 988 1191 988 1309 838 c 1,42,-1
 1309 970 l 1,43,-1
 1451 970 l 1,44,-1
 1451 231 l 1,45,46
 1602 252 1602 252 1681 363 c 128,-1,47
 1760 474 1760 474 1760 654 c 259,48,49
 1760 835 1760 835 1666 984.5 c 128,-1,50
 1572 1134 1572 1134 1411.5 1218 c 128,-1,51
 1251 1302 1251 1302 1059 1302 c 259,52,53
 838 1302 838 1302 660 1206.5 c 128,-1,54
 482 1111 482 1111 380 936.5 c 128,-1,55
 278 762 278 762 278 540 c 259,56,57
 278 384 278 384 338 244.5 c 128,-1,58
 398 105 398 105 500 4.5 c 128,-1,59
 602 -96 602 -96 743.5 -155 c 128,-1,60
 885 -214 885 -214 1042 -214 c 259,61,62
 1312 -214 1312 -214 1522 -43 c 1,63,-1
 1611 -153 l 1,12,13
EndSplineSet
Layer: 2
SplineSet
1028 842 m 259
 852 842 760 721 760 536 c 3
 760 357 853 231 1028 231 c 259
 1202 231 1299 357 1299 536 c 259
 1299 714 1199 842 1028 842 c 259
1611 -153 m 1
 1469 -266 1275 -356 1042 -356 c 3
 542 -356 135 6 135 540 c 259
 135 1074 524 1448 1055 1448 c 3
 1519 1448 1910 1100 1910 658 c 3
 1910 295 1671 90 1309 85 c 1
 1309 238 l 1
 1230 139 1124 89 991 89 c 3
 750 89 604 287 604 536 c 259
 604 788 749 988 991 988 c 3
 1124 988 1230 938 1309 838 c 1
 1309 970 l 1
 1451 970 l 1
 1451 231 l 1
 1655 260 1760 418 1760 654 c 3
 1760 1024 1447 1302 1059 1302 c 3
 613 1302 278 992 278 540 c 3
 278 118 616 -214 1042 -214 c 3
 1241 -214 1403 -140 1522 -43 c 1
 1611 -153 l 1
EndSplineSet
EndChar

StartChar: A
Encoding: 34 65 36
Width: 1399
VWidth: 3555
Flags: W
HStem: 0 21G<14 238.105 1169.89 1384> 380 174<431 977> 1473 20G<579.324 825.582>
DStem2: 14 0 231 0 0.358309 0.933603<77.753 480.894 666.631 1431.02> 818 1493 700 1299 0.354484 -0.935062<139.573 934.386 1120.13 1120.13>
LayerCount: 3
Fore
SplineSet
977 554 m 1,0,-1
 700 1299 l 1,1,-1
 431 554 l 1,2,-1
 977 554 l 1,0,-1
1384 0 m 1,3,-1
 1177 0 l 1,4,-1
 1042 380 l 1,5,-1
 366 380 l 1,6,-1
 231 0 l 1,7,-1
 14 0 l 1,8,-1
 587 1493 l 1,9,-1
 818 1493 l 1,10,-1
 1384 0 l 1,3,-1
EndSplineSet
Layer: 2
SplineSet
977 554 m 1
 700 1299 l 1
 431 554 l 1
 977 554 l 1
1384 0 m 1
 1177 0 l 1
 1042 380 l 1
 366 380 l 1
 231 0 l 1
 14 0 l 1
 587 1493 l 1
 818 1493 l 1
 1384 0 l 1
EndSplineSet
EndChar

StartChar: B
Encoding: 35 66 37
Width: 1407
VWidth: 3555
Flags: W
HStem: 0 163<401 924.571> 715 163<401 903.104> 1330 163<401 902.249>
VStem: 203 198<163 715 878 1330> 995 206<961.83 1245.71> 1049 213<274.777 603.941>
LayerCount: 3
Fore
SplineSet
729 163 m 2,0,1
 1049 163 1049 163 1049 441 c 259,2,3
 1049 715 1049 715 729 715 c 2,4,-1
 401 715 l 1,5,-1
 401 163 l 1,6,-1
 729 163 l 2,0,1
705 878 m 2,7,8
 995 878 995 878 995 1102 c 259,9,10
 995 1330 995 1330 705 1330 c 2,11,-1
 401 1330 l 1,12,-1
 401 878 l 1,13,-1
 705 878 l 2,7,8
719 1493 m 2,14,15
 953 1493 953 1493 1077 1399 c 128,-1,16
 1201 1305 1201 1305 1201 1123 c 259,17,18
 1201 988 1201 988 1135 908 c 128,-1,19
 1069 828 1069 828 950 807 c 1,20,21
 1099 771 1099 771 1180.5 673.5 c 128,-1,22
 1262 576 1262 576 1262 417 c 259,23,24
 1262 220 1262 220 1125 110 c 128,-1,25
 988 0 988 0 740 0 c 2,26,-1
 203 0 l 1,27,-1
 203 1493 l 1,28,-1
 719 1493 l 2,14,15
EndSplineSet
Layer: 2
SplineSet
729 163 m 2xf4
 942 163 1049 256 1049 441 c 3
 1049 624 942 715 729 715 c 2
 401 715 l 1
 401 163 l 1
 729 163 l 2xf4
705 878 m 2
 898 878 995 953 995 1102 c 3xf8
 995 1254 898 1330 705 1330 c 2
 401 1330 l 1
 401 878 l 1
 705 878 l 2
1262 417 m 3xf4
 1262 131 1041 0 740 0 c 2
 203 0 l 1
 203 1493 l 1
 719 1493 l 2
 1001 1493 1201 1389 1201 1123 c 3xf8
 1201 941 1106 835 950 807 c 1
 1136 762 1262 641 1262 417 c 3xf4
EndSplineSet
EndChar

StartChar: C
Encoding: 36 67 38
Width: 1432
VWidth: 3555
Flags: W
HStem: -28 167<622.083 1094.31> 1354 168<622.083 1094.31>
VStem: 115 215<455.834 1036.62>
LayerCount: 3
Fore
SplineSet
1323 1167 m 1,0,1
 1116 1354 1116 1354 858 1354 c 259,2,3
 601 1354 601 1354 465.5 1201.5 c 128,-1,4
 330 1049 330 1049 330 746 c 259,5,6
 330 444 330 444 465.5 291.5 c 128,-1,7
 601 139 601 139 858 139 c 259,8,9
 1116 139 1116 139 1323 326 c 1,10,-1
 1323 115 l 1,11,12
 1116 -28 1116 -28 845 -28 c 259,13,14
 502 -28 502 -28 308.5 176 c 128,-1,15
 115 380 115 380 115 746 c 259,16,17
 115 1113 115 1113 308.5 1317.5 c 128,-1,18
 502 1522 502 1522 845 1522 c 259,19,20
 1116 1522 1116 1522 1323 1380 c 1,21,-1
 1323 1167 l 1,0,1
EndSplineSet
Layer: 2
SplineSet
115 746 m 259
 115 1221 377 1522 845 1522 c 3
 1026 1522 1185 1475 1323 1380 c 1
 1323 1167 l 1
 1185 1292 1030 1354 858 1354 c 3
 494 1354 330 1125 330 746 c 259
 330 368 494 139 858 139 c 3
 1030 139 1185 201 1323 326 c 1
 1323 115 l 1
 1185 20 1026 -28 845 -28 c 3
 377 -28 115 271 115 746 c 259
EndSplineSet
EndChar

StartChar: D
Encoding: 37 68 39
Width: 1578
VWidth: 3555
Flags: W
HStem: 0 163<401 942.272> 1330 163<401 942.272>
VStem: 203 198<163 1330> 1245 213<459.493 1039.46>
LayerCount: 3
Fore
SplineSet
648 163 m 2,0,1
 960 163 960 163 1102.5 305.5 c 128,-1,2
 1245 448 1245 448 1245 750 c 259,3,4
 1245 1052 1245 1052 1102.5 1191 c 128,-1,5
 960 1330 960 1330 648 1330 c 2,6,-1
 401 1330 l 1,7,-1
 401 163 l 1,8,-1
 648 163 l 2,0,1
615 1493 m 2,9,10
 1055 1493 1055 1493 1256.5 1315 c 128,-1,11
 1458 1137 1458 1137 1458 750 c 259,12,13
 1458 363 1458 363 1256.5 181.5 c 128,-1,14
 1055 0 1055 0 615 0 c 2,15,-1
 203 0 l 1,16,-1
 203 1493 l 1,17,-1
 615 1493 l 2,9,10
EndSplineSet
Layer: 2
SplineSet
1245 750 m 259
 1245 1158 1060 1330 648 1330 c 2
 401 1330 l 1
 401 163 l 1
 648 163 l 2
 1060 163 1245 342 1245 750 c 259
1458 750 m 259
 1458 208 1174 0 615 0 c 2
 203 0 l 1
 203 1493 l 1
 615 1493 l 2
 1174 1493 1458 1292 1458 750 c 259
EndSplineSet
EndChar

StartChar: E
Encoding: 38 69 40
Width: 1296
VWidth: 3555
Flags: W
HStem: 0 167<401 1167> 712 170<401 1116> 1326 167<401 1144>
VStem: 203 198<167 712 882 1326>
LayerCount: 3
Fore
SplineSet
1144 1326 m 1,0,-1
 401 1326 l 1,1,-1
 401 882 l 1,2,-1
 1116 882 l 1,3,-1
 1116 712 l 1,4,-1
 401 712 l 1,5,-1
 401 167 l 1,6,-1
 1167 167 l 1,7,-1
 1167 0 l 1,8,-1
 203 0 l 1,9,-1
 203 1493 l 1,10,-1
 1144 1493 l 1,11,-1
 1144 1326 l 1,0,-1
EndSplineSet
Layer: 2
SplineSet
1144 1326 m 1
 401 1326 l 1
 401 882 l 1
 1116 882 l 1
 1116 712 l 1
 401 712 l 1
 401 167 l 1
 1167 167 l 1
 1167 0 l 1
 203 0 l 1
 203 1493 l 1
 1144 1493 l 1
 1144 1326 l 1
EndSplineSet
EndChar

StartChar: F
Encoding: 39 70 41
Width: 1178
VWidth: 3555
Flags: W
HStem: 0 21G<203 401> 715 167<401 995> 1326 167<401 1062>
VStem: 203 198<0 715 882 1326>
LayerCount: 3
Fore
SplineSet
1062 1326 m 1,0,-1
 401 1326 l 1,1,-1
 401 882 l 1,2,-1
 995 882 l 1,3,-1
 995 715 l 1,4,-1
 401 715 l 1,5,-1
 401 0 l 1,6,-1
 203 0 l 1,7,-1
 203 1493 l 1,8,-1
 1062 1493 l 1,9,-1
 1062 1326 l 1,0,-1
EndSplineSet
Layer: 2
SplineSet
1062 1326 m 1
 401 1326 l 1
 401 882 l 1
 995 882 l 1
 995 715 l 1
 401 715 l 1
 401 0 l 1
 203 0 l 1
 203 1493 l 1
 1062 1493 l 1
 1062 1326 l 1
EndSplineSet
EndChar

StartChar: G
Encoding: 40 71 42
Width: 1588
VWidth: 3555
Flags: W
HStem: -28 167<629.383 1160.54> 615 164<889 1219> 1354 168<629.383 1134.95>
VStem: 115 215<455.231 1036.99> 1219 203<189.724 615>
LayerCount: 3
Fore
SplineSet
878 139 m 259,0,1
 1106 139 1106 139 1219 214 c 1,2,-1
 1219 615 l 1,3,-1
 889 615 l 1,4,-1
 889 779 l 1,5,-1
 1422 779 l 1,6,-1
 1422 139 l 1,7,8
 1192 -28 1192 -28 861 -28 c 256,9,10
 505 -28 505 -28 310 176 c 128,-1,11
 115 380 115 380 115 746 c 259,12,13
 115 1113 115 1113 310 1317.5 c 128,-1,14
 505 1522 505 1522 861 1522 c 259,15,16
 1163 1522 1163 1522 1380 1380 c 1,17,-1
 1380 1167 l 1,18,19
 1160 1354 1160 1354 878 1354 c 259,20,21
 330 1354 330 1354 330 746 c 259,22,23
 330 139 330 139 878 139 c 259,0,1
EndSplineSet
Layer: 2
SplineSet
878 139 m 3
 1022 139 1132 156 1219 214 c 1
 1219 615 l 1
 889 615 l 1
 889 779 l 1
 1422 779 l 1
 1422 139 l 1
 1279 35 1095 -28 861 -28 c 3
 382 -28 115 264 115 746 c 259
 115 1228 382 1522 861 1522 c 3
 1062 1522 1235 1475 1380 1380 c 1
 1380 1167 l 1
 1233 1292 1066 1354 878 1354 c 3
 513 1354 330 1151 330 746 c 259
 330 341 513 139 878 139 c 3
EndSplineSet
EndChar

StartChar: H
Encoding: 41 72 43
Width: 1541
VWidth: 3555
Flags: W
HStem: 0 21G<203 401 1137 1340> 712 170<401 1137> 1473 20G<203 401 1137 1340>
VStem: 203 198<0 712 882 1493> 1137 203<0 712 882 1493>
LayerCount: 3
Fore
SplineSet
401 882 m 1,0,-1
 1137 882 l 1,1,-1
 1137 1493 l 1,2,-1
 1340 1493 l 1,3,-1
 1340 0 l 1,4,-1
 1137 0 l 1,5,-1
 1137 712 l 1,6,-1
 401 712 l 1,7,-1
 401 0 l 1,8,-1
 203 0 l 1,9,-1
 203 1493 l 1,10,-1
 401 1493 l 1,11,-1
 401 882 l 1,0,-1
EndSplineSet
Layer: 2
SplineSet
401 882 m 1
 1137 882 l 1
 1137 1493 l 1
 1340 1493 l 1
 1340 0 l 1
 1137 0 l 1
 1137 712 l 1
 401 712 l 1
 401 0 l 1
 203 0 l 1
 203 1493 l 1
 401 1493 l 1
 401 882 l 1
EndSplineSet
EndChar

StartChar: I
Encoding: 42 73 44
Width: 604
VWidth: 3555
Flags: W
HStem: 0 21G<203 401> 1473 20G<203 401>
VStem: 203 198<0 1493>
LayerCount: 3
Fore
SplineSet
401 0 m 1,0,-1
 203 0 l 1,1,-1
 203 1493 l 1,2,-1
 401 1493 l 1,3,-1
 401 0 l 1,0,-1
EndSplineSet
Layer: 2
SplineSet
401 0 m 1
 203 0 l 1
 203 1493 l 1
 401 1493 l 1
 401 0 l 1
EndSplineSet
EndChar

StartChar: J
Encoding: 43 74 45
Width: 604
VWidth: 3555
Flags: W
HStem: -410 172<-106 119.526> 1473 20G<203 401>
VStem: 203 198<-141.868 1493>
LayerCount: 3
Fore
SplineSet
401 102 m 2,0,1
 401 -163 401 -163 300.5 -286.5 c 128,-1,2
 200 -410 200 -410 -28 -410 c 2,3,-1
 -106 -410 l 1,4,-1
 -106 -238 l 1,5,-1
 -43 -238 l 2,6,7
 92 -238 92 -238 147.5 -163.5 c 128,-1,8
 203 -89 203 -89 203 102 c 2,9,-1
 203 1493 l 1,10,-1
 401 1493 l 1,11,-1
 401 102 l 2,0,1
EndSplineSet
Layer: 2
SplineSet
-43 -238 m 2
 161 -238 203 -122 203 102 c 2
 203 1493 l 1
 401 1493 l 1
 401 102 l 2
 401 -231 294 -410 -28 -410 c 2
 -106 -410 l 1
 -106 -238 l 1
 -43 -238 l 2
EndSplineSet
EndChar

StartChar: K
Encoding: 44 75 46
Width: 1343
VWidth: 3555
Flags: W
HStem: 0 21G<203 401 1100.08 1387> 1473 20G<203 401 1051.6 1333>
VStem: 203 198<0 722 865 1493> 1073 260<1233 1493> 1120 267<0 267>
DStem2: 401 865 594 800 0.729445 0.68404<96.3203 919.764> 594 800 401 722 0.703993 -0.710207<0 938.466>
LayerCount: 3
Fore
SplineSet
401 865 m 1,0,-1
 1073 1493 l 1,1,-1
 1333 1493 l 1,2,-1
 594 800 l 1,3,-1
 1387 0 l 1,4,-1
 1120 0 l 1,5,-1
 401 722 l 1,6,-1
 401 0 l 1,7,-1
 203 0 l 1,8,-1
 203 1493 l 1,9,-1
 401 1493 l 1,10,-1
 401 865 l 1,0,-1
EndSplineSet
Layer: 2
SplineSet
401 865 m 1xe8
 1073 1493 l 1
 1333 1493 l 1xf0
 594 800 l 1
 1387 0 l 1
 1120 0 l 1
 401 722 l 1
 401 0 l 1
 203 0 l 1
 203 1493 l 1
 401 1493 l 1
 401 865 l 1xe8
EndSplineSet
EndChar

StartChar: L
Encoding: 45 76 47
Width: 1140
VWidth: 3555
Flags: W
HStem: 0 167<401 1130> 1473 20G<203 401>
VStem: 203 198<167 1493>
LayerCount: 3
Fore
SplineSet
401 167 m 1,0,-1
 1130 167 l 1,1,-1
 1130 0 l 1,2,-1
 203 0 l 1,3,-1
 203 1493 l 1,4,-1
 401 1493 l 1,5,-1
 401 167 l 1,0,-1
EndSplineSet
Layer: 2
SplineSet
401 167 m 1
 1130 167 l 1
 1130 0 l 1
 203 0 l 1
 203 1493 l 1
 401 1493 l 1
 401 167 l 1
EndSplineSet
EndChar

StartChar: M
Encoding: 46 77 48
Width: 1765
VWidth: 3555
Flags: W
HStem: 0 21G<203 394 1373 1571> 1473 20G<203 509.473 1258.45 1571>
VStem: 203 191<0 1312> 1373 198<0 1312>
DStem2: 502 1493 394 1312 0.355122 -0.93482<130.849 1085.66> 882 476 988 288 0.351925 0.936028<0 955.315>
LayerCount: 3
Fore
SplineSet
882 476 m 1,0,-1
 1266 1493 l 1,1,-1
 1571 1493 l 1,2,-1
 1571 0 l 1,3,-1
 1373 0 l 1,4,-1
 1373 1312 l 1,5,-1
 988 288 l 1,6,-1
 783 288 l 1,7,-1
 394 1312 l 1,8,-1
 394 0 l 1,9,-1
 203 0 l 1,10,-1
 203 1493 l 1,11,-1
 502 1493 l 1,12,-1
 882 476 l 1,0,-1
EndSplineSet
Layer: 2
SplineSet
882 476 m 1
 1266 1493 l 1
 1571 1493 l 1
 1571 0 l 1
 1373 0 l 1
 1373 1312 l 1
 988 288 l 1
 783 288 l 1
 394 1312 l 1
 394 0 l 1
 203 0 l 1
 203 1493 l 1
 502 1493 l 1
 882 476 l 1
EndSplineSet
EndChar

StartChar: N
Encoding: 47 78 49
Width: 1534
VWidth: 3555
Flags: W
HStem: 0 21G<203 394 1051.29 1333> 1473 20G<203 482.657 1137 1333>
VStem: 203 191<0 1248> 1137 196<245 1493>
DStem2: 472 1493 394 1248 0.471908 -0.881648<179.195 1414.12>
LayerCount: 3
Fore
SplineSet
1137 245 m 1,0,-1
 1137 1493 l 1,1,-1
 1333 1493 l 1,2,-1
 1333 0 l 1,3,-1
 1062 0 l 1,4,-1
 394 1248 l 1,5,-1
 394 0 l 1,6,-1
 203 0 l 1,7,-1
 203 1493 l 1,8,-1
 472 1493 l 1,9,-1
 1137 245 l 1,0,-1
EndSplineSet
Layer: 2
SplineSet
1137 245 m 1
 1137 1493 l 1
 1333 1493 l 1
 1333 0 l 1
 1062 0 l 1
 394 1248 l 1
 394 0 l 1
 203 0 l 1
 203 1493 l 1
 472 1493 l 1
 1137 245 l 1
EndSplineSet
EndChar

StartChar: O
Encoding: 48 79 50
Width: 1612
VWidth: 3555
Flags: W
HStem: -28 163<613.549 1007.4> 1358 164<614.668 1006.99>
VStem: 115 215<466.66 1023.87> 1286 210<468.142 1023.19>
LayerCount: 3
Fore
SplineSet
1157 1193 m 128,-1,1
 1028 1358 1028 1358 808 1358 c 259,2,3
 588 1358 588 1358 459 1193 c 128,-1,4
 330 1028 330 1028 330 743 c 259,5,6
 330 455 330 455 459 295 c 128,-1,7
 588 135 588 135 808 135 c 259,8,9
 1028 135 1028 135 1157 296.5 c 128,-1,10
 1286 458 1286 458 1286 743 c 259,11,0
 1286 1028 1286 1028 1157 1193 c 128,-1,1
808 -28 m 259,12,13
 492 -28 492 -28 303.5 179.5 c 152,-1,14
 115 387 115 387 115 745 c 259,15,16
 115 1099 115 1099 305 1310.5 c 128,-1,17
 495 1522 495 1522 807 1522 c 259,18,19
 1119 1522 1119 1522 1307.5 1312 c 128,-1,20
 1496 1102 1496 1102 1496 746 c 259,21,22
 1496 390 1496 390 1308.5 181 c 128,-1,23
 1121 -28 1121 -28 808 -28 c 259,12,13
EndSplineSet
Layer: 2
SplineSet
1286 746 m 3
 1286 1083 1130 1358 811 1358 c 3
 486 1358 330 1087 330 746 c 3
 330 400 483 135 811 135 c 3
 1132 135 1286 404 1286 746 c 3
811 1522 m 3
 1259 1522 1496 1198 1496 746 c 3
 1496 295 1259 -28 811 -28 c 3
 370 -28 115 292 115 746 c 3
 115 1197 373 1522 811 1522 c 3
EndSplineSet
EndChar

StartChar: P
Encoding: 49 80 51
Width: 1236
VWidth: 3555
Flags: W
HStem: 0 21G<203 401> 601 163<401 832.199> 1330 163<401 833.59>
VStem: 203 198<0 601 764 1330> 953 214<880.191 1216.24>
LayerCount: 3
Fore
SplineSet
658 764 m 2,0,1
 800 764 800 764 876.5 840.5 c 128,-1,2
 953 917 953 917 953 1049 c 259,3,4
 953 1184 953 1184 876.5 1257 c 128,-1,5
 800 1330 800 1330 658 1330 c 2,6,-1
 401 1330 l 1,7,-1
 401 764 l 1,8,-1
 658 764 l 2,0,1
658 1493 m 2,9,10
 906 1493 906 1493 1036.5 1379.5 c 128,-1,11
 1167 1266 1167 1266 1167 1049 c 259,12,13
 1167 825 1167 825 1036.5 713 c 128,-1,14
 906 601 906 601 658 601 c 2,15,-1
 401 601 l 1,16,-1
 401 0 l 1,17,-1
 203 0 l 1,18,-1
 203 1493 l 1,19,-1
 658 1493 l 2,9,10
EndSplineSet
Layer: 2
SplineSet
953 1049 m 3
 953 1232 843 1330 658 1330 c 2
 401 1330 l 1
 401 764 l 1
 658 764 l 2
 842 764 953 868 953 1049 c 3
1167 1049 m 3
 1167 739 975 601 658 601 c 2
 401 601 l 1
 401 0 l 1
 203 0 l 1
 203 1493 l 1
 658 1493 l 2
 971 1493 1167 1353 1167 1049 c 3
EndSplineSet
EndChar

StartChar: Q
Encoding: 50 81 52
Width: 1612
VWidth: 3555
Flags: W
HStem: -28 163<618.168 892> 1358 164<614.668 1006.99>
VStem: 115 215<466.66 1023.87> 1113 245<-264 -19> 1286 210<460.793 1023.19>
LayerCount: 3
Fore
SplineSet
1157 1193 m 128,-1,1
 1028 1358 1028 1358 808 1358 c 259,2,3
 588 1358 588 1358 459 1193 c 128,-1,4
 330 1028 330 1028 330 743 c 259,5,6
 330 458 330 458 459 296.5 c 128,-1,7
 588 135 588 135 808 135 c 259,8,9
 1028 135 1028 135 1157 296.5 c 128,-1,10
 1286 458 1286 458 1286 743 c 259,11,0
 1286 1028 1286 1028 1157 1193 c 128,-1,1
892 -24 m 1,12,-1
 811 -28 l 257,13,14
 492 -28 492 -28 303.5 179.5 c 152,-1,15
 115 387 115 387 115 745 c 259,16,17
 115 1099 115 1099 305 1310.5 c 128,-1,18
 495 1522 495 1522 811 1522 c 259,19,20
 1119 1522 1119 1522 1307.5 1312 c 128,-1,21
 1496 1102 1496 1102 1496 746 c 259,22,23
 1496 488 1496 488 1394.5 301.5 c 128,-1,24
 1293 115 1293 115 1092 24 c 1,25,-1
 1358 -264 l 1,26,-1
 1113 -264 l 1,27,-1
 892 -24 l 1,12,-1
EndSplineSet
Layer: 2
SplineSet
1286 746 m 3xe8
 1286 1083 1130 1358 811 1358 c 3
 486 1358 330 1087 330 746 c 3
 330 400 483 135 811 135 c 3
 1132 135 1286 404 1286 746 c 3xe8
1496 746 m 3
 1496 386 1347 139 1092 24 c 1
 1358 -264 l 1
 1113 -264 l 1xf0
 892 -24 l 1
 854 -24 840 -28 811 -28 c 3
 370 -28 115 292 115 746 c 3
 115 1197 373 1522 811 1522 c 3
 1259 1522 1496 1198 1496 746 c 3
EndSplineSet
EndChar

StartChar: R
Encoding: 51 82 53
Width: 1425
VWidth: 3555
Flags: W
HStem: 0 21G<203 401 1134.16 1364> 628 172<401 806.054> 1330 163<401 843.651>
VStem: 203 198<0 628 800 1330> 953 214<900.781 1226.97>
DStem2: 1163 404 957 380 0.44544 -0.895312<-298.689 353.243>
LayerCount: 3
Fore
SplineSet
910 700 m 1,0,1
 1036 660 1036 660 1163 404 c 2,2,-1
 1364 0 l 1,3,-1
 1144 0 l 1,4,-1
 957 380 l 2,5,6
 880 537 880 537 812 582.5 c 128,-1,7
 744 628 744 628 621 628 c 2,8,-1
 401 628 l 1,9,-1
 401 0 l 1,10,-1
 203 0 l 1,11,-1
 203 1493 l 1,12,-1
 658 1493 l 2,13,14
 1167 1493 1167 1493 1167 1066 c 259,15,16
 1167 924 1167 924 1101 830 c 128,-1,17
 1035 736 1035 736 910 700 c 1,0,1
658 800 m 2,18,19
 953 800 953 800 953 1066 c 259,20,21
 953 1330 953 1330 658 1330 c 2,22,-1
 401 1330 l 1,23,-1
 401 800 l 1,24,-1
 658 800 l 2,18,19
EndSplineSet
Layer: 2
SplineSet
1167 1066 m 3
 1167 868 1068 746 910 700 c 1
 995 674 1078 574 1163 404 c 2
 1364 0 l 1
 1144 0 l 1
 957 380 l 2
 885 525 831 628 621 628 c 2
 401 628 l 1
 401 0 l 1
 203 0 l 1
 203 1493 l 1
 658 1493 l 2
 997 1493 1167 1351 1167 1066 c 3
658 800 m 2
 855 800 953 889 953 1066 c 3
 953 1242 855 1330 658 1330 c 2
 401 1330 l 1
 401 800 l 1
 658 800 l 2
EndSplineSet
EndChar

StartChar: S
Encoding: 52 83 54
Width: 1300
VWidth: 3555
Flags: W
HStem: -28 163<351.803 835.973> 1358 164<458.975 936.026>
VStem: 135 204<972.202 1254.06> 977 210<253.085 543.389>
DStem2: 621 878 566 689 0.982062 -0.188556<-238.51 323.569>
LayerCount: 3
Fore
SplineSet
658 1522 m 259,0,1
 856 1522 856 1522 1099 1448 c 1,2,-1
 1099 1248 l 1,3,4
 875 1358 875 1358 686 1358 c 259,5,6
 516 1358 516 1358 427.5 1294.5 c 128,-1,7
 339 1231 339 1231 339 1113 c 259,8,9
 339 1010 339 1010 398.5 960 c 128,-1,10
 458 910 458 910 621 878 c 2,11,-1
 746 854 l 2,12,13
 972 810 972 810 1079 704 c 128,-1,14
 1186 598 1186 598 1187 413 c 259,15,16
 1187 196 1187 196 1041.5 84 c 128,-1,17
 896 -28 896 -28 615 -28 c 259,18,19
 385 -28 385 -28 142 68 c 1,20,-1
 142 274 l 1,21,22
 395 135 395 135 615 135 c 259,23,24
 786 135 786 135 881.5 203 c 128,-1,25
 977 271 977 271 977 394 c 259,26,27
 977 509 977 509 907.5 568.5 c 128,-1,28
 838 628 838 628 689 661 c 2,29,-1
 566 689 l 2,30,31
 341 740 341 740 238 832 c 128,-1,32
 135 924 135 924 135 1095 c 259,33,34
 135 1299 135 1299 274 1410.5 c 128,-1,35
 413 1522 413 1522 658 1522 c 259,0,1
EndSplineSet
Layer: 2
SplineSet
658 1522 m 3
 821 1522 963 1489 1099 1448 c 1
 1099 1248 l 1
 950 1321 812 1358 686 1358 c 3
 490 1358 339 1293 339 1113 c 3
 339 942 449 911 621 878 c 2
 746 854 l 2
 1008 804 1187 695 1187 413 c 3
 1187 95 953 -28 615 -28 c 3
 437 -28 286 11 142 68 c 1
 142 274 l 1
 277 200 430 135 615 135 c 3
 814 135 977 209 977 394 c 3
 977 574 854 624 689 661 c 2
 566 689 l 2
 314 746 135 826 135 1095 c 3
 135 1386 356 1522 658 1522 c 3
EndSplineSet
EndChar

StartChar: T
Encoding: 53 84 55
Width: 1249
VWidth: 3555
Flags: W
HStem: 0 21G<523 729> 1326 167<-3 523 729 1259>
VStem: 523 206<0 1326>
LayerCount: 3
Fore
SplineSet
1259 1326 m 1,0,-1
 729 1326 l 1,1,-1
 729 0 l 1,2,-1
 523 0 l 1,3,-1
 523 1326 l 1,4,-1
 -3 1326 l 1,5,-1
 -3 1493 l 1,6,-1
 1259 1493 l 1,7,-1
 1259 1326 l 1,0,-1
EndSplineSet
Layer: 2
SplineSet
1259 1326 m 1
 729 1326 l 1
 729 0 l 1
 523 0 l 1
 523 1326 l 1
 -3 1326 l 1
 -3 1493 l 1
 1259 1493 l 1
 1259 1326 l 1
EndSplineSet
EndChar

StartChar: U
Encoding: 54 85 56
Width: 1499
VWidth: 3555
Flags: W
HStem: -28 163<552.975 955.087> 1473 20G<177 380 1120 1323>
VStem: 177 203<322.106 1493> 1120 203<322.106 1493>
LayerCount: 3
Fore
SplineSet
380 587 m 2,0,1
 380 349 380 349 469.5 242 c 128,-1,2
 559 135 559 135 750 135 c 259,3,4
 946 135 946 135 1033 242 c 128,-1,5
 1120 349 1120 349 1120 587 c 2,6,-1
 1120 1493 l 1,7,-1
 1323 1493 l 1,8,-1
 1323 562 l 2,9,10
 1323 271 1323 271 1177 121.5 c 128,-1,11
 1031 -28 1031 -28 750 -28 c 259,12,13
 469 -28 469 -28 323 121.5 c 128,-1,14
 177 271 177 271 177 562 c 2,15,-1
 177 1493 l 1,16,-1
 380 1493 l 1,17,-1
 380 587 l 2,0,1
EndSplineSet
Layer: 2
SplineSet
750 -28 m 259
 371 -28 177 179 177 562 c 2
 177 1493 l 1
 380 1493 l 1
 380 587 l 2
 380 295 473 135 750 135 c 3
 1031 135 1120 292 1120 587 c 2
 1120 1493 l 1
 1323 1493 l 1
 1323 562 l 2
 1323 179 1129 -28 750 -28 c 259
EndSplineSet
EndChar

StartChar: V
Encoding: 55 86 57
Width: 1399
VWidth: 3555
Flags: W
HStem: 0 21G<579.324 825.582> 1473 20G<14 234.514 1169.42 1384>
DStem2: 227 1493 14 1493 0.358309 -0.933603<0 1344.89> 700 234 818 0 0.354484 0.935062<0 1346.33>
LayerCount: 3
Fore
SplineSet
227 1493 m 1,0,-1
 700 234 l 1,1,-1
 1177 1493 l 1,2,-1
 1384 1493 l 1,3,-1
 818 0 l 1,4,-1
 587 0 l 1,5,-1
 14 1493 l 1,6,-1
 227 1493 l 1,0,-1
EndSplineSet
Layer: 2
SplineSet
227 1493 m 1
 700 234 l 1
 1177 1493 l 1
 1384 1493 l 1
 818 0 l 1
 587 0 l 1
 14 1493 l 1
 227 1493 l 1
EndSplineSet
EndChar

StartChar: W
Encoding: 56 87 58
Width: 2029
VWidth: 3555
Flags: W
HStem: 0 21G<439.003 700.896 1325.13 1590> 1473 20G<71 276.008 894.055 1132.01 1748.09 1958>
VStem: 71 200<1293 1493> 1753 205<1288 1493>
DStem2: 271 1493 71 1493 0.242383 -0.970181<0 1300.96> 587 231 696 0 0.237782 0.971318<0 1138.9> 1127 1493 1014 1299 0.236371 -0.971663<161.793 1300.93> 1443 231 1585 0 0.242383 0.970181<0 1299.51>
LayerCount: 3
Fore
SplineSet
587 231 m 1,0,-1
 899 1493 l 1,1,-1
 1127 1493 l 1,2,-1
 1443 231 l 1,3,-1
 1753 1493 l 1,4,-1
 1958 1493 l 1,5,-1
 1585 0 l 1,6,-1
 1330 0 l 1,7,-1
 1014 1299 l 1,8,-1
 696 0 l 1,9,-1
 444 0 l 1,10,-1
 71 1493 l 1,11,-1
 271 1493 l 1,12,-1
 587 231 l 1,0,-1
EndSplineSet
Layer: 2
SplineSet
587 231 m 1
 899 1493 l 1
 1127 1493 l 1
 1443 231 l 1
 1753 1493 l 1
 1958 1493 l 1
 1585 0 l 1
 1330 0 l 1
 1014 1299 l 1
 696 0 l 1
 444 0 l 1
 71 1493 l 1
 271 1493 l 1
 587 231 l 1
EndSplineSet
EndChar

StartChar: X
Encoding: 57 88 59
Width: 1407
VWidth: 3555
Flags: W
HStem: 0 21G<64 291.407 1109.88 1340> 1473 20G<128 362.357 1078.53 1309>
VStem: 64 214<0 214> 128 221<1272 1493> 1092 217<1276 1493> 1123 217<0 217>
DStem2: 64 0 278 0 0.567114 0.823639<121.362 888.178 1144.86 1812.69> 349 1493 128 1493 0.554572 -0.832136<0 666.195 909.736 1671.62>
LayerCount: 3
Fore
SplineSet
719 939 m 1,0,-1
 1092 1493 l 1,1,-1
 1309 1493 l 1,2,-1
 828 774 l 1,3,-1
 1340 0 l 1,4,-1
 1123 0 l 1,5,-1
 705 637 l 1,6,-1
 278 0 l 1,7,-1
 64 0 l 1,8,-1
 597 800 l 1,9,-1
 128 1493 l 1,10,-1
 349 1493 l 1,11,-1
 719 939 l 1,0,-1
EndSplineSet
Layer: 2
SplineSet
719 939 m 1xd0
 1092 1493 l 1
 1309 1493 l 1xd8
 828 774 l 1
 1340 0 l 1
 1123 0 l 1
 705 637 l 1
 278 0 l 1
 64 0 l 1xe4
 597 800 l 1
 128 1493 l 1
 349 1493 l 1
 719 939 l 1xd0
EndSplineSet
EndChar

StartChar: Y
Encoding: 58 89 60
Width: 1249
VWidth: 3555
Flags: W
HStem: 0 21G<523 729> 1473 20G<-3 227.366 1028.44 1255>
VStem: -3 217<1276 1493> 523 206<0 712> 1042 213<1280 1493>
DStem2: 214 1493 -3 1493 0.558615 -0.829427<0 739.688> 625 878 729 712 0.558615 0.829427<0 743.04>
LayerCount: 3
Fore
SplineSet
625 878 m 1,0,-1
 1042 1493 l 1,1,-1
 1255 1493 l 1,2,-1
 729 712 l 1,3,-1
 729 0 l 1,4,-1
 523 0 l 1,5,-1
 523 712 l 1,6,-1
 -3 1493 l 1,7,-1
 214 1493 l 1,8,-1
 625 878 l 1,0,-1
EndSplineSet
Layer: 2
SplineSet
625 878 m 1
 1042 1493 l 1
 1255 1493 l 1
 729 712 l 1
 729 0 l 1
 523 0 l 1
 523 712 l 1
 -3 1493 l 1
 214 1493 l 1
 625 878 l 1
EndSplineSet
EndChar

StartChar: Z
Encoding: 59 90 61
Width: 1407
VWidth: 3555
Flags: W
HStem: 0 167<345 1312> 1326 167<115 1035>
DStem2: 92 153 345 167 0.627363 0.778727<169.625 1505.05>
LayerCount: 3
Fore
SplineSet
1290 1340 m 1,0,-1
 345 167 l 1,1,-1
 1312 167 l 1,2,-1
 1312 0 l 1,3,-1
 92 0 l 1,4,-1
 92 153 l 1,5,-1
 1035 1326 l 1,6,-1
 115 1326 l 1,7,-1
 115 1493 l 1,8,-1
 1290 1493 l 1,9,-1
 1290 1340 l 1,0,-1
EndSplineSet
Layer: 2
SplineSet
1290 1340 m 1
 345 167 l 1
 1312 167 l 1
 1312 0 l 1
 92 0 l 1
 92 153 l 1
 1035 1326 l 1
 115 1326 l 1
 115 1493 l 1
 1290 1493 l 1
 1290 1340 l 1
EndSplineSet
EndChar

StartChar: bracketleft
Encoding: 60 91 62
Width: 798
VWidth: 3555
Flags: W
HStem: -271 143<363 601> 1415 142<363 601>
VStem: 174 427<-271 -128 1415 1557> 174 189<-128 1415>
LayerCount: 3
Fore
SplineSet
601 1415 m 1,0,-1
 363 1415 l 1,1,-1
 363 -128 l 1,2,-1
 601 -128 l 1,3,-1
 601 -271 l 1,4,-1
 174 -271 l 1,5,-1
 174 1557 l 1,6,-1
 601 1557 l 1,7,-1
 601 1415 l 1,0,-1
EndSplineSet
Layer: 2
SplineSet
601 1415 m 1xe0
 363 1415 l 1
 363 -128 l 1xd0
 601 -128 l 1
 601 -271 l 1
 174 -271 l 1
 174 1557 l 1
 601 1557 l 1
 601 1415 l 1xe0
EndSplineSet
EndChar

StartChar: backslash
Encoding: 61 92 63
Width: 689
VWidth: 3555
Flags: W
HStem: 1473 20G<0 173.192>
VStem: 0 167<1326 1493> 519 170<-193 -23>
DStem2: 167 1493 0 1493 0.295758 -0.955263<0 1714.68>
LayerCount: 3
Fore
SplineSet
519 -193 m 1,0,-1
 0 1493 l 1,1,-1
 167 1493 l 1,2,-1
 689 -193 l 1,3,-1
 519 -193 l 1,0,-1
EndSplineSet
Layer: 2
SplineSet
519 -193 m 1
 0 1493 l 1
 167 1493 l 1
 689 -193 l 1
 519 -193 l 1
EndSplineSet
EndChar

StartChar: bracketright
Encoding: 62 93 64
Width: 798
VWidth: 3555
Flags: W
HStem: -271 143<200 441> 1415 142<200 441>
VStem: 200 421<-271 -128 1415 1557> 441 180<-128 1415>
LayerCount: 3
Fore
SplineSet
200 -271 m 1,0,-1
 200 -128 l 1,1,-1
 441 -128 l 1,2,-1
 441 1415 l 1,3,-1
 200 1415 l 1,4,-1
 200 1557 l 1,5,-1
 621 1557 l 1,6,-1
 621 -271 l 1,7,-1
 200 -271 l 1,0,-1
EndSplineSet
Layer: 2
SplineSet
200 -271 m 1xe0
 200 -128 l 1xe0
 441 -128 l 1
 441 1415 l 1xd0
 200 1415 l 1
 200 1557 l 1
 621 1557 l 1
 621 -271 l 1
 200 -271 l 1xe0
EndSplineSet
EndChar

StartChar: asciicircum
Encoding: 63 94 65
Width: 1716
VWidth: 3555
Flags: W
HStem: 939 554
LayerCount: 3
Fore
SplineSet
1302 939 m 1,0,-1
 858 1333 l 1,1,-1
 417 939 l 1,2,-1
 220 939 l 1,3,-1
 760 1493 l 1,4,-1
 957 1493 l 1,5,-1
 1500 939 l 1,6,-1
 1302 939 l 1,0,-1
EndSplineSet
Layer: 2
SplineSet
1302 939 m 1
 858 1333 l 1
 417 939 l 1
 220 939 l 1
 760 1493 l 1
 957 1493 l 1
 1500 939 l 1
 1302 939 l 1
EndSplineSet
EndChar

StartChar: underscore
Encoding: 64 95 66
Width: 1022
VWidth: 3555
Flags: W
HStem: -484 142<-17 1049>
LayerCount: 3
Fore
SplineSet
-17 -484 m 1,0,-1
 -17 -342 l 1,1,-1
 1049 -342 l 1,2,-1
 1049 -484 l 1,3,-1
 -17 -484 l 1,0,-1
EndSplineSet
Layer: 2
SplineSet
-17 -484 m 1
 -17 -342 l 1
 1049 -342 l 1
 1049 -484 l 1
 -17 -484 l 1
EndSplineSet
EndChar

StartChar: grave
Encoding: 65 96 67
Width: 1022
VWidth: 3555
Flags: W
HStem: 1266 373
VStem: 167 481
LayerCount: 3
Fore
SplineSet
498 1266 m 1,0,-1
 167 1639 l 1,1,-1
 370 1639 l 1,2,-1
 648 1266 l 1,3,-1
 498 1266 l 1,0,-1
EndSplineSet
Layer: 2
SplineSet
498 1266 m 1
 167 1639 l 1
 370 1639 l 1
 648 1266 l 1
 498 1266 l 1
EndSplineSet
EndChar

StartChar: a
Encoding: 66 97 68
Width: 1253
VWidth: 3555
Flags: W
HStem: -28 153<390.018 714.933> 0 21G<885 1069> 566 142<406.391 885> 991 153<314.297 763.113>
VStem: 125 184<202.738 478.29> 885 184<0 167 303.973 566 708 872.586>
LayerCount: 3
Fore
SplineSet
705 566 m 2,0,1
 479 566 479 566 394 514 c 128,-1,2
 309 462 309 462 309 339 c 259,3,4
 309 238 309 238 373 181.5 c 128,-1,5
 437 125 437 125 543 125 c 259,6,7
 705 125 705 125 795 233.5 c 128,-1,8
 885 342 885 342 885 523 c 2,9,-1
 885 566 l 1,10,-1
 705 566 l 2,0,1
207 1069 m 1,11,12
 385 1144 385 1144 587 1144 c 259,13,14
 1069 1144 1069 1144 1069 641 c 2,15,-1
 1069 0 l 1,16,-1
 885 0 l 1,17,-1
 885 167 l 1,18,19
 764 -28 764 -28 498 -28 c 259,20,21
 326 -28 326 -28 225.5 67.5 c 128,-1,22
 125 163 125 163 125 326 c 259,23,24
 125 708 125 708 625 708 c 2,25,-1
 885 708 l 1,26,-1
 885 726 l 2,27,28
 885 854 885 854 802 922.5 c 128,-1,29
 719 991 719 991 569 991 c 259,30,31
 373 991 373 991 207 899 c 1,32,-1
 207 1069 l 1,11,12
EndSplineSet
Layer: 2
SplineSet
543 125 m 3xbc
 768 125 885 293 885 523 c 2
 885 566 l 1
 705 566 l 2
 464 566 309 542 309 339 c 3
 309 202 405 125 543 125 c 3xbc
207 1069 m 1
 316 1115 445 1144 587 1144 c 3
 908 1144 1069 976 1069 641 c 2
 1069 0 l 1
 885 0 l 1x7c
 885 167 l 1
 804 37 675 -28 498 -28 c 3
 274 -28 125 105 125 326 c 3
 125 581 292 708 625 708 c 2
 885 708 l 1
 885 726 l 2
 885 907 756 991 569 991 c 3
 438 991 318 960 207 899 c 1
 207 1069 l 1
EndSplineSet
Substitution2: "Single Substitution lookup 22 subtable" uni0E38
Substitution2: "Single Substitution lookup 22 subtable" uni0E38
EndChar

StartChar: b
Encoding: 67 98 69
Width: 1300
VWidth: 3555
Flags: W
HStem: -28 153<528.45 839.313> 0 21G<189 373> 991 153<526.767 839.095>
VStem: 189 184<0 167 309.178 810.808 953 1557> 995 196<309.186 811.818>
LayerCount: 3
Fore
SplineSet
995 562 m 259,0,1
 995 764 995 764 915 877.5 c 128,-1,2
 835 991 835 991 686 991 c 259,3,4
 536 991 536 991 454.5 877.5 c 128,-1,5
 373 764 373 764 373 562 c 259,6,7
 373 356 373 356 454.5 240.5 c 128,-1,8
 536 125 536 125 686 125 c 259,9,10
 835 125 835 125 915 240.5 c 128,-1,11
 995 356 995 356 995 562 c 259,0,1
373 953 m 1,12,13
 488 1144 488 1144 729 1144 c 259,14,15
 936 1144 936 1144 1063.5 986 c 128,-1,16
 1191 828 1191 828 1191 562 c 259,17,18
 1191 295 1191 295 1063.5 133.5 c 128,-1,19
 936 -28 936 -28 729 -28 c 259,20,21
 484 -28 484 -28 373 167 c 1,22,-1
 373 0 l 1,23,-1
 189 0 l 1,24,-1
 189 1557 l 1,25,-1
 373 1557 l 1,26,-1
 373 953 l 1,12,13
EndSplineSet
Layer: 2
SplineSet
686 125 m 259xb8
 909 125 995 322 995 562 c 3
 995 799 908 991 686 991 c 259
 463 991 373 800 373 562 c 3
 373 321 462 125 686 125 c 259xb8
1191 562 m 259
 1191 242 1032 -28 729 -28 c 3xb8
 566 -28 447 37 373 167 c 1
 373 0 l 1
 189 0 l 1x78
 189 1557 l 1
 373 1557 l 1
 373 953 l 1
 450 1080 568 1144 729 1144 c 3
 1032 1144 1191 881 1191 562 c 259
EndSplineSet
Substitution2: "Single Substitution lookup 22 subtable" uni0E39
Substitution2: "Single Substitution lookup 22 subtable" uni0E39
EndChar

StartChar: c
Encoding: 68 99 70
Width: 1126
VWidth: 3555
Flags: W
HStem: -28 156<496.364 917.543> 991 153<494.585 913.029>
VStem: 115 194<330.379 792.746>
LayerCount: 3
Fore
SplineSet
686 128 m 259,0,1
 863 128 863 128 998 214 c 1,2,-1
 998 43 l 1,3,4
 838 -28 838 -28 665 -28 c 259,5,6
 410 -28 410 -28 262.5 128.5 c 128,-1,7
 115 285 115 285 115 562 c 259,8,9
 115 838 115 838 264 991 c 128,-1,10
 413 1144 413 1144 679 1144 c 259,11,12
 861 1144 861 1144 998 1078 c 1,13,-1
 998 906 l 1,14,15
 849 991 849 991 686 991 c 259,16,17
 505 991 505 991 407 877.5 c 128,-1,18
 309 764 309 764 309 562 c 259,19,20
 309 356 309 356 407 242 c 128,-1,21
 505 128 505 128 686 128 c 259,0,1
EndSplineSet
Layer: 2
SplineSet
115 562 m 259
 115 924 320 1144 679 1144 c 3
 800 1144 907 1122 998 1078 c 1
 998 906 l 1
 899 963 795 991 686 991 c 3
 435 991 309 819 309 562 c 3
 309 302 433 128 686 128 c 3
 811 128 914 160 998 214 c 1
 998 43 l 1
 891 -4 780 -28 665 -28 c 3
 315 -28 115 205 115 562 c 259
EndSplineSet
Substitution2: "Single Substitution lookup 22 subtable" uni0E3A
Substitution2: "Single Substitution lookup 22 subtable" uni0E3A
EndChar

StartChar: d
Encoding: 69 100 71
Width: 1300
VWidth: 3555
Flags: W
HStem: -28 153<456.115 774.453> 0 21G<932 1116> 991 153<456.333 774.642>
VStem: 115 187<309.623 811.599> 932 184<0 167 318.262 801.889 953 1557>
LayerCount: 3
Fore
SplineSet
1116 1557 m 1,0,-1
 1116 0 l 1,1,-1
 932 0 l 1,2,-1
 932 167 l 1,3,4
 871 71 871 71 783.5 21.5 c 128,-1,5
 696 -28 696 -28 573 -28 c 259,6,7
 370 -28 370 -28 242.5 133.5 c 128,-1,8
 115 295 115 295 115 562 c 259,9,10
 115 828 115 828 242.5 986 c 128,-1,11
 370 1144 370 1144 573 1144 c 259,12,13
 696 1144 696 1144 783.5 1098 c 128,-1,14
 871 1052 871 1052 932 953 c 1,15,-1
 932 1557 l 1,16,-1
 1116 1557 l 1,0,-1
302 562 m 259,17,18
 302 356 302 356 383.5 240.5 c 128,-1,19
 465 125 465 125 615 125 c 259,20,21
 764 125 764 125 848 240.5 c 128,-1,22
 932 356 932 356 932 562 c 259,23,24
 932 764 932 764 848 877.5 c 128,-1,25
 764 991 764 991 615 991 c 259,26,27
 465 991 465 991 383.5 877.5 c 128,-1,28
 302 764 302 764 302 562 c 259,17,18
EndSplineSet
Layer: 2
SplineSet
573 1144 m 3xb8
 755 1144 858 1073 932 953 c 1
 932 1557 l 1
 1116 1557 l 1
 1116 0 l 1
 932 0 l 1x78
 932 167 l 1
 858 51 753 -28 573 -28 c 3
 274 -28 115 245 115 562 c 259
 115 879 274 1144 573 1144 c 3xb8
615 991 m 259
 392 991 302 800 302 562 c 3
 302 321 391 125 615 125 c 259xb8
 838 125 932 322 932 562 c 3
 932 799 837 991 615 991 c 259
EndSplineSet
EndChar

StartChar: e
Encoding: 70 101 72
Width: 1262
VWidth: 3555
Flags: W
HStem: -28 156<499.25 972.407> 516 142<312 970> 991 153<478.572 828.066>
VStem: 115 187<337.108 516 658 793.844> 970 183<661 838.887>
LayerCount: 3
Fore
SplineSet
302 516 m 1,0,1
 339 128 339 128 708 128 c 259,2,3
 913 128 913 128 1109 231 c 1,4,-1
 1109 57 l 1,5,6
 913 -28 913 -28 696 -28 c 259,7,8
 431 -28 431 -28 273 126.5 c 128,-1,9
 115 281 115 281 115 550 c 259,10,11
 115 828 115 828 259.5 986 c 128,-1,12
 404 1144 404 1144 661 1144 c 259,13,14
 889 1144 889 1144 1021 1001 c 128,-1,15
 1153 858 1153 858 1153 608 c 2,16,-1
 1153 516 l 1,17,-1
 302 516 l 1,0,1
970 661 m 1,18,19
 967 814 967 814 885.5 902.5 c 128,-1,20
 804 991 804 991 665 991 c 259,21,22
 512 991 512 991 419 906 c 128,-1,23
 326 821 326 821 312 658 c 1,24,-1
 970 661 l 1,18,19
EndSplineSet
Layer: 2
SplineSet
661 1144 m 3
 975 1144 1153 928 1153 608 c 2
 1153 516 l 1
 302 516 l 1
 327 257 462 128 708 128 c 3
 845 128 978 162 1109 231 c 1
 1109 57 l 1
 978 0 841 -28 696 -28 c 3
 342 -28 115 194 115 550 c 0
 115 908 309 1144 661 1144 c 3
970 661 m 1
 966 855 858 991 665 991 c 3
 450 991 330 863 312 658 c 1
 970 661 l 1
EndSplineSet
EndChar

StartChar: f
Encoding: 71 102 73
Width: 720
VWidth: 3555
Flags: W
HStem: 0 21G<224 404> 977 143<47 224 404 712> 1408 149<449.865 760>
VStem: 224 180<0 977 1120 1362.94>
LayerCount: 3
Fore
SplineSet
587 1408 m 2,0,1
 488 1408 488 1408 446 1367 c 128,-1,2
 404 1326 404 1326 404 1219 c 2,3,-1
 404 1120 l 1,4,-1
 712 1120 l 1,5,-1
 712 977 l 1,6,-1
 404 977 l 1,7,-1
 404 0 l 1,8,-1
 224 0 l 1,9,-1
 224 977 l 1,10,-1
 47 977 l 1,11,-1
 47 1120 l 1,12,-1
 224 1120 l 1,13,-1
 224 1201 l 2,14,15
 224 1387 224 1387 309 1472 c 128,-1,16
 394 1557 394 1557 587 1557 c 2,17,-1
 760 1557 l 1,18,-1
 760 1408 l 1,19,-1
 587 1408 l 2,0,1
EndSplineSet
Layer: 2
SplineSet
224 1201 m 2
 224 1453 333 1557 587 1557 c 2
 760 1557 l 1
 760 1408 l 1
 587 1408 l 2
 451 1408 404 1358 404 1219 c 2
 404 1120 l 1
 712 1120 l 1
 712 977 l 1
 404 977 l 1
 404 0 l 1
 224 0 l 1
 224 977 l 1
 47 977 l 1
 47 1120 l 1
 224 1120 l 1
 224 1201 l 2
EndSplineSet
EndChar

StartChar: g
Encoding: 72 103 74
Width: 1300
VWidth: 3555
Flags: W
HStem: -431 157<339.418 776.57> 0 153<456.177 773.547> 991 153<453.329 776.96> 1100 20G<932 1116>
VStem: 115 187<328.431 813.888> 932 184<-110.2 200 337.131 809.701 953 1120>
LayerCount: 3
Fore
SplineSet
932 576 m 259,0,1
 932 771 932 771 848 881 c 128,-1,2
 764 991 764 991 615 991 c 259,3,4
 465 991 465 991 383.5 881 c 128,-1,5
 302 771 302 771 302 576 c 259,6,7
 302 373 302 373 383.5 263 c 128,-1,8
 465 153 465 153 615 153 c 259,9,10
 764 153 764 153 848 263 c 128,-1,11
 932 373 932 373 932 576 c 259,0,1
248 -189 m 1,12,13
 414 -274 414 -274 573 -274 c 259,14,15
 932 -274 932 -274 932 106 c 2,16,-1
 932 200 l 1,17,18
 818 0 818 0 573 0 c 259,19,20
 366 0 366 0 240.5 158 c 128,-1,21
 115 316 115 316 115 576 c 259,22,23
 115 835 115 835 240.5 989.5 c 128,-1,24
 366 1144 366 1144 573 1144 c 259,25,26
 821 1144 821 1144 932 953 c 1,27,-1
 932 1120 l 1,28,-1
 1116 1120 l 1,29,-1
 1116 139 l 2,30,31
 1116 -431 1116 -431 601 -431 c 259,32,33
 456 -431 456 -431 248 -370 c 1,34,-1
 248 -189 l 1,12,13
EndSplineSet
Layer: 2
SplineSet
615 153 m 259xec
 838 153 932 337 932 576 c 3
 932 809 834 991 615 991 c 259
 395 991 302 809 302 576 c 3
 302 337 392 153 615 153 c 259xec
115 576 m 259
 115 890 273 1144 573 1144 c 3xec
 738 1144 858 1080 932 953 c 1
 932 1120 l 1
 1116 1120 l 1xdc
 1116 139 l 2
 1116 -241 944 -431 601 -431 c 3
 465 -431 355 -401 248 -370 c 1
 248 -189 l 1
 344 -238 441 -274 573 -274 c 3
 812 -274 932 -147 932 106 c 2
 932 200 l 1
 856 67 736 0 573 0 c 3
 273 0 115 262 115 576 c 259
EndSplineSet
EndChar

StartChar: h
Encoding: 73 104 75
Width: 1300
VWidth: 3555
Flags: W
HStem: 0 21G<189 373 943 1123> 988 156<539.619 840.254>
VStem: 189 184<0 834.311 950 1557> 943 180<0 871.891>
LayerCount: 3
Fore
SplineSet
733 1144 m 259,0,1
 1123 1144 1123 1144 1123 679 c 2,2,-1
 1123 0 l 1,3,-1
 943 0 l 1,4,-1
 943 668 l 2,5,6
 943 988 943 988 693 988 c 259,7,8
 540 988 540 988 456.5 896 c 128,-1,9
 373 804 373 804 373 634 c 2,10,-1
 373 0 l 1,11,-1
 189 0 l 1,12,-1
 189 1557 l 1,13,-1
 373 1557 l 1,14,-1
 373 950 l 1,15,16
 505 1144 505 1144 733 1144 c 259,0,1
EndSplineSet
Layer: 2
SplineSet
733 1144 m 3
 1009 1144 1123 964 1123 679 c 2
 1123 0 l 1
 943 0 l 1
 943 668 l 2
 943 881 860 988 693 988 c 3
 481 988 373 851 373 634 c 2
 373 0 l 1
 189 0 l 1
 189 1557 l 1
 373 1557 l 1
 373 950 l 1
 461 1079 581 1144 733 1144 c 3
EndSplineSet
EndChar

StartChar: i
Encoding: 74 105 76
Width: 571
VWidth: 3555
Flags: W
HStem: 0 21G<196 377> 1100 20G<196 377> 1326 231<196 377>
VStem: 196 181<0 1120 1326 1557>
LayerCount: 3
Fore
SplineSet
377 0 m 1,0,-1
 196 0 l 1,1,-1
 196 1120 l 1,2,-1
 377 1120 l 1,3,-1
 377 0 l 1,0,-1
377 1326 m 1,4,-1
 196 1326 l 1,5,-1
 196 1557 l 1,6,-1
 377 1557 l 1,7,-1
 377 1326 l 1,4,-1
EndSplineSet
Layer: 2
SplineSet
377 0 m 1
 196 0 l 1
 196 1120 l 1
 377 1120 l 1
 377 0 l 1
377 1326 m 1
 196 1326 l 1
 196 1557 l 1
 377 1557 l 1
 377 1326 l 1
EndSplineSet
EndChar

StartChar: j
Encoding: 75 106 77
Width: 571
VWidth: 3555
Flags: W
HStem: -431 160<-35 151.15> 1100 20G<196 377> 1326 231<196 377>
VStem: 196 181<-225.004 1120 1326 1557>
LayerCount: 3
Fore
SplineSet
377 -17 m 2,0,1
 377 -234 377 -234 297 -332.5 c 128,-1,2
 217 -431 217 -431 31 -431 c 2,3,-1
 -35 -431 l 1,4,-1
 -35 -271 l 1,5,-1
 10 -271 l 2,6,7
 118 -271 118 -271 157 -220.5 c 128,-1,8
 196 -170 196 -170 196 -17 c 2,9,-1
 196 1120 l 1,10,-1
 377 1120 l 1,11,-1
 377 -17 l 2,0,1
377 1326 m 1,12,-1
 196 1326 l 1,13,-1
 196 1557 l 1,14,-1
 377 1557 l 1,15,-1
 377 1326 l 1,12,-1
EndSplineSet
Layer: 2
SplineSet
10 -271 m 2
 174 -271 196 -198 196 -17 c 2
 196 1120 l 1
 377 1120 l 1
 377 -17 l 2
 377 -290 294 -431 31 -431 c 2
 -35 -431 l 1
 -35 -271 l 1
 10 -271 l 2
377 1326 m 1
 196 1326 l 1
 196 1557 l 1
 377 1557 l 1
 377 1326 l 1
EndSplineSet
EndChar

StartChar: k
Encoding: 76 107 78
Width: 1187
VWidth: 3555
Flags: W
HStem: 0 21G<189 373 922.006 1184> 1100 20G<897.35 1156>
VStem: 189 184<0 543 637 1557> 920 236<884 1120> 943 241<0 241>
DStem2: 373 637 562 597 0.750538 0.660827<115.419 729.724> 562 597 373 543 0.721457 -0.692459<0 688.273>
LayerCount: 3
Fore
SplineSet
373 637 m 1,0,-1
 920 1120 l 1,1,-1
 1156 1120 l 1,2,-1
 562 597 l 1,3,-1
 1184 0 l 1,4,-1
 943 0 l 1,5,-1
 373 543 l 1,6,-1
 373 0 l 1,7,-1
 189 0 l 1,8,-1
 189 1557 l 1,9,-1
 373 1557 l 1,10,-1
 373 637 l 1,0,-1
EndSplineSet
Layer: 2
SplineSet
373 637 m 1xe8
 920 1120 l 1
 1156 1120 l 1xf0
 562 597 l 1
 1184 0 l 1
 943 0 l 1
 373 543 l 1
 373 0 l 1
 189 0 l 1
 189 1557 l 1
 373 1557 l 1
 373 637 l 1xe8
EndSplineSet
EndChar

StartChar: l
Encoding: 77 108 79
Width: 571
VWidth: 3555
Flags: W
HStem: 0 21G<196 377>
VStem: 196 181<0 1557>
LayerCount: 3
Fore
SplineSet
377 0 m 1,0,-1
 196 0 l 1,1,-1
 196 1557 l 1,2,-1
 377 1557 l 1,3,-1
 377 0 l 1,0,-1
EndSplineSet
Layer: 2
SplineSet
377 0 m 1
 196 0 l 1
 196 1557 l 1
 377 1557 l 1
 377 0 l 1
EndSplineSet
EndChar

StartChar: m
Encoding: 78 109 80
Width: 1992
VWidth: 3555
Flags: W
HStem: 0 21G<189 373 910 1099 1635 1825> 988 156<526.942 825.553 1259.43 1539.14> 1100 20G<189 373>
VStem: 189 184<0 840.49 950 1120> 910 189<0 840.49> 1635 190<0 886.345>
LayerCount: 3
Fore
SplineSet
1066 906 m 1,0,1
 1198 1144 1198 1144 1458 1144 c 259,2,3
 1632 1144 1632 1144 1728.5 1023.5 c 128,-1,4
 1825 903 1825 903 1825 679 c 2,5,-1
 1825 0 l 1,6,-1
 1635 0 l 1,7,-1
 1635 668 l 2,8,9
 1635 988 1635 988 1408 988 c 259,10,11
 1259 988 1259 988 1179 896 c 128,-1,12
 1099 804 1099 804 1099 634 c 2,13,-1
 1099 0 l 1,14,-1
 910 0 l 1,15,-1
 910 668 l 2,16,17
 910 838 910 838 855 913 c 128,-1,18
 800 988 800 988 682 988 c 259,19,20
 533 988 533 988 453 896 c 128,-1,21
 373 804 373 804 373 634 c 2,22,-1
 373 0 l 1,23,-1
 189 0 l 1,24,-1
 189 1120 l 1,25,-1
 373 1120 l 1,26,-1
 373 950 l 1,27,28
 437 1052 437 1052 524 1098 c 128,-1,29
 611 1144 611 1144 733 1144 c 259,30,31
 981 1144 981 1144 1066 906 c 1,0,1
EndSplineSet
Layer: 2
SplineSet
373 950 m 1xbc
 449 1072 550 1144 733 1144 c 3
 898 1144 1009 1065 1066 906 c 1
 1154 1065 1285 1144 1458 1144 c 3
 1713 1144 1825 949 1825 679 c 2
 1825 0 l 1
 1635 0 l 1
 1635 668 l 2
 1635 881 1559 988 1408 988 c 3
 1199 988 1099 849 1099 634 c 2
 1099 0 l 1
 910 0 l 1
 910 668 l 2
 910 865 862 988 682 988 c 3xdc
 473 988 373 849 373 634 c 2
 373 0 l 1
 189 0 l 1
 189 1120 l 1
 373 1120 l 1
 373 950 l 1xbc
EndSplineSet
EndChar

StartChar: n
Encoding: 79 110 81
Width: 1300
VWidth: 3555
Flags: W
HStem: 0 21G<189 373 943 1123> 988 156<539.619 840.254> 1100 20G<189 373>
VStem: 189 184<0 834.311 950 1120> 943 180<0 871.891>
LayerCount: 3
Fore
SplineSet
733 1144 m 3,0,1
 1123 1144 1123 1144 1123 679 c 2,2,-1
 1123 0 l 1,3,-1
 943 0 l 1,4,-1
 943 668 l 2,5,6
 943 988 943 988 693 988 c 3,7,8
 540 988 540 988 456.5 896 c 128,-1,9
 373 804 373 804 373 634 c 2,10,-1
 373 0 l 1,11,-1
 189 0 l 1,12,-1
 189 1120 l 1,13,-1
 373 1120 l 1,14,-1
 373 950 l 1,15,16
 505 1144 505 1144 733 1144 c 3,0,1
EndSplineSet
Layer: 2
SplineSet
733 1144 m 3xd8
 1009 1144 1123 964 1123 679 c 2
 1123 0 l 1
 943 0 l 1
 943 668 l 2
 943 881 860 988 693 988 c 3xd8
 481 988 373 851 373 634 c 2
 373 0 l 1
 189 0 l 1
 189 1120 l 1
 373 1120 l 1xb8
 373 950 l 1
 461 1079 581 1144 733 1144 c 3xd8
EndSplineSet
EndChar

StartChar: o
Encoding: 80 111 82
Width: 1253
VWidth: 3555
Flags: W
HStem: -28 156<472.357 785.645> 991 153<465.853 778.053>
VStem: 115 194<320.912 801.241> 950 191<320.912 789.319>
LayerCount: 3
Fore
SplineSet
625 991 m 259,0,1
 476 991 476 991 392.5 877.5 c 128,-1,2
 309 764 309 764 309 562 c 259,3,4
 309 359 309 359 392.5 243.5 c 128,-1,5
 476 128 476 128 625 128 c 259,6,7
 774 128 774 128 862 243.5 c 128,-1,8
 950 359 950 359 950 562 c 259,9,10
 950 757 950 757 862 874 c 128,-1,11
 774 991 774 991 625 991 c 259,0,1
625 1144 m 259,12,13
 871 1144 871 1144 1006 991 c 128,-1,14
 1141 838 1141 838 1141 562 c 259,15,16
 1141 285 1141 285 1006 128.5 c 128,-1,17
 871 -28 871 -28 625 -28 c 259,18,19
 380 -28 380 -28 247.5 128.5 c 128,-1,20
 115 285 115 285 115 562 c 259,21,22
 115 838 115 838 247.5 991 c 128,-1,23
 380 1144 380 1144 625 1144 c 259,12,13
EndSplineSet
Layer: 2
SplineSet
950 562 m 3
 950 794 844 991 625 991 c 259
 403 991 309 799 309 562 c 259
 309 324 403 128 625 128 c 259
 848 128 950 324 950 562 c 3
115 562 m 259
 115 912 284 1144 625 1144 c 259
 967 1144 1141 913 1141 562 c 259
 1141 211 967 -28 625 -28 c 259
 283 -28 115 211 115 562 c 259
EndSplineSet
EndChar

StartChar: p
Encoding: 81 112 83
Width: 1300
VWidth: 3555
Flags: W
HStem: -431 21G<189 373> -28 153<528.45 839.313> 991 153<526.767 839.095> 1100 20G<189 373>
VStem: 189 184<-431 167 309.178 810.808 953 1120> 995 196<309.186 811.818>
LayerCount: 3
Fore
SplineSet
189 -431 m 1,0,-1
 189 1120 l 1,1,-1
 373 1120 l 1,2,-1
 373 953 l 1,3,4
 488 1144 488 1144 729 1144 c 259,5,6
 936 1144 936 1144 1063.5 986 c 128,-1,7
 1191 828 1191 828 1191 562 c 259,8,9
 1191 295 1191 295 1063.5 133.5 c 128,-1,10
 936 -28 936 -28 729 -28 c 259,11,12
 484 -28 484 -28 373 167 c 1,13,-1
 373 -431 l 1,14,-1
 189 -431 l 1,0,-1
995 562 m 259,15,16
 995 764 995 764 915 877.5 c 128,-1,17
 835 991 835 991 686 991 c 259,18,19
 536 991 536 991 454.5 877.5 c 128,-1,20
 373 764 373 764 373 562 c 259,21,22
 373 356 373 356 454.5 240.5 c 128,-1,23
 536 125 536 125 686 125 c 259,24,25
 835 125 835 125 915 240.5 c 128,-1,26
 995 356 995 356 995 562 c 259,15,16
EndSplineSet
Layer: 2
SplineSet
1191 562 m 259xec
 1191 242 1032 -28 729 -28 c 3
 566 -28 447 37 373 167 c 1
 373 -431 l 1
 189 -431 l 1
 189 1120 l 1
 373 1120 l 1xdc
 373 953 l 1
 450 1080 568 1144 729 1144 c 3
 1032 1144 1191 881 1191 562 c 259xec
686 125 m 259
 909 125 995 322 995 562 c 3
 995 799 908 991 686 991 c 259xec
 463 991 373 800 373 562 c 3
 373 321 462 125 686 125 c 259
EndSplineSet
EndChar

StartChar: q
Encoding: 82 113 84
Width: 1300
VWidth: 3555
Flags: W
HStem: -431 21G<932 1116> -28 153<456.115 774.453> 991 153<456.333 774.642> 1100 20G<932 1116>
VStem: 115 187<309.623 811.599> 932 184<-431 167 318.262 801.889 953 1120>
LayerCount: 3
Fore
SplineSet
302 562 m 259,0,1
 302 356 302 356 383.5 240.5 c 128,-1,2
 465 125 465 125 615 125 c 259,3,4
 764 125 764 125 848 240.5 c 128,-1,5
 932 356 932 356 932 562 c 259,6,7
 932 764 932 764 848 877.5 c 128,-1,8
 764 991 764 991 615 991 c 259,9,10
 465 991 465 991 383.5 877.5 c 128,-1,11
 302 764 302 764 302 562 c 259,0,1
932 167 m 1,12,13
 871 71 871 71 783.5 21.5 c 128,-1,14
 696 -28 696 -28 573 -28 c 259,15,16
 370 -28 370 -28 242.5 133.5 c 128,-1,17
 115 295 115 295 115 562 c 259,18,19
 115 828 115 828 242.5 986 c 128,-1,20
 370 1144 370 1144 573 1144 c 259,21,22
 696 1144 696 1144 783.5 1098 c 128,-1,23
 871 1052 871 1052 932 953 c 1,24,-1
 932 1120 l 1,25,-1
 1116 1120 l 1,26,-1
 1116 -431 l 1,27,-1
 932 -431 l 1,28,-1
 932 167 l 1,12,13
EndSplineSet
Layer: 2
SplineSet
615 991 m 259xec
 392 991 302 800 302 562 c 3
 302 321 391 125 615 125 c 259
 838 125 932 322 932 562 c 3
 932 799 837 991 615 991 c 259xec
573 1144 m 3
 755 1144 858 1073 932 953 c 1
 932 1120 l 1
 1116 1120 l 1xdc
 1116 -431 l 1
 932 -431 l 1
 932 167 l 1
 858 51 753 -28 573 -28 c 3
 274 -28 115 245 115 562 c 259
 115 879 274 1144 573 1144 c 3
EndSplineSet
EndChar

StartChar: r
Encoding: 83 114 85
Width: 841
VWidth: 3555
Flags: W
HStem: 0 21G<189 373> 984 160<528.115 840.257> 1100 20G<189 373>
VStem: 189 184<0 819.693 950 1120>
LayerCount: 3
Fore
SplineSet
842 950 m 1,0,1
 786 984 786 984 696 984 c 3,2,3
 536 984 536 984 454.5 883.5 c 128,-1,4
 373 783 373 783 373 590 c 2,5,-1
 373 0 l 1,6,-1
 189 0 l 1,7,-1
 189 1120 l 1,8,-1
 373 1120 l 1,9,-1
 373 950 l 1,10,11
 431 1052 431 1052 523 1098 c 128,-1,12
 615 1144 615 1144 750 1144 c 2,13,14
 790 1144 l 2,15,16
 814 1144 814 1144 842 1137 c 1,17,-1
 842 950 l 1,0,1
EndSplineSet
Layer: 2
SplineSet
373 950 m 1xb0
 446 1078 557 1144 750 1144 c 2
 790 1144 l 2
 806 1144 823 1142 842 1137 c 1
 842 950 l 1
 805 973 756 984 696 984 c 3xd0
 467 984 373 829 373 590 c 2
 373 0 l 1
 189 0 l 1
 189 1120 l 1
 373 1120 l 1
 373 950 l 1xb0
EndSplineSet
EndChar

StartChar: s
Encoding: 84 115 86
Width: 1069
VWidth: 3555
Flags: W
HStem: -28 153<256.364 705.343> 991 153<360.08 839.202>
VStem: 122 173<730.274 929.677> 779 191<194.223 402.643>
DStem2: 540 654 444 502 0.982212 -0.187776<-225.392 237.608>
LayerCount: 3
Fore
SplineSet
233.5 1062.5 m 128,-1,1
 345 1144 345 1144 561 1144 c 259,2,3
 777 1144 777 1144 906 1088 c 1,4,-1
 906 917 l 1,5,6
 769 991 769 991 573 991 c 259,7,8
 295 991 295 991 295 828 c 259,9,10
 295 760 295 760 344 721 c 128,-1,11
 393 682 393 682 540 654 c 2,12,-1
 608 641 l 2,13,14
 804 601 804 601 887 524.5 c 128,-1,15
 970 448 970 448 970 298 c 259,16,17
 970 148 970 148 846 60 c 128,-1,18
 722 -28 722 -28 519 -28 c 259,19,20
 316 -28 316 -28 109 40 c 1,21,-1
 109 231 l 1,22,23
 319 125 319 125 509 125 c 259,24,25
 637 125 637 125 708 171 c 128,-1,26
 779 217 779 217 779 295 c 259,27,28
 779 370 779 370 727.5 410 c 128,-1,29
 676 450 676 450 505 488 c 2,30,-1
 444 502 l 2,31,32
 272 541 272 541 197 615 c 128,-1,33
 122 689 122 689 122 835 c 259,34,0
 122 981 122 981 233.5 1062.5 c 128,-1,1
EndSplineSet
Layer: 2
SplineSet
550 1144 m 3
 687 1144 809 1130 906 1088 c 1
 906 917 l 1
 817 965 704 991 573 991 c 3
 388 991 295 937 295 828 c 3
 295 715 402 680 540 654 c 2
 608 641 l 2
 822 600 970 533 970 309 c 3
 970 71 759 -28 505 -28 c 3
 379 -28 247 -5 109 40 c 1
 109 231 l 1
 249 160 382 125 509 125 c 3
 648 125 779 171 779 295 c 3
 779 441 632 459 505 488 c 2
 444 502 l 2
 250 546 122 613 122 821 c 3
 122 1054 303 1144 550 1144 c 3
EndSplineSet
EndChar

StartChar: t
Encoding: 85 116 87
Width: 805
VWidth: 3555
Flags: W
HStem: 0 153<415.025 753> 977 143<54 193 377 753>
VStem: 193 184<191.109 977 1120 1439>
LayerCount: 3
Fore
SplineSet
753 1120 m 1,0,-1
 753 977 l 1,1,-1
 377 977 l 1,2,-1
 377 370 l 2,3,4
 377 231 377 231 414 192 c 128,-1,5
 451 153 451 153 566 153 c 2,6,-1
 753 153 l 1,7,-1
 753 0 l 1,8,-1
 566 0 l 2,9,10
 352 0 352 0 272.5 78 c 128,-1,11
 193 156 193 156 193 370 c 2,12,-1
 193 977 l 1,13,-1
 54 977 l 1,14,-1
 54 1120 l 1,15,-1
 193 1120 l 1,16,-1
 193 1439 l 1,17,-1
 377 1439 l 1,18,-1
 377 1120 l 1,19,-1
 753 1120 l 1,0,-1
EndSplineSet
Layer: 2
SplineSet
566 0 m 2
 279 0 193 83 193 370 c 2
 193 977 l 1
 54 977 l 1
 54 1120 l 1
 193 1120 l 1
 193 1439 l 1
 377 1439 l 1
 377 1120 l 1
 753 1120 l 1
 753 977 l 1
 377 977 l 1
 377 370 l 2
 377 195 401 153 566 153 c 2
 753 153 l 1
 753 0 l 1
 566 0 l 2
EndSplineSet
EndChar

StartChar: u
Encoding: 86 117 88
Width: 1300
VWidth: 3555
Flags: W
HStem: -28 160<460.469 762.379> 0 21G<932 1113> 1100 20G<170 359 932 1113>
VStem: 170 189<238.478 1120> 932 181<0 170 289.754 1120>
LayerCount: 3
Fore
SplineSet
932 170 m 1,0,1
 790 -28 790 -28 569 -28 c 259,2,3
 170 -28 170 -28 170 444 c 2,4,-1
 170 1120 l 1,5,-1
 359 1120 l 1,6,-1
 359 451 l 2,7,8
 359 132 359 132 608 132 c 259,9,10
 757 132 757 132 844.5 227.5 c 128,-1,11
 932 323 932 323 932 488 c 2,12,-1
 932 1120 l 1,13,-1
 1113 1120 l 1,14,-1
 1113 0 l 1,15,-1
 932 0 l 1,16,-1
 932 170 l 1,0,1
EndSplineSet
Layer: 2
SplineSet
932 170 m 1x78
 850 56 748 -28 569 -28 c 3
 303 -28 170 129 170 444 c 2
 170 1120 l 1
 359 1120 l 1
 359 451 l 2
 359 238 442 132 608 132 c 3xb8
 814 132 932 277 932 488 c 2
 932 1120 l 1
 1113 1120 l 1
 1113 0 l 1
 932 0 l 1
 932 170 l 1x78
EndSplineSet
EndChar

StartChar: v
Encoding: 87 118 89
Width: 1215
VWidth: 3555
Flags: W
HStem: 0 21G<471.589 740.5> 1100 20G<64 262.487 949.598 1153>
DStem2: 255 1120 64 1120 0.347451 -0.937698<0 1006.9> 608 177 733 0 0.351123 0.936329<0 1005.5>
LayerCount: 3
Fore
SplineSet
608 177 m 1,0,-1
 957 1120 l 1,1,-1
 1153 1120 l 1,2,-1
 733 0 l 1,3,-1
 479 0 l 1,4,-1
 64 1120 l 1,5,-1
 255 1120 l 1,6,-1
 608 177 l 1,0,-1
EndSplineSet
Layer: 2
SplineSet
608 177 m 1
 957 1120 l 1
 1153 1120 l 1
 733 0 l 1
 479 0 l 1
 64 1120 l 1
 255 1120 l 1
 608 177 l 1
EndSplineSet
EndChar

StartChar: w
Encoding: 88 119 90
Width: 1676
VWidth: 3555
Flags: W
HStem: 0 21G<374.732 602.239 1076.7 1304.27> 1100 20G<85 276.28 723.811 955.257 1402.79 1594>
VStem: 85 186<934 1120> 1408 186<934 1120>
DStem2: 271 1120 85 1120 0.254706 -0.967019<0 904.978> 502 245 597 0 0.253406 0.96736<0 738.112> 950 1120 838 920 0.256355 -0.966583<164.605 904.722> 1180 245 1299 0 0.254706 0.967019<0 904.214>
LayerCount: 3
Fore
SplineSet
502 245 m 1,0,-1
 729 1120 l 1,1,-1
 950 1120 l 1,2,-1
 1180 245 l 1,3,-1
 1408 1120 l 1,4,-1
 1594 1120 l 1,5,-1
 1299 0 l 1,6,-1
 1082 0 l 1,7,-1
 838 920 l 1,8,-1
 597 0 l 1,9,-1
 380 0 l 1,10,-1
 85 1120 l 1,11,-1
 271 1120 l 1,12,-1
 502 245 l 1,0,-1
EndSplineSet
Layer: 2
SplineSet
502 245 m 1
 729 1120 l 1
 950 1120 l 1
 1180 245 l 1
 1408 1120 l 1
 1594 1120 l 1
 1299 0 l 1
 1082 0 l 1
 838 920 l 1
 597 0 l 1
 380 0 l 1
 85 1120 l 1
 271 1120 l 1
 502 245 l 1
EndSplineSet
EndChar

StartChar: x
Encoding: 89 120 91
Width: 1215
VWidth: 3555
Flags: W
HStem: 0 21G<57 292.785 917.125 1144> 1100 20G<95 327.025 891.176 1123>
VStem: 57 221<0 221> 95 217<903 1120> 906 217<903 1120> 932 212<0 212>
DStem2: 57 0 278 0 0.604091 0.796916<133.504 681.877 910.039 1405.42> 312 1120 95 1120 0.598626 -0.801029<0 497.799 718.697 1268.3>
LayerCount: 3
Fore
SplineSet
1144 0 m 1,0,-1
 932 0 l 1,1,-1
 604 441 l 1,2,-1
 278 0 l 1,3,-1
 57 0 l 1,4,-1
 495 587 l 1,5,-1
 95 1120 l 1,6,-1
 312 1120 l 1,7,-1
 611 722 l 1,8,-1
 906 1120 l 1,9,-1
 1123 1120 l 1,10,-1
 722 576 l 1,11,-1
 1144 0 l 1,0,-1
EndSplineSet
Layer: 2
SplineSet
1144 0 m 1xc4
 932 0 l 1
 604 441 l 1
 278 0 l 1
 57 0 l 1xe4
 495 587 l 1
 95 1120 l 1
 312 1120 l 1
 611 722 l 1
 906 1120 l 1
 1123 1120 l 1xd8
 722 576 l 1
 1144 0 l 1xc4
EndSplineSet
EndChar

StartChar: y
Encoding: 90 121 92
Width: 1215
VWidth: 3555
Flags: W
HStem: -431 160<160 394.92> 1100 20G<64 263.069 949.023 1153>
DStem2: 255 1120 64 1120 0.379188 -0.92532<0 943.508> 479 -68 658 -102 0.375441 0.926846<-218.99 92.6733 338.535 1280.55>
LayerCount: 3
Fore
SplineSet
658 -102 m 2,0,1
 576 -307 576 -307 505.5 -369 c 128,-1,2
 435 -431 435 -431 309 -431 c 2,3,-1
 160 -431 l 1,4,-1
 160 -271 l 1,5,-1
 271 -271 l 2,6,7
 365 -271 365 -271 392 -238 c 152,-1,8
 419 -205 419 -205 479 -68 c 2,9,-1
 516 17 l 1,10,-1
 64 1120 l 1,11,-1
 255 1120 l 1,12,-1
 608 245 l 1,13,-1
 957 1120 l 1,14,-1
 1153 1120 l 1,15,-1
 658 -102 l 2,0,1
EndSplineSet
Layer: 2
SplineSet
658 -102 m 2
 588 -275 536 -431 309 -431 c 2
 160 -431 l 1
 160 -271 l 1
 271 -271 l 2
 416 -271 430 -181 479 -68 c 2
 516 17 l 1
 64 1120 l 1
 255 1120 l 1
 608 245 l 1
 957 1120 l 1
 1153 1120 l 1
 658 -102 l 2
EndSplineSet
EndChar

StartChar: z
Encoding: 91 122 93
Width: 1076
VWidth: 3555
Flags: W
HStem: 0 146<295 988> 974 146<115 779>
DStem2: 89 167 295 146 0.651488 0.758659<118.275 1061.76>
LayerCount: 3
Fore
SplineSet
988 953 m 1,0,-1
 295 146 l 1,1,-1
 988 146 l 1,2,-1
 988 0 l 1,3,-1
 89 0 l 1,4,-1
 89 167 l 1,5,-1
 779 974 l 1,6,-1
 115 974 l 1,7,-1
 115 1120 l 1,8,-1
 988 1120 l 1,9,-1
 988 953 l 1,0,-1
EndSplineSet
Layer: 2
SplineSet
988 953 m 1
 295 146 l 1
 988 146 l 1
 988 0 l 1
 89 0 l 1
 89 167 l 1
 779 974 l 1
 115 974 l 1
 115 1120 l 1
 988 1120 l 1
 988 953 l 1
EndSplineSet
EndChar

StartChar: braceleft
Encoding: 92 123 94
Width: 1303
VWidth: 3555
Flags: W
HStem: -335 142<799.752 1049> 540 146<255 498.32> 1415 142<799.752 1049>
VStem: 569 184<-146.573 468.212 754.978 1369.64>
LayerCount: 3
Fore
SplineSet
988 -335 m 2,0,1
 736 -335 736 -335 652.5 -262 c 128,-1,2
 569 -189 569 -189 569 35 c 2,3,-1
 569 274 l 2,4,5
 569 424 569 424 513.5 482 c 128,-1,6
 458 540 458 540 319 540 c 2,7,-1
 255 540 l 1,8,-1
 255 686 l 1,9,-1
 319 686 l 2,10,11
 462 686 462 686 515.5 743 c 128,-1,12
 569 800 569 800 569 950 c 2,13,-1
 569 1191 l 2,14,15
 569 1411 569 1411 652.5 1484 c 128,-1,16
 736 1557 736 1557 988 1557 c 2,17,-1
 1049 1557 l 1,18,-1
 1049 1415 l 1,19,-1
 981 1415 l 2,20,21
 838 1415 838 1415 795.5 1370 c 128,-1,22
 753 1325 753 1325 753 1187 c 2,23,-1
 753 939 l 2,24,25
 753 779 753 779 707 708 c 128,-1,26
 661 637 661 637 554 611 c 1,27,28
 661 587 661 587 707 517.5 c 128,-1,29
 753 448 753 448 753 288 c 2,30,-1
 753 40 l 2,31,32
 753 -103 753 -103 796 -148 c 128,-1,33
 839 -193 839 -193 981 -193 c 2,34,-1
 1049 -193 l 1,35,-1
 1049 -335 l 1,36,-1
 988 -335 l 2,0,1
EndSplineSet
Layer: 2
SplineSet
554 611 m 1
 709 576 753 488 753 288 c 2
 753 40 l 2
 753 -142 798 -193 981 -193 c 2
 1049 -193 l 1
 1049 -335 l 1
 988 -335 l 2
 666 -335 569 -279 569 35 c 2
 569 274 l 2
 569 469 510 540 319 540 c 2
 255 540 l 1
 255 686 l 1
 319 686 l 2
 514 686 569 753 569 950 c 2
 569 1191 l 2
 569 1502 667 1557 988 1557 c 2
 1049 1557 l 1
 1049 1415 l 1
 981 1415 l 2
 800 1415 753 1369 753 1187 c 2
 753 939 l 2
 753 738 708 648 554 611 c 1
EndSplineSet
EndChar

StartChar: bar
Encoding: 93 124 95
Width: 689
VWidth: 3555
Flags: W
VStem: 260 174<-484 1568>
LayerCount: 3
Fore
SplineSet
260 -484 m 1,0,-1
 260 1568 l 1,1,-1
 434 1568 l 1,2,-1
 434 -484 l 1,3,-1
 260 -484 l 1,0,-1
EndSplineSet
Layer: 2
SplineSet
260 -484 m 1
 260 1568 l 1
 434 1568 l 1
 434 -484 l 1
 260 -484 l 1
EndSplineSet
EndChar

StartChar: braceright
Encoding: 94 125 96
Width: 1303
VWidth: 3555
Flags: W
HStem: -335 142<255 508.086> 540 146<803.703 1049> 1415 142<255 509.582>
VStem: 554 182<-144.722 474.193 754.978 1372.49>
LayerCount: 3
Fore
SplineSet
326 -193 m 2,0,1
 465 -193 465 -193 509.5 -147.5 c 128,-1,2
 554 -102 554 -102 554 40 c 2,3,-1
 554 288 l 2,4,5
 554 448 554 448 597.5 517.5 c 128,-1,6
 641 587 641 587 753 611 c 1,7,8
 641 637 641 637 597.5 708 c 128,-1,9
 554 779 554 779 554 939 c 2,10,-1
 554 1187 l 2,11,12
 554 1330 554 1330 509.5 1372.5 c 128,-1,13
 465 1415 465 1415 326 1415 c 2,14,-1
 255 1415 l 1,15,-1
 255 1557 l 1,16,-1
 319 1557 l 2,17,18
 566 1557 566 1557 651 1483 c 152,-1,19
 736 1409 736 1409 736 1191 c 2,20,-1
 736 950 l 2,21,22
 736 800 736 800 789 743 c 128,-1,23
 842 686 842 686 988 686 c 2,24,-1
 1049 686 l 1,25,-1
 1049 540 l 1,26,-1
 988 540 l 2,27,28
 838 540 838 540 787 482 c 128,-1,29
 736 424 736 424 736 274 c 2,30,-1
 736 35 l 2,31,32
 736 -186 736 -186 650.5 -260.5 c 152,-1,33
 565 -335 565 -335 319 -335 c 2,34,-1
 255 -335 l 1,35,-1
 255 -193 l 1,36,-1
 326 -193 l 2,0,1
EndSplineSet
Layer: 2
SplineSet
988 540 m 2
 787 540 736 475 736 274 c 2
 736 35 l 2
 736 -278 641 -335 319 -335 c 2
 255 -335 l 1
 255 -193 l 1
 326 -193 l 2
 514 -193 554 -149 554 40 c 2
 554 288 l 2
 554 490 593 577 753 611 c 1
 594 648 554 736 554 939 c 2
 554 1187 l 2
 554 1368 508 1415 326 1415 c 2
 255 1415 l 1
 255 1557 l 1
 319 1557 l 2
 640 1557 736 1501 736 1191 c 2
 736 950 l 2
 736 751 790 686 988 686 c 2
 1049 686 l 1
 1049 540 l 1
 988 540 l 2
EndSplineSet
EndChar

StartChar: asciitilde
Encoding: 95 126 97
Width: 1716
VWidth: 3555
Flags: W
HStem: 495 163<944.698 1333.24> 625 173<382.001 782.612>
LayerCount: 3
Fore
SplineSet
1317.5 530.5 m 128,-1,1
 1235 495 1235 495 1126 495 c 259,2,3
 1017 495 1017 495 841.5 560 c 128,-1,4
 666 625 666 625 568 625 c 259,5,6
 470 625 470 625 391 585.5 c 128,-1,7
 312 546 312 546 220 469 c 1,8,-1
 220 644 l 1,9,10
 288 698 288 698 367 748 c 128,-1,11
 446 798 446 798 582 798 c 259,12,13
 718 798 718 798 881 728 c 128,-1,14
 1044 658 1044 658 1146 658 c 259,15,16
 1248 658 1248 658 1326 698.5 c 128,-1,17
 1404 739 1404 739 1500 821 c 1,18,-1
 1500 641 l 1,19,0
 1400 566 1400 566 1317.5 530.5 c 128,-1,1
EndSplineSet
Layer: 2
SplineSet
825 566 m 0x40
 734 600 633 625 576 625 c 3x20
 420 625 321 554 220 469 c 1
 220 644 l 1x80
 332 734 429 797 601 797 c 3x20
 667 797 780 770 892 722 c 0
 984 683 1080 658 1141 658 c 3
 1298 658 1395 731 1500 821 c 1
 1500 641 l 1
 1385 555 1287 495 1120 495 c 3
 1045 495 936 525 825 566 c 0x40
EndSplineSet
EndChar

StartChar: Adieresis
Encoding: 132 196 98
Width: 1399
VWidth: 3555
Flags: W
HStem: 0 21G<14 238.105 1169.89 1384> 380 174<431 977> 1473 20G<579.324 825.582> 1672 198<404 604 797 998>
VStem: 404 200<1672 1870> 797 201<1672 1870>
DStem2: 14 0 231 0 0.358309 0.933603<77.753 480.894 666.631 1431.02> 818 1493 700 1299 0.354484 -0.935062<139.573 934.386 1120.13 1120.13>
LayerCount: 3
Fore
SplineSet
977 554 m 1,0,-1
 700 1299 l 1,1,-1
 431 554 l 1,2,-1
 977 554 l 1,0,-1
1384 0 m 1,3,-1
 1177 0 l 1,4,-1
 1042 380 l 1,5,-1
 366 380 l 1,6,-1
 231 0 l 1,7,-1
 14 0 l 1,8,-1
 587 1493 l 1,9,-1
 818 1493 l 1,10,-1
 1384 0 l 1,3,-1
998 1672 m 1,11,-1
 797 1672 l 1,12,-1
 797 1870 l 1,13,-1
 998 1870 l 1,14,-1
 998 1672 l 1,11,-1
604 1672 m 1,15,-1
 404 1672 l 1,16,-1
 404 1870 l 1,17,-1
 604 1870 l 1,18,-1
 604 1672 l 1,15,-1
EndSplineSet
Layer: 2
SplineSet
977 554 m 1
 700 1299 l 1
 431 554 l 1
 977 554 l 1
1384 0 m 1
 1177 0 l 1
 1042 380 l 1
 366 380 l 1
 231 0 l 1
 14 0 l 1
 587 1493 l 1
 818 1493 l 1
 1384 0 l 1
998 1672 m 1
 797 1672 l 1
 797 1870 l 1
 998 1870 l 1
 998 1672 l 1
604 1672 m 1
 404 1672 l 1
 404 1870 l 1
 604 1870 l 1
 604 1672 l 1
EndSplineSet
EndChar

StartChar: Aring
Encoding: 133 197 99
Width: 1399
VWidth: 3555
Flags: W
HStem: 0 21G<14 238.105 1169.89 1384> 380 174<431 974> 1781 125<593.883 803.736>
VStem: 431 119<1520.56 1735.76> 854 123<1524.7 1731.55>
DStem2: 14 0 231 0 0.358218 0.933638<77.7332 480.875 666.612 1434.75> 854 1397 700 1299 0.354715 -0.934975<37.0014 830.749 1017.56 1017.56>
LayerCount: 3
Fore
SplineSet
854 1628 m 259,0,1
 854 1693 854 1693 807 1737 c 128,-1,2
 760 1781 760 1781 700 1781 c 259,3,4
 637 1781 637 1781 593.5 1737 c 128,-1,5
 550 1693 550 1693 550 1628 c 259,6,7
 550 1564 550 1564 593.5 1520 c 128,-1,8
 637 1476 637 1476 700 1476 c 259,9,10
 760 1476 760 1476 807 1520 c 128,-1,11
 854 1564 854 1564 854 1628 c 259,0,1
974 554 m 1,12,-1
 700 1299 l 1,13,-1
 431 554 l 1,14,-1
 974 554 l 1,12,-1
550 1397 m 1,15,16
 431 1476 431 1476 431 1628 c 259,17,18
 431 1743 431 1743 509 1824.5 c 128,-1,19
 587 1906 587 1906 700 1906 c 259,20,21
 818 1906 818 1906 897.5 1824.5 c 128,-1,22
 977 1743 977 1743 977 1628 c 259,23,24
 977 1479 977 1479 854 1397 c 1,25,-1
 1384 0 l 1,26,-1
 1177 0 l 1,27,-1
 1042 380 l 1,28,-1
 366 380 l 1,29,-1
 231 0 l 1,30,-1
 14 0 l 1,31,-1
 550 1397 l 1,15,16
EndSplineSet
Layer: 2
SplineSet
700 1476 m 3
 781 1476 854 1545 854 1628 c 259
 854 1711 782 1781 700 1781 c 3
 616 1781 550 1713 550 1628 c 259
 550 1544 616 1476 700 1476 c 3
974 554 m 1
 700 1299 l 1
 431 554 l 1
 974 554 l 1
700 1906 m 3
 855 1906 977 1782 977 1628 c 3
 977 1529 936 1452 854 1397 c 1
 1384 0 l 1
 1177 0 l 1
 1042 380 l 1
 366 380 l 1
 231 0 l 1
 14 0 l 1
 550 1397 l 1
 471 1450 431 1527 431 1628 c 3
 431 1779 549 1906 700 1906 c 3
EndSplineSet
EndChar

StartChar: Ccedilla
Encoding: 135 199 100
Width: 1432
VWidth: 3555
Flags: W
HStem: -394 123<596.544 854.321> -27 166<624.502 826.693> 1354 168<622.083 1094.31>
VStem: 115 215<451.284 1036.62> 868 142<-255.176 -84.0564>
LayerCount: 3
Back
SplineSet
115 746 m 259
 115 986 178.833333333 1175.33333333 306.5 1314 c 128
 434.166666667 1452.66666667 613.666666667 1522 845 1522 c 0
 1026.33333333 1522 1185.66666667 1474.66666667 1323 1380 c 1
 1323 1167 l 1
 1185.66666667 1291.66666667 1030.66666667 1354 858 1354 c 0
 680 1354 547.5 1301.33333333 460.5 1196 c 128
 373.5 1090.66666667 330 940.666666667 330 746 c 0
 330 552 373.5 402.333333333 460.5 297 c 128
 547.5 191.666666667 680 139 858 139 c 0
 1030.66666667 139 1185.66666667 201.333333333 1323 326 c 1
 1323 115 l 1
 1184.33333333 19.6666666667 1025 -28 845 -28 c 0
 613.666666667 -28 434.166666667 41 306.5 179 c 128
 178.833333333 317 115 506 115 746 c 259
594 -238 m 1
 638 -260 690 -271 750 -271 c 0
 828.666666667 -271 868 -239.666666667 868 -177 c 0
 868 -140.333333333 838.333333333 -81.3333333333 779 0 c 1
 899 0 l 2
 901 -2 906.833333333 -8.83333333333 916.5 -20.5 c 128
 926.166666667 -32.1666666667 932.166666667 -39.6666666667 934.5 -43 c 128
 936.833333333 -46.3333333333 942.166666667 -53.3333333333 950.5 -64 c 128
 958.833333333 -74.6666666667 964.5 -82.3333333333 967.5 -87 c 128
 970.5 -91.6666666667 975 -99 981 -109 c 128
 987 -119 991.166666667 -127.5 993.5 -134.5 c 128
 995.833333333 -141.5 998.666666667 -149.833333333 1002 -159.5 c 128
 1005.33333333 -169.166666667 1007.5 -178.666666667 1008.5 -188 c 128
 1009.5 -197.333333333 1010 -207 1010 -217 c 0
 1010 -335 930.333333333 -394 771 -394 c 0
 756.333333333 -394 742.666666667 -393.666666667 730 -393 c 128
 717.333333333 -392.333333333 704.666666667 -391.166666667 692 -389.5 c 128
 679.333333333 -387.833333333 669.333333333 -386.333333333 662 -385 c 128
 654.666666667 -383.666666667 643.333333333 -381.666666667 628 -379 c 128
 612.666666667 -376.333333333 601.333333333 -374.333333333 594 -373 c 1
 594 -238 l 1
EndSplineSet
Fore
SplineSet
771 -394 m 259,0,1
 709 -394 709 -394 594 -373 c 1,2,-1
 594 -238 l 1,3,4
 660 -271 660 -271 750 -271 c 259,5,6
 868 -271 868 -271 868 -177 c 259,7,8
 868 -129 868 -129 798 -27 c 1,9,10
 472 -13 472 -13 293.5 192.5 c 128,-1,11
 115 398 115 398 115 752 c 259,12,13
 115 1106 115 1106 306.5 1314 c 128,-1,14
 498 1522 498 1522 845 1522 c 259,15,16
 1117 1522 1117 1522 1323 1380 c 1,17,-1
 1323 1167 l 1,18,19
 1117 1354 1117 1354 854 1354 c 259,20,21
 591 1354 591 1354 460.5 1196 c 128,-1,22
 330 1038 330 1038 330 746.5 c 259,23,24
 330 455 330 455 460.5 297 c 128,-1,25
 591 139 591 139 854 139 c 259,26,27
 1117 139 1117 139 1323 326 c 1,28,-1
 1323 115 l 1,29,30
 1146 -7 1146 -7 920 -25 c 1,31,32
 964 -77 964 -77 987 -120 c 128,-1,33
 1010 -163 1010 -163 1010 -217 c 259,34,35
 1010 -394 1010 -394 771 -394 c 259,0,1
EndSplineSet
Layer: 2
SplineSet
594 -238 m 1
 640 -261 682 -271 750 -271 c 3
 829 -271 868 -240 868 -177 c 3
 868 -144 844 -94 798 -27 c 1
 359 -8 115 287 115 746 c 3
 115 1221 377 1522 845 1522 c 3
 1026 1522 1185 1475 1323 1380 c 1
 1323 1167 l 1
 1185 1292 1030 1354 858 1354 c 3
 494 1354 330 1125 330 746 c 3
 330 368 494 139 858 139 c 3
 1030 139 1185 201 1323 326 c 1
 1323 115 l 1
 1204 33 1070 -13 920 -25 c 1
 966 -80 1010 -137 1010 -217 c 3
 1010 -335 930 -394 771 -394 c 3
 693 -394 657 -384 594 -373 c 1
 594 -238 l 1
EndSplineSet
EndChar

StartChar: Eacute
Encoding: 137 201 101
Width: 1296
VWidth: 3555
Flags: W
HStem: 0 167<401 1167> 712 170<401 1116> 1326 167<401 1144>
VStem: 203 198<167 712 882 1326>
LayerCount: 3
Fore
SplineSet
1144 1326 m 1,0,-1
 401 1326 l 1,1,-1
 401 882 l 1,2,-1
 1116 882 l 1,3,-1
 1116 712 l 1,4,-1
 401 712 l 1,5,-1
 401 167 l 1,6,-1
 1167 167 l 1,7,-1
 1167 0 l 1,8,-1
 203 0 l 1,9,-1
 203 1493 l 1,10,-1
 1144 1493 l 1,11,-1
 1144 1326 l 1,0,-1
679 1635 m 1,12,-1
 529 1635 l 1,13,-1
 726 1903 l 1,14,-1
 910 1903 l 1,15,-1
 679 1635 l 1,12,-1
EndSplineSet
Layer: 2
SplineSet
1144 1326 m 1
 401 1326 l 1
 401 882 l 1
 1116 882 l 1
 1116 712 l 1
 401 712 l 1
 401 167 l 1
 1167 167 l 1
 1167 0 l 1
 203 0 l 1
 203 1493 l 1
 1144 1493 l 1
 1144 1326 l 1
679 1635 m 1
 529 1635 l 1
 726 1903 l 1
 910 1903 l 1
 679 1635 l 1
EndSplineSet
EndChar

StartChar: Ntilde
Encoding: 145 209 102
Width: 1534
VWidth: 3555
Flags: W
HStem: 0 21G<203 394 1051.29 1333> 1473 20G<203 482.657 1137 1333> 1672 120<787.479 961.356> 1767 120<570.944 744.622>
VStem: 203 191<0 1248> 437 125<1672 1762.31> 970 125<1796.69 1887> 1137 196<245 1493>
DStem2: 472 1493 394 1248 0.471908 -0.881648<179.195 1414.12>
LayerCount: 3
Fore
SplineSet
1137 245 m 1,0,-1
 1137 1493 l 1,1,-1
 1333 1493 l 1,2,-1
 1333 0 l 1,3,-1
 1062 0 l 1,4,-1
 394 1248 l 1,5,-1
 394 0 l 1,6,-1
 203 0 l 1,7,-1
 203 1493 l 1,8,-1
 472 1493 l 1,9,-1
 1137 245 l 1,0,-1
708 1746 m 1,10,11
 661 1767 661 1767 634 1767 c 0,12,13
 562 1767 562 1767 562 1675 c 2,14,-1
 562 1672 l 1,15,-1
 437 1672 l 1,16,17
 437 1767 437 1767 486.5 1827 c 128,-1,18
 536 1887 536 1887 625 1887 c 0,19,20
 658 1887 658 1887 690 1878.5 c 128,-1,21
 722 1870 722 1870 767 1845 c 2,22,-1
 828 1818 l 1,23,24
 865 1792 865 1792 896 1792 c 0,25,26
 970 1792 970 1792 970 1880 c 2,27,-1
 970 1887 l 1,28,-1
 1095 1887 l 1,29,30
 1092 1788 1092 1788 1041.5 1730 c 128,-1,31
 991 1672 991 1672 906 1672 c 0,32,33
 871 1672 871 1672 842.5 1679 c 128,-1,34
 814 1686 814 1686 760 1713 c 2,35,-1
 708 1746 l 1,10,11
EndSplineSet
Layer: 2
SplineSet
1095 1887 m 1xdf
 1091 1764 1029 1672 906 1672 c 3xef
 838 1672 816 1678 760 1713 c 2
 708 1746 l 2
 679 1764 652 1767 633 1767 c 3xdf
 586 1767 562 1736 562 1675 c 2
 562 1672 l 1
 437 1672 l 1xef
 437 1795 504 1887 626 1887 c 3xdf
 687 1887 717 1869 769 1845 c 2
 828 1818 l 2
 855 1806 875 1792 896 1792 c 3xef
 949 1792 970 1824 970 1887 c 1
 1095 1887 l 1xdf
1137 245 m 1
 1137 1493 l 1
 1333 1493 l 1
 1333 0 l 1
 1062 0 l 1
 394 1248 l 1
 394 0 l 1
 203 0 l 1
 203 1493 l 1
 472 1493 l 1
 1137 245 l 1
EndSplineSet
EndChar

StartChar: Odieresis
Encoding: 150 214 103
Width: 1612
VWidth: 3555
Flags: W
HStem: -28 163<613.549 1007.4> 1358 164<614.668 1006.99> 1672 198<512 712 903 1106>
VStem: 115 215<466.66 1023.87> 512 200<1672 1870> 903 203<1672 1870> 1286 210<468.142 1023.19>
LayerCount: 3
Fore
SplineSet
811 1358 m 0,0,1
 587 1358 587 1358 458.5 1193 c 128,-1,2
 330 1028 330 1028 330 746 c 0,3,4
 330 458 330 458 458.5 296.5 c 128,-1,5
 587 135 587 135 811 135 c 0,6,7
 1028 135 1028 135 1157 296.5 c 128,-1,8
 1286 458 1286 458 1286 746 c 0,9,10
 1286 1028 1286 1028 1157 1193 c 128,-1,11
 1028 1358 1028 1358 811 1358 c 0,0,1
811 1522 m 0,12,13
 967 1522 967 1522 1093 1466.5 c 128,-1,14
 1219 1411 1219 1411 1310 1309.5 c 128,-1,15
 1401 1208 1401 1208 1448.5 1066 c 128,-1,16
 1496 924 1496 924 1496 746 c 0,17,18
 1496 573 1496 573 1448.5 429 c 128,-1,19
 1401 285 1401 285 1310 183.5 c 128,-1,20
 1219 82 1219 82 1093 27 c 128,-1,21
 967 -28 967 -28 811 -28 c 0,22,23
 495 -28 495 -28 302 181 c 0,24,25
 115 391 115 391 115 746 c 0,26,27
 115 1099 115 1099 302 1309 c 0,28,29
 495 1522 495 1522 811 1522 c 0,12,13
1106 1672 m 1,30,-1
 903 1672 l 1,31,-1
 903 1870 l 1,32,-1
 1106 1870 l 1,33,-1
 1106 1672 l 1,30,-1
712 1672 m 1,34,-1
 512 1672 l 1,35,-1
 512 1870 l 1,36,-1
 712 1870 l 1,37,-1
 712 1672 l 1,34,-1
EndSplineSet
Layer: 2
SplineSet
1286 746 m 3
 1286 1083 1130 1358 811 1358 c 3
 486 1358 330 1087 330 746 c 3
 330 400 483 135 811 135 c 3
 1132 135 1286 404 1286 746 c 3
811 1522 m 3
 1259 1522 1496 1198 1496 746 c 3
 1496 295 1259 -28 811 -28 c 3
 370 -28 115 292 115 746 c 3
 115 1197 373 1522 811 1522 c 3
1106 1672 m 1
 903 1672 l 1
 903 1870 l 1
 1106 1870 l 1
 1106 1672 l 1
712 1672 m 1
 512 1672 l 1
 512 1870 l 1
 712 1870 l 1
 712 1672 l 1
EndSplineSet
EndChar

StartChar: Udieresis
Encoding: 156 220 104
Width: 1499
VWidth: 3555
Flags: W
HStem: -28 163<552.975 955.087> 1473 20G<177 380 1120 1323> 1672 198<455 654 845 1049>
VStem: 177 203<322.106 1493> 455 199<1672 1870> 845 204<1672 1870> 1120 203<322.106 1493>
LayerCount: 3
Fore
SplineSet
380 587 m 2,0,1
 380 349 380 349 469.5 242 c 128,-1,2
 559 135 559 135 750 135 c 0,3,4
 946 135 946 135 1033 242 c 128,-1,5
 1120 349 1120 349 1120 587 c 2,6,-1
 1120 1493 l 1,7,-1
 1323 1493 l 1,8,-1
 1323 562 l 2,9,10
 1323 271 1323 271 1177 121.5 c 128,-1,11
 1031 -28 1031 -28 750 -28 c 256,12,13
 469 -28 469 -28 323 121.5 c 128,-1,14
 177 271 177 271 177 562 c 2,15,-1
 177 1493 l 1,16,-1
 380 1493 l 1,17,-1
 380 587 l 2,0,1
1049 1672 m 1,18,-1
 845 1672 l 1,19,-1
 845 1870 l 1,20,-1
 1049 1870 l 1,21,-1
 1049 1672 l 1,18,-1
654 1672 m 1,22,-1
 455 1672 l 1,23,-1
 455 1870 l 1,24,-1
 654 1870 l 1,25,-1
 654 1672 l 1,22,-1
EndSplineSet
Layer: 2
SplineSet
750 -28 m 259
 371 -28 177 179 177 562 c 2
 177 1493 l 1
 380 1493 l 1
 380 587 l 2
 380 295 473 135 750 135 c 3
 1031 135 1120 292 1120 587 c 2
 1120 1493 l 1
 1323 1493 l 1
 1323 562 l 2
 1323 179 1129 -28 750 -28 c 259
1049 1672 m 1
 845 1672 l 1
 845 1870 l 1
 1049 1870 l 1
 1049 1672 l 1
654 1672 m 1
 455 1672 l 1
 455 1870 l 1
 654 1870 l 1
 654 1672 l 1
EndSplineSet
EndChar

StartChar: aacute
Encoding: 161 225 105
Width: 1253
VWidth: 3555
Flags: W
HStem: -28 153<390.018 714.933> 0 21G<885 1069> 566 142<406.391 885> 991 153<314.297 763.113>
VStem: 125 184<202.738 478.29> 885 184<0 167 303.973 566 708 872.586>
LayerCount: 3
Fore
SplineSet
705 566 m 1,0,1
 479 566 479 566 394 514 c 128,-1,2
 309 462 309 462 309 339 c 0,3,4
 309 238 309 238 373 181.5 c 128,-1,5
 437 125 437 125 543 125 c 0,6,7
 705 125 705 125 795 233.5 c 128,-1,8
 885 342 885 342 885 523 c 2,9,-1
 885 566 l 1,10,-1
 705 566 l 1,0,1
885 0 m 1,11,-1
 885 167 l 1,12,13
 764 -28 764 -28 498 -28 c 0,14,15
 326 -28 326 -28 225.5 67.5 c 128,-1,16
 125 163 125 163 125 326 c 0,17,18
 125 708 125 708 625 708 c 2,19,-1
 885 708 l 1,20,-1
 885 726 l 2,21,22
 885 854 885 854 802 922.5 c 128,-1,23
 719 991 719 991 569 991 c 0,24,25
 373 991 373 991 207 899 c 1,26,-1
 207 1069 l 1,27,28
 302 1109 302 1109 400 1126.5 c 128,-1,29
 498 1144 498 1144 587 1144 c 0,30,31
 1069 1144 1069 1144 1069 641 c 2,32,-1
 1069 0 l 1,33,-1
 885 0 l 1,11,-1
604 1262 m 1,34,-1
 455 1262 l 1,35,-1
 733 1639 l 1,36,-1
 932 1639 l 1,37,-1
 604 1262 l 1,34,-1
EndSplineSet
Layer: 2
SplineSet
543 125 m 3xbc
 768 125 885 293 885 523 c 2
 885 566 l 1
 705 566 l 2
 464 566 309 542 309 339 c 3
 309 202 405 125 543 125 c 3xbc
207 1069 m 1
 316 1115 445 1144 587 1144 c 3
 908 1144 1069 976 1069 641 c 2
 1069 0 l 1
 885 0 l 1x7c
 885 167 l 1
 804 37 675 -28 498 -28 c 3
 274 -28 125 105 125 326 c 3
 125 581 292 708 625 708 c 2
 885 708 l 1
 885 726 l 2
 885 907 756 991 569 991 c 3
 438 991 318 960 207 899 c 1
 207 1069 l 1
604 1262 m 1
 455 1262 l 1
 733 1639 l 1
 932 1639 l 1
 604 1262 l 1
EndSplineSet
EndChar

StartChar: agrave
Encoding: 160 224 106
Width: 1253
VWidth: 3555
Flags: W
HStem: -28 153<390.018 714.933> 0 21G<885 1069> 566 142<406.391 885> 991 153<314.297 763.113>
VStem: 125 184<202.738 478.29> 885 184<0 167 303.973 566 708 872.586>
LayerCount: 3
Fore
SplineSet
705 566 m 1,0,1
 479 566 479 566 394 514 c 128,-1,2
 309 462 309 462 309 339 c 0,3,4
 309 238 309 238 373 181.5 c 128,-1,5
 437 125 437 125 543 125 c 0,6,7
 705 125 705 125 795 233.5 c 128,-1,8
 885 342 885 342 885 523 c 2,9,-1
 885 566 l 1,10,-1
 705 566 l 1,0,1
885 0 m 1,11,-1
 885 167 l 1,12,13
 764 -28 764 -28 498 -28 c 0,14,15
 326 -28 326 -28 225.5 67.5 c 128,-1,16
 125 163 125 163 125 326 c 0,17,18
 125 708 125 708 625 708 c 2,19,-1
 885 708 l 1,20,-1
 885 726 l 2,21,22
 885 854 885 854 802 922.5 c 128,-1,23
 719 991 719 991 569 991 c 0,24,25
 373 991 373 991 207 899 c 1,26,-1
 207 1069 l 1,27,28
 302 1109 302 1109 400 1126.5 c 128,-1,29
 498 1144 498 1144 587 1144 c 0,30,31
 1069 1144 1069 1144 1069 641 c 2,32,-1
 1069 0 l 1,33,-1
 885 0 l 1,11,-1
580 1266 m 1,34,-1
 248 1639 l 1,35,-1
 451 1639 l 1,36,-1
 729 1266 l 1,37,-1
 580 1266 l 1,34,-1
EndSplineSet
Layer: 2
SplineSet
543 125 m 3xbc
 768 125 885 293 885 523 c 2
 885 566 l 1
 705 566 l 2
 464 566 309 542 309 339 c 3
 309 202 405 125 543 125 c 3xbc
207 1069 m 1
 316 1115 445 1144 587 1144 c 3
 908 1144 1069 976 1069 641 c 2
 1069 0 l 1
 885 0 l 1x7c
 885 167 l 1
 804 37 675 -28 498 -28 c 3
 274 -28 125 105 125 326 c 3
 125 581 292 708 625 708 c 2
 885 708 l 1
 885 726 l 2
 885 907 756 991 569 991 c 3
 438 991 318 960 207 899 c 1
 207 1069 l 1
580 1266 m 1
 248 1639 l 1
 451 1639 l 1
 729 1266 l 1
 580 1266 l 1
EndSplineSet
EndChar

StartChar: acircumflex
Encoding: 162 226 107
Width: 1253
VWidth: 3555
Flags: W
HStem: -28 153<390.018 714.933> 0 21G<885 1069> 566 142<406.391 885> 991 153<314.297 763.113>
VStem: 125 184<202.738 478.29> 278 139<1262 1401> 885 184<0 167 303.973 566 708 872.586>
LayerCount: 3
Fore
SplineSet
705 566 m 1,0,1
 479 566 479 566 394 514 c 128,-1,2
 309 462 309 462 309 339 c 0,3,4
 309 238 309 238 373 181.5 c 128,-1,5
 437 125 437 125 543 125 c 0,6,7
 705 125 705 125 795 233.5 c 128,-1,8
 885 342 885 342 885 523 c 2,9,-1
 885 566 l 1,10,-1
 705 566 l 1,0,1
885 0 m 1,11,-1
 885 167 l 1,12,13
 764 -28 764 -28 498 -28 c 0,14,15
 326 -28 326 -28 225.5 67.5 c 128,-1,16
 125 163 125 163 125 326 c 0,17,18
 125 708 125 708 625 708 c 2,19,-1
 885 708 l 1,20,-1
 885 726 l 2,21,22
 885 854 885 854 802 922.5 c 128,-1,23
 719 991 719 991 569 991 c 0,24,25
 373 991 373 991 207 899 c 1,26,-1
 207 1069 l 1,27,28
 302 1109 302 1109 400 1126.5 c 128,-1,29
 498 1144 498 1144 587 1144 c 0,30,31
 1069 1144 1069 1144 1069 641 c 2,32,-1
 1069 0 l 1,33,-1
 885 0 l 1,11,-1
913 1262 m 1,34,-1
 774 1262 l 1,35,-1
 594 1507 l 1,36,-1
 417 1262 l 1,37,-1
 278 1262 l 1,38,-1
 523 1639 l 1,39,-1
 668 1639 l 1,40,-1
 913 1262 l 1,34,-1
EndSplineSet
Layer: 2
SplineSet
543 125 m 3xba
 768 125 885 293 885 523 c 2
 885 566 l 1
 705 566 l 2
 464 566 309 542 309 339 c 3
 309 202 405 125 543 125 c 3xba
207 1069 m 1
 316 1115 445 1144 587 1144 c 3
 908 1144 1069 976 1069 641 c 2
 1069 0 l 1
 885 0 l 1x7a
 885 167 l 1
 804 37 675 -28 498 -28 c 3
 274 -28 125 105 125 326 c 3
 125 581 292 708 625 708 c 2
 885 708 l 1
 885 726 l 2
 885 907 756 991 569 991 c 3
 438 991 318 960 207 899 c 1
 207 1069 l 1
913 1262 m 1
 774 1262 l 1
 594 1507 l 1
 417 1262 l 1
 278 1262 l 1x36
 523 1639 l 1
 668 1639 l 1
 913 1262 l 1
EndSplineSet
EndChar

StartChar: adieresis
Encoding: 164 228 108
Width: 1253
VWidth: 3555
Flags: W
HStem: -28 153<390.018 714.933> 0 21G<885 1069> 566 142<406.391 885> 991 153<314.297 763.113> 1351 203<299 498 689 892>
VStem: 125 184<202.738 478.29> 299 199<1351 1554> 689 203<1351 1554> 885 184<0 167 303.973 566 708 872.586>
LayerCount: 3
Fore
SplineSet
705 566 m 1,0,1
 479 566 479 566 394 514 c 128,-1,2
 309 462 309 462 309 339 c 0,3,4
 309 238 309 238 373 181.5 c 128,-1,5
 437 125 437 125 543 125 c 0,6,7
 705 125 705 125 795 233.5 c 128,-1,8
 885 342 885 342 885 523 c 2,9,-1
 885 566 l 1,10,-1
 705 566 l 1,0,1
885 0 m 1,11,-1
 885 167 l 1,12,13
 764 -28 764 -28 498 -28 c 0,14,15
 326 -28 326 -28 225.5 67.5 c 128,-1,16
 125 163 125 163 125 326 c 0,17,18
 125 708 125 708 625 708 c 2,19,-1
 885 708 l 1,20,-1
 885 726 l 2,21,22
 885 854 885 854 802 922.5 c 128,-1,23
 719 991 719 991 569 991 c 0,24,25
 373 991 373 991 207 899 c 1,26,-1
 207 1069 l 1,27,28
 302 1109 302 1109 400 1126.5 c 128,-1,29
 498 1144 498 1144 587 1144 c 0,30,31
 1069 1144 1069 1144 1069 641 c 2,32,-1
 1069 0 l 1,33,-1
 885 0 l 1,11,-1
892 1351 m 1,34,-1
 689 1351 l 1,35,-1
 689 1554 l 1,36,-1
 892 1554 l 1,37,-1
 892 1351 l 1,34,-1
498 1351 m 1,38,-1
 299 1351 l 1,39,-1
 299 1554 l 1,40,-1
 498 1554 l 1,41,-1
 498 1351 l 1,38,-1
EndSplineSet
Layer: 2
SplineSet
543 125 m 3xbc80
 768 125 885 293 885 523 c 2
 885 566 l 1
 705 566 l 2
 464 566 309 542 309 339 c 3
 309 202 405 125 543 125 c 3xbc80
207 1069 m 1
 316 1115 445 1144 587 1144 c 3
 908 1144 1069 976 1069 641 c 2
 1069 0 l 1
 885 0 l 1x7c80
 885 167 l 1
 804 37 675 -28 498 -28 c 3xba80
 274 -28 125 105 125 326 c 3
 125 581 292 708 625 708 c 2
 885 708 l 1
 885 726 l 2
 885 907 756 991 569 991 c 3
 438 991 318 960 207 899 c 1
 207 1069 l 1
892 1351 m 1x39
 689 1351 l 1
 689 1554 l 1
 892 1554 l 1
 892 1351 l 1x39
498 1351 m 1x3a
 299 1351 l 1
 299 1554 l 1
 498 1554 l 1
 498 1351 l 1x3a
EndSplineSet
EndChar

StartChar: atilde
Encoding: 163 227 109
Width: 1253
VWidth: 3555
Flags: W
HStem: -28 153<390.018 714.933> 0 21G<885 1069> 566 142<406.391 885> 991 153<314.297 763.113> 1312 127<650.21 784.559> 1465 129<407.44 543.953>
VStem: 125 184<202.738 478.29> 267 124<1312 1454.58> 800 124<1451.42 1594> 885 184<0 167 303.973 566 708 872.586>
LayerCount: 3
Fore
SplineSet
705 566 m 1,0,1
 479 566 479 566 394 514 c 128,-1,2
 309 462 309 462 309 339 c 0,3,4
 309 238 309 238 373 181.5 c 128,-1,5
 437 125 437 125 543 125 c 0,6,7
 705 125 705 125 795 233.5 c 128,-1,8
 885 342 885 342 885 523 c 2,9,-1
 885 566 l 1,10,-1
 705 566 l 1,0,1
885 0 m 1,11,-1
 885 167 l 1,12,13
 764 -28 764 -28 498 -28 c 0,14,15
 326 -28 326 -28 225.5 67.5 c 128,-1,16
 125 163 125 163 125 326 c 0,17,18
 125 708 125 708 625 708 c 2,19,-1
 885 708 l 1,20,-1
 885 726 l 2,21,22
 885 854 885 854 802 922.5 c 128,-1,23
 719 991 719 991 569 991 c 0,24,25
 373 991 373 991 207 899 c 1,26,-1
 207 1069 l 1,27,28
 302 1109 302 1109 400 1126.5 c 128,-1,29
 498 1144 498 1144 587 1144 c 0,30,31
 1069 1144 1069 1144 1069 641 c 2,32,-1
 1069 0 l 1,33,-1
 885 0 l 1,11,-1
536 1429 m 1,34,35
 491 1465 491 1465 462 1465 c 0,36,37
 391 1465 391 1465 391 1312 c 1,38,-1
 267 1312 l 1,39,40
 267 1594 267 1594 458 1594 c 0,41,42
 529 1594 529 1594 597 1533 c 2,43,-1
 658 1476 l 2,44,45
 693 1439 693 1439 722 1439 c 0,46,47
 764 1439 764 1439 780.5 1474.5 c 128,-1,48
 797 1510 797 1510 800 1594 c 1,49,-1
 924 1594 l 1,50,51
 920 1312 920 1312 729 1312 c 0,52,53
 658 1312 658 1312 590 1373 c 2,54,-1
 536 1429 l 1,34,35
EndSplineSet
Layer: 2
SplineSet
543 125 m 3xbe40
 768 125 885 293 885 523 c 2
 885 566 l 1
 705 566 l 2
 464 566 309 542 309 339 c 3
 309 202 405 125 543 125 c 3xbe40
207 1069 m 1
 316 1115 445 1144 587 1144 c 3
 908 1144 1069 976 1069 641 c 2
 1069 0 l 1
 885 0 l 1x7e40
 885 167 l 1
 804 37 675 -28 498 -28 c 3
 274 -28 125 105 125 326 c 3
 125 581 292 708 625 708 c 2
 885 708 l 1
 885 726 l 2
 885 907 756 991 569 991 c 3
 438 991 318 960 207 899 c 1
 207 1069 l 1
722 1439 m 3
 792 1439 797 1510 800 1594 c 1
 924 1594 l 1
 921 1406 856 1312 729 1312 c 3
 682 1312 632 1329 590 1373 c 2
 536 1429 l 2
 509 1457 481 1465 462 1465 c 3
 415 1465 391 1414 391 1312 c 1
 267 1312 l 1x3d80
 267 1500 331 1594 458 1594 c 3
 505 1594 552 1574 597 1533 c 2
 658 1476 l 2
 683 1453 703 1439 722 1439 c 3
EndSplineSet
EndChar

StartChar: aring
Encoding: 165 229 110
Width: 1253
VWidth: 3555
Flags: W
HStem: -28 153<390.018 714.933> 0 21G<885 1069> 566 142<406.391 885> 991 153<314.297 763.113> 1248 125<488.92 702.367> 1679 123<490.495 701.828>
VStem: 125 184<202.738 478.29> 319 125<1417.34 1634.66> 746 122<1418.88 1632.38> 885 184<0 167 303.973 566 708 872.586>
LayerCount: 3
Fore
SplineSet
705 566 m 1,0,1
 479 566 479 566 394 514 c 128,-1,2
 309 462 309 462 309 339 c 0,3,4
 309 238 309 238 373 181.5 c 128,-1,5
 437 125 437 125 543 125 c 0,6,7
 705 125 705 125 795 233.5 c 128,-1,8
 885 342 885 342 885 523 c 2,9,-1
 885 566 l 1,10,-1
 705 566 l 1,0,1
885 0 m 1,11,-1
 885 167 l 1,12,13
 764 -28 764 -28 498 -28 c 0,14,15
 326 -28 326 -28 225.5 67.5 c 128,-1,16
 125 163 125 163 125 326 c 0,17,18
 125 708 125 708 625 708 c 2,19,-1
 885 708 l 1,20,-1
 885 726 l 2,21,22
 885 854 885 854 802 922.5 c 128,-1,23
 719 991 719 991 569 991 c 0,24,25
 373 991 373 991 207 899 c 1,26,-1
 207 1069 l 1,27,28
 302 1109 302 1109 400 1126.5 c 128,-1,29
 498 1144 498 1144 587 1144 c 0,30,31
 1069 1144 1069 1144 1069 641 c 2,32,-1
 1069 0 l 1,33,-1
 885 0 l 1,11,-1
746 1529 m 0,34,35
 746 1588 746 1588 703.5 1633.5 c 128,-1,36
 661 1679 661 1679 594 1679 c 0,37,38
 529 1679 529 1679 486.5 1633.5 c 128,-1,39
 444 1588 444 1588 444 1529 c 0,40,41
 444 1462 444 1462 486.5 1417.5 c 128,-1,42
 529 1373 529 1373 594 1373 c 0,43,44
 661 1373 661 1373 703.5 1417.5 c 128,-1,45
 746 1462 746 1462 746 1529 c 0,34,35
868 1529 m 0,46,47
 868 1411 868 1411 788 1329.5 c 128,-1,48
 708 1248 708 1248 594 1248 c 0,49,50
 476 1248 476 1248 397.5 1329.5 c 128,-1,51
 319 1411 319 1411 319 1529 c 0,52,53
 319 1639 319 1639 397.5 1720.5 c 128,-1,54
 476 1802 476 1802 594 1802 c 0,55,56
 651 1802 651 1802 700.5 1779.5 c 128,-1,57
 750 1757 750 1757 787.5 1719.5 c 128,-1,58
 825 1682 825 1682 846.5 1631.5 c 128,-1,59
 868 1581 868 1581 868 1529 c 0,46,47
EndSplineSet
Layer: 2
SplineSet
543 125 m 3xbfc0
 768 125 885 293 885 523 c 2
 885 566 l 1
 705 566 l 2
 464 566 309 542 309 339 c 3
 309 202 405 125 543 125 c 3xbfc0
207 1069 m 1
 316 1115 445 1144 587 1144 c 3
 908 1144 1069 976 1069 641 c 2
 1069 0 l 1
 885 0 l 1x7fc0
 885 167 l 1
 804 37 675 -28 498 -28 c 3
 274 -28 125 105 125 326 c 3
 125 581 292 708 625 708 c 2
 885 708 l 1
 885 726 l 2
 885 907 756 991 569 991 c 3
 438 991 318 960 207 899 c 1
 207 1069 l 1
594 1373 m 3
 683 1373 746 1440 746 1529 c 3
 746 1611 679 1679 594 1679 c 3
 511 1679 444 1610 444 1529 c 3
 444 1441 507 1373 594 1373 c 3
319 1529 m 3
 319 1679 442 1802 594 1802 c 3
 748 1802 868 1682 868 1529 c 3
 868 1375 747 1248 594 1248 c 3
 438 1248 319 1373 319 1529 c 3
EndSplineSet
EndChar

StartChar: ccedilla
Encoding: 167 231 111
Width: 1126
VWidth: 3555
Flags: W
HStem: -394 123<436.589 694.275> -28 156<494.649 667.105> 991 153<494.585 913.029>
VStem: 115 194<332.991 792.746> 708 141<-255.176 -82.6181>
LayerCount: 3
Back
SplineSet
115 562 m 256
 115 744 164.333333333 886.5 263 989.5 c 128
 361.666666667 1092.5 500.333333333 1144 679 1144 c 0
 801 1144 907.333333333 1122 998 1078 c 1
 998 906 l 1
 899.333333333 962.666666667 795.333333333 991 686 991 c 0
 563.333333333 991 469.833333333 952.5 405.5 875.5 c 128
 341.166666667 798.5 309 694 309 562 c 0
 309 428 341 322.166666667 405 244.5 c 128
 469 166.833333333 562.666666667 128 686 128 c 0
 804.666666667 128 908.666666667 156.666666667 998 214 c 1
 998 43 l 1
 890 -4.33333333333 779 -28 665 -28 c 0
 492.333333333 -28 357.5 25.1666666667 260.5 131.5 c 128
 163.5 237.833333333 115 381.333333333 115 562 c 256
434 -238 m 1
 478.666666667 -260 530.666666667 -271 590 -271 c 0
 668.666666667 -271 708 -239.666666667 708 -177 c 0
 708 -140 678 -81 618 0 c 1
 740 0 l 2
 740.666666667 -0.666666666667 746.333333333 -7.5 757 -20.5 c 128
 767.666666667 -33.5 773.666666667 -41 775 -43 c 128
 776.333333333 -45 781.5 -51.8333333333 790.5 -63.5 c 128
 799.5 -75.1666666667 805 -83.1666666667 807 -87.5 c 128
 809 -91.8333333333 813.333333333 -99.1666666667 820 -109.5 c 128
 826.666666667 -119.833333333 831 -128.333333333 833 -135 c 128
 835 -141.666666667 837.666666667 -149.833333333 841 -159.5 c 128
 844.333333333 -169.166666667 846.5 -178.666666667 847.5 -188 c 128
 848.5 -197.333333333 849 -207 849 -217 c 0
 849 -335 769.666666667 -394 611 -394 c 0
 592.333333333 -394 574.333333333 -393.333333333 557 -392 c 128
 539.666666667 -390.666666667 527 -389.333333333 519 -388 c 128
 511 -386.666666667 496.5 -384.166666667 475.5 -380.5 c 128
 454.5 -376.833333333 440.666666667 -374.333333333 434 -373 c 1
 434 -238 l 1
EndSplineSet
Fore
SplineSet
611 -394 m 259,0,1
 539 -394 539 -394 434 -373 c 1,2,-1
 434 -238 l 1,3,4
 501 -271 501 -271 590 -271 c 259,5,6
 708 -271 708 -271 708 -177 c 259,7,8
 708 -128 708 -128 638 -28 c 1,9,10
 391 -19 391 -19 253 139.5 c 128,-1,11
 115 298 115 298 115 566.5 c 259,12,13
 115 835 115 835 263 989.5 c 128,-1,14
 411 1144 411 1144 679 1144 c 259,15,16
 862 1144 862 1144 998 1078 c 1,17,-1
 998 906 l 1,18,19
 850 991 850 991 676 991 c 259,20,21
 502 991 502 991 405.5 875.5 c 128,-1,22
 309 760 309 760 309 560.5 c 259,23,24
 309 361 309 361 405 244.5 c 128,-1,25
 501 128 501 128 682.5 128 c 259,26,27
 864 128 864 128 998 214 c 1,28,-1
 998 43 l 1,29,30
 876 -10 876 -10 759 -23 c 1,31,32
 803 -76 803 -76 826 -119.5 c 128,-1,33
 849 -163 849 -163 849 -217 c 259,34,35
 849 -394 849 -394 611 -394 c 259,0,1
EndSplineSet
Layer: 2
SplineSet
434 -238 m 1
 481 -261 521 -271 590 -271 c 3
 669 -271 708 -240 708 -177 c 3
 708 -144 685 -95 638 -28 c 1
 305 -16 115 214 115 562 c 3
 115 924 320 1144 679 1144 c 3
 800 1144 907 1122 998 1078 c 1
 998 906 l 1
 899 963 795 991 686 991 c 3
 435 991 309 819 309 562 c 3
 309 302 433 128 686 128 c 3
 811 128 914 160 998 214 c 1
 998 43 l 1
 920 9 841 -14 759 -23 c 1
 805 -79 849 -137 849 -217 c 3
 849 -335 770 -394 611 -394 c 3
 533 -394 498 -384 434 -373 c 1
 434 -238 l 1
EndSplineSet
EndChar

StartChar: eacute
Encoding: 169 233 112
Width: 1262
VWidth: 3555
Flags: W
HStem: -28 156<499.25 972.407> 516 142<312 970> 991 153<478.572 828.066>
VStem: 115 187<337.108 516 658 793.844> 970 183<661 838.887>
LayerCount: 3
Fore
SplineSet
302 516 m 1,0,1
 339 128 339 128 708 128 c 0,2,3
 913 128 913 128 1109 231 c 1,4,-1
 1109 57 l 1,5,6
 913 -28 913 -28 696 -28 c 0,7,8
 431 -28 431 -28 273 126.5 c 128,-1,9
 115 281 115 281 115 550 c 0,10,11
 115 828 115 828 259.5 986 c 128,-1,12
 404 1144 404 1144 661 1144 c 0,13,14
 889 1144 889 1144 1021 1001 c 128,-1,15
 1153 858 1153 858 1153 608 c 2,16,-1
 1153 516 l 1,17,-1
 302 516 l 1,0,1
970 661 m 1,18,19
 967 814 967 814 885.5 902.5 c 128,-1,20
 804 991 804 991 665 991 c 0,21,22
 512 991 512 991 419 906 c 128,-1,23
 326 821 326 821 312 658 c 1,24,-1
 970 661 l 1,18,19
661 1262 m 1,25,-1
 512 1262 l 1,26,-1
 790 1639 l 1,27,-1
 988 1639 l 1,28,-1
 661 1262 l 1,25,-1
EndSplineSet
Layer: 2
SplineSet
661 1144 m 3
 975 1144 1153 928 1153 608 c 2
 1153 516 l 1
 302 516 l 1
 327 257 462 128 708 128 c 3
 845 128 978 162 1109 231 c 1
 1109 57 l 1
 978 0 841 -28 696 -28 c 3
 342 -28 115 194 115 550 c 0
 115 908 309 1144 661 1144 c 3
970 661 m 1
 966 855 858 991 665 991 c 3
 450 991 330 863 312 658 c 1
 970 661 l 1
661 1262 m 1
 512 1262 l 1
 790 1639 l 1
 988 1639 l 1
 661 1262 l 1
EndSplineSet
EndChar

StartChar: egrave
Encoding: 168 232 113
Width: 1262
VWidth: 3555
Flags: W
HStem: -28 156<499.25 972.407> 516 142<312 970> 991 153<478.572 828.066>
VStem: 115 187<337.108 516 658 793.844> 970 183<661 838.887>
LayerCount: 3
Fore
SplineSet
302 516 m 1,0,1
 339 128 339 128 708 128 c 0,2,3
 913 128 913 128 1109 231 c 1,4,-1
 1109 57 l 1,5,6
 913 -28 913 -28 696 -28 c 0,7,8
 431 -28 431 -28 273 126.5 c 128,-1,9
 115 281 115 281 115 550 c 0,10,11
 115 828 115 828 259.5 986 c 128,-1,12
 404 1144 404 1144 661 1144 c 0,13,14
 889 1144 889 1144 1021 1001 c 128,-1,15
 1153 858 1153 858 1153 608 c 2,16,-1
 1153 516 l 1,17,-1
 302 516 l 1,0,1
970 661 m 1,18,19
 967 814 967 814 885.5 902.5 c 128,-1,20
 804 991 804 991 665 991 c 0,21,22
 512 991 512 991 419 906 c 128,-1,23
 326 821 326 821 312 658 c 1,24,-1
 970 661 l 1,18,19
637 1266 m 1,25,-1
 306 1639 l 1,26,-1
 509 1639 l 1,27,-1
 786 1266 l 1,28,-1
 637 1266 l 1,25,-1
EndSplineSet
Layer: 2
SplineSet
661 1144 m 3
 975 1144 1153 928 1153 608 c 2
 1153 516 l 1
 302 516 l 1
 327 257 462 128 708 128 c 3
 845 128 978 162 1109 231 c 1
 1109 57 l 1
 978 0 841 -28 696 -28 c 3
 342 -28 115 194 115 550 c 0
 115 908 309 1144 661 1144 c 3
970 661 m 1
 966 855 858 991 665 991 c 3
 450 991 330 863 312 658 c 1
 970 661 l 1
637 1266 m 1
 306 1639 l 1
 509 1639 l 1
 786 1266 l 1
 637 1266 l 1
EndSplineSet
EndChar

StartChar: ecircumflex
Encoding: 170 234 114
Width: 1262
VWidth: 3555
Flags: W
HStem: -28 156<499.25 972.407> 516 142<312 970> 991 153<478.572 828.066>
VStem: 115 187<337.108 516 658 793.844> 970 183<661 838.887>
LayerCount: 3
Fore
SplineSet
302 516 m 1,0,1
 339 128 339 128 708 128 c 0,2,3
 913 128 913 128 1109 231 c 1,4,-1
 1109 57 l 1,5,6
 913 -28 913 -28 696 -28 c 0,7,8
 431 -28 431 -28 273 126.5 c 128,-1,9
 115 281 115 281 115 550 c 0,10,11
 115 828 115 828 259.5 986 c 128,-1,12
 404 1144 404 1144 661 1144 c 0,13,14
 889 1144 889 1144 1021 1001 c 128,-1,15
 1153 858 1153 858 1153 608 c 2,16,-1
 1153 516 l 1,17,-1
 302 516 l 1,0,1
970 661 m 1,18,19
 967 814 967 814 885.5 902.5 c 128,-1,20
 804 991 804 991 665 991 c 0,21,22
 512 991 512 991 419 906 c 128,-1,23
 326 821 326 821 312 658 c 1,24,-1
 970 661 l 1,18,19
970 1262 m 1,25,-1
 832 1262 l 1,26,-1
 651 1507 l 1,27,-1
 472 1262 l 1,28,-1
 335 1262 l 1,29,-1
 580 1639 l 1,30,-1
 726 1639 l 1,31,-1
 970 1262 l 1,25,-1
EndSplineSet
Layer: 2
SplineSet
661 1144 m 3
 975 1144 1153 928 1153 608 c 2
 1153 516 l 1
 302 516 l 1
 327 257 462 128 708 128 c 3
 845 128 978 162 1109 231 c 1
 1109 57 l 1
 978 0 841 -28 696 -28 c 3
 342 -28 115 194 115 550 c 0
 115 908 309 1144 661 1144 c 3
970 661 m 1
 966 855 858 991 665 991 c 3
 450 991 330 863 312 658 c 1
 970 661 l 1
970 1262 m 1
 832 1262 l 1
 651 1507 l 1
 472 1262 l 1
 335 1262 l 1
 580 1639 l 1
 726 1639 l 1
 970 1262 l 1
EndSplineSet
EndChar

StartChar: edieresis
Encoding: 171 235 115
Width: 1262
VWidth: 3555
Flags: W
HStem: -28 156<499.25 972.407> 516 142<312 970> 991 153<478.572 828.066> 1351 203<356 554 746 950>
VStem: 115 187<337.108 516 658 793.844> 356 198<1351 1554> 746 204<1351 1554> 970 183<661 838.887>
LayerCount: 3
Fore
SplineSet
302 516 m 1,0,1
 339 128 339 128 708 128 c 0,2,3
 913 128 913 128 1109 231 c 1,4,-1
 1109 57 l 1,5,6
 913 -28 913 -28 696 -28 c 0,7,8
 431 -28 431 -28 273 126.5 c 128,-1,9
 115 281 115 281 115 550 c 0,10,11
 115 828 115 828 259.5 986 c 128,-1,12
 404 1144 404 1144 661 1144 c 0,13,14
 889 1144 889 1144 1021 1001 c 128,-1,15
 1153 858 1153 858 1153 608 c 2,16,-1
 1153 516 l 1,17,-1
 302 516 l 1,0,1
970 661 m 1,18,19
 967 814 967 814 885.5 902.5 c 128,-1,20
 804 991 804 991 665 991 c 0,21,22
 512 991 512 991 419 906 c 128,-1,23
 326 821 326 821 312 658 c 1,24,-1
 970 661 l 1,18,19
950 1351 m 1,25,-1
 746 1351 l 1,26,-1
 746 1554 l 1,27,-1
 950 1554 l 1,28,-1
 950 1351 l 1,25,-1
554 1351 m 1,29,-1
 356 1351 l 1,30,-1
 356 1554 l 1,31,-1
 554 1554 l 1,32,-1
 554 1351 l 1,29,-1
EndSplineSet
Layer: 2
SplineSet
661 1144 m 3
 975 1144 1153 928 1153 608 c 2
 1153 516 l 1
 302 516 l 1
 327 257 462 128 708 128 c 3
 845 128 978 162 1109 231 c 1
 1109 57 l 1
 978 0 841 -28 696 -28 c 3
 342 -28 115 194 115 550 c 0
 115 908 309 1144 661 1144 c 3
970 661 m 1
 966 855 858 991 665 991 c 3
 450 991 330 863 312 658 c 1
 970 661 l 1
950 1351 m 1
 746 1351 l 1
 746 1554 l 1
 950 1554 l 1
 950 1351 l 1
554 1351 m 1
 356 1351 l 1
 356 1554 l 1
 554 1554 l 1
 554 1351 l 1
EndSplineSet
EndChar

StartChar: iacute
Encoding: 173 237 116
Width: 571
VWidth: 3555
Flags: W
HStem: 0 21G<196 377> 1100 20G<196 377>
VStem: 196 181<0 1120>
LayerCount: 3
Fore
SplineSet
377 0 m 1,0,-1
 196 0 l 1,1,-1
 196 1120 l 1,2,-1
 377 1120 l 1,3,-1
 377 0 l 1,0,-1
309 1262 m 1,4,-1
 160 1262 l 1,5,-1
 437 1639 l 1,6,-1
 637 1639 l 1,7,-1
 309 1262 l 1,4,-1
EndSplineSet
Layer: 2
SplineSet
377 0 m 1
 196 0 l 1
 196 1120 l 1
 377 1120 l 1
 377 0 l 1
309 1262 m 1
 160 1262 l 1
 437 1639 l 1
 637 1639 l 1
 309 1262 l 1
EndSplineSet
EndChar

StartChar: igrave
Encoding: 172 236 117
Width: 571
VWidth: 3555
Flags: W
HStem: 0 21G<196 377> 1100 20G<196 377>
VStem: 196 181<0 1120>
LayerCount: 3
Fore
SplineSet
377 0 m 1,0,-1
 196 0 l 1,1,-1
 196 1120 l 1,2,-1
 377 1120 l 1,3,-1
 377 0 l 1,0,-1
285 1266 m 1,4,-1
 -47 1639 l 1,5,-1
 156 1639 l 1,6,-1
 434 1266 l 1,7,-1
 285 1266 l 1,4,-1
EndSplineSet
Layer: 2
SplineSet
377 0 m 1
 196 0 l 1
 196 1120 l 1
 377 1120 l 1
 377 0 l 1
285 1266 m 1
 -47 1639 l 1
 156 1639 l 1
 434 1266 l 1
 285 1266 l 1
EndSplineSet
EndChar

StartChar: icircumflex
Encoding: 174 238 118
Width: 571
VWidth: 3555
Flags: W
HStem: 0 21G<196 377> 1100 20G<196 377>
VStem: 196 181<0 1120>
LayerCount: 3
Fore
SplineSet
377 0 m 1,0,-1
 196 0 l 1,1,-1
 196 1120 l 1,2,-1
 377 1120 l 1,3,-1
 377 0 l 1,0,-1
618 1262 m 1,4,-1
 479 1262 l 1,5,-1
 299 1507 l 1,6,-1
 122 1262 l 1,7,-1
 -17 1262 l 1,8,-1
 227 1639 l 1,9,-1
 373 1639 l 1,10,-1
 618 1262 l 1,4,-1
EndSplineSet
Layer: 2
SplineSet
377 0 m 1
 196 0 l 1
 196 1120 l 1
 377 1120 l 1
 377 0 l 1
618 1262 m 1
 479 1262 l 1
 299 1507 l 1
 122 1262 l 1
 -17 1262 l 1
 227 1639 l 1
 373 1639 l 1
 618 1262 l 1
EndSplineSet
EndChar

StartChar: idieresis
Encoding: 175 239 119
Width: 571
VWidth: 3555
Flags: W
HStem: 0 21G<196 377> 1100 20G<196 377> 1351 203<3 203 394 597>
VStem: 3 200<1351 1554> 196 181<0 1120> 394 203<1351 1554>
LayerCount: 3
Fore
SplineSet
377 0 m 1,0,-1
 196 0 l 1,1,-1
 196 1120 l 1,2,-1
 377 1120 l 1,3,-1
 377 0 l 1,0,-1
597 1351 m 1,4,-1
 394 1351 l 1,5,-1
 394 1554 l 1,6,-1
 597 1554 l 1,7,-1
 597 1351 l 1,4,-1
203 1351 m 1,8,-1
 3 1351 l 1,9,-1
 3 1554 l 1,10,-1
 203 1554 l 1,11,-1
 203 1351 l 1,8,-1
EndSplineSet
Layer: 2
SplineSet
377 0 m 1xec
 196 0 l 1
 196 1120 l 1
 377 1120 l 1
 377 0 l 1xec
597 1351 m 1
 394 1351 l 1
 394 1554 l 1
 597 1554 l 1
 597 1351 l 1
203 1351 m 1xf4
 3 1351 l 1
 3 1554 l 1
 203 1554 l 1
 203 1351 l 1xf4
EndSplineSet
EndChar

StartChar: ntilde
Encoding: 177 241 120
Width: 1300
VWidth: 3555
Flags: W
HStem: 0 21G<189 373 943 1123> 988 156<539.619 840.254> 1100 20G<189 373> 1312 127<722.21 856.559> 1465 129<479.44 615.953>
VStem: 189 184<0 834.311 950 1120> 339 124<1312 1454.58> 872 124<1451.42 1594> 943 180<0 871.891>
LayerCount: 3
Fore
SplineSet
943 0 m 1,0,-1
 943 668 l 2,1,2
 943 988 943 988 693 988 c 0,3,4
 540 988 540 988 456.5 896 c 128,-1,5
 373 804 373 804 373 634 c 2,6,-1
 373 0 l 1,7,-1
 189 0 l 1,8,-1
 189 1120 l 1,9,-1
 373 1120 l 1,10,-1
 373 950 l 1,11,12
 505 1144 505 1144 733 1144 c 0,13,14
 929 1144 929 1144 1026 1025 c 128,-1,15
 1123 906 1123 906 1123 679 c 2,16,-1
 1123 0 l 1,17,-1
 943 0 l 1,0,-1
608 1429 m 1,18,19
 562 1465 562 1465 533 1465 c 0,20,21
 462 1465 462 1465 462 1312 c 1,22,-1
 339 1312 l 1,23,24
 339 1594 339 1594 529 1594 c 0,25,26
 601 1594 601 1594 668 1533 c 2,27,-1
 729 1476 l 2,28,29
 764 1439 764 1439 793 1439 c 0,30,31
 835 1439 835 1439 851.5 1474.5 c 128,-1,32
 868 1510 868 1510 871 1594 c 1,33,-1
 995 1594 l 1,34,35
 991 1312 991 1312 800 1312 c 0,36,37
 729 1312 729 1312 661 1373 c 2,38,-1
 608 1429 l 1,18,19
EndSplineSet
Layer: 2
SplineSet
794 1439 m 3x9b
 864 1439 869 1510 872 1594 c 1
 996 1594 l 1
 993 1406 928 1312 801 1312 c 3
 754 1312 704 1329 662 1373 c 2
 608 1429 l 2
 581 1457 553 1465 534 1465 c 3
 487 1465 463 1414 463 1312 c 1
 339 1312 l 1
 339 1500 403 1594 530 1594 c 3
 577 1594 624 1574 669 1533 c 2
 730 1476 l 2
 755 1453 775 1439 794 1439 c 3x9b
733 1144 m 3xdc80
 1009 1144 1123 964 1123 679 c 2
 1123 0 l 1
 943 0 l 1
 943 668 l 2
 943 881 860 988 693 988 c 3xdc80
 481 988 373 851 373 634 c 2
 373 0 l 1
 189 0 l 1
 189 1120 l 1
 373 1120 l 1xbc80
 373 950 l 1
 461 1079 581 1144 733 1144 c 3xdc80
EndSplineSet
EndChar

StartChar: oacute
Encoding: 179 243 121
Width: 1253
VWidth: 3555
Flags: W
HStem: -28 156<472.357 785.645> 991 153<465.853 778.053>
VStem: 115 194<320.912 801.241> 950 191<320.912 789.319>
LayerCount: 3
Fore
SplineSet
625 991 m 256,0,1
 476 991 476 991 392.5 877.5 c 128,-1,2
 309 764 309 764 309 562 c 256,3,4
 309 359 309 359 392.5 243.5 c 128,-1,5
 476 128 476 128 625 128 c 256,6,7
 774 128 774 128 862 243.5 c 128,-1,8
 950 359 950 359 950 562 c 0,9,10
 950 757 950 757 862 874 c 128,-1,11
 774 991 774 991 625 991 c 256,0,1
625 1144 m 256,12,13
 871 1144 871 1144 1006 991 c 128,-1,14
 1141 838 1141 838 1141 562 c 256,15,16
 1141 285 1141 285 1006 128.5 c 128,-1,17
 871 -28 871 -28 625 -28 c 256,18,19
 380 -28 380 -28 247.5 128.5 c 128,-1,20
 115 285 115 285 115 562 c 256,21,22
 115 838 115 838 247.5 991 c 128,-1,23
 380 1144 380 1144 625 1144 c 256,12,13
637 1262 m 1,24,-1
 488 1262 l 1,25,-1
 764 1639 l 1,26,-1
 963 1639 l 1,27,-1
 637 1262 l 1,24,-1
EndSplineSet
Layer: 2
SplineSet
950 562 m 3
 950 794 844 991 625 991 c 259
 403 991 309 799 309 562 c 259
 309 324 403 128 625 128 c 259
 848 128 950 324 950 562 c 3
115 562 m 259
 115 912 284 1144 625 1144 c 259
 967 1144 1141 913 1141 562 c 259
 1141 211 967 -28 625 -28 c 259
 283 -28 115 211 115 562 c 259
637 1262 m 1
 488 1262 l 1
 764 1639 l 1
 963 1639 l 1
 637 1262 l 1
EndSplineSet
EndChar

StartChar: ograve
Encoding: 178 242 122
Width: 1253
VWidth: 3555
Flags: W
HStem: -28 156<472.357 785.645> 991 153<465.853 778.053>
VStem: 115 194<320.912 801.241> 950 191<320.912 789.319>
LayerCount: 3
Fore
SplineSet
625 991 m 256,0,1
 476 991 476 991 392.5 877.5 c 128,-1,2
 309 764 309 764 309 562 c 256,3,4
 309 359 309 359 392.5 243.5 c 128,-1,5
 476 128 476 128 625 128 c 256,6,7
 774 128 774 128 862 243.5 c 128,-1,8
 950 359 950 359 950 562 c 0,9,10
 950 757 950 757 862 874 c 128,-1,11
 774 991 774 991 625 991 c 256,0,1
625 1144 m 256,12,13
 871 1144 871 1144 1006 991 c 128,-1,14
 1141 838 1141 838 1141 562 c 256,15,16
 1141 285 1141 285 1006 128.5 c 128,-1,17
 871 -28 871 -28 625 -28 c 256,18,19
 380 -28 380 -28 247.5 128.5 c 128,-1,20
 115 285 115 285 115 562 c 256,21,22
 115 838 115 838 247.5 991 c 128,-1,23
 380 1144 380 1144 625 1144 c 256,12,13
611 1266 m 1,24,-1
 281 1639 l 1,25,-1
 484 1639 l 1,26,-1
 760 1266 l 1,27,-1
 611 1266 l 1,24,-1
EndSplineSet
Layer: 2
SplineSet
950 562 m 3
 950 794 844 991 625 991 c 259
 403 991 309 799 309 562 c 259
 309 324 403 128 625 128 c 259
 848 128 950 324 950 562 c 3
115 562 m 259
 115 912 284 1144 625 1144 c 259
 967 1144 1141 913 1141 562 c 259
 1141 211 967 -28 625 -28 c 259
 283 -28 115 211 115 562 c 259
611 1266 m 1
 281 1639 l 1
 484 1639 l 1
 760 1266 l 1
 611 1266 l 1
EndSplineSet
EndChar

StartChar: ocircumflex
Encoding: 180 244 123
Width: 1253
VWidth: 3555
Flags: W
HStem: -28 156<472.357 785.645> 991 153<465.853 778.053>
VStem: 115 194<320.912 801.241> 309 139<1262 1401> 950 191<320.912 789.319>
LayerCount: 3
Fore
SplineSet
625 991 m 256,0,1
 476 991 476 991 392.5 877.5 c 128,-1,2
 309 764 309 764 309 562 c 256,3,4
 309 359 309 359 392.5 243.5 c 128,-1,5
 476 128 476 128 625 128 c 256,6,7
 774 128 774 128 862 243.5 c 128,-1,8
 950 359 950 359 950 562 c 0,9,10
 950 757 950 757 862 874 c 128,-1,11
 774 991 774 991 625 991 c 256,0,1
625 1144 m 256,12,13
 871 1144 871 1144 1006 991 c 128,-1,14
 1141 838 1141 838 1141 562 c 256,15,16
 1141 285 1141 285 1006 128.5 c 128,-1,17
 871 -28 871 -28 625 -28 c 256,18,19
 380 -28 380 -28 247.5 128.5 c 128,-1,20
 115 285 115 285 115 562 c 256,21,22
 115 838 115 838 247.5 991 c 128,-1,23
 380 1144 380 1144 625 1144 c 256,12,13
946 1262 m 1,24,-1
 807 1262 l 1,25,-1
 625 1507 l 1,26,-1
 448 1262 l 1,27,-1
 309 1262 l 1,28,-1
 554 1639 l 1,29,-1
 700 1639 l 1,30,-1
 946 1262 l 1,24,-1
EndSplineSet
Layer: 2
SplineSet
950 562 m 3xe8
 950 794 844 991 625 991 c 259
 403 991 309 799 309 562 c 259
 309 324 403 128 625 128 c 259
 848 128 950 324 950 562 c 3xe8
115 562 m 259
 115 912 284 1144 625 1144 c 259
 967 1144 1141 913 1141 562 c 259
 1141 211 967 -28 625 -28 c 259
 283 -28 115 211 115 562 c 259
946 1262 m 1
 807 1262 l 1
 625 1507 l 1
 448 1262 l 1
 309 1262 l 1xd8
 554 1639 l 1
 700 1639 l 1
 946 1262 l 1
EndSplineSet
EndChar

StartChar: odieresis
Encoding: 182 246 124
Width: 1253
VWidth: 3555
Flags: W
HStem: -28 156<472.357 785.645> 991 153<465.853 778.053> 1351 203<330 529 722 924>
VStem: 115 194<320.912 801.241> 330 199<1351 1554> 722 202<1351 1554> 950 191<320.912 789.319>
LayerCount: 3
Fore
SplineSet
625 991 m 256,0,1
 476 991 476 991 392.5 877.5 c 128,-1,2
 309 764 309 764 309 562 c 256,3,4
 309 359 309 359 392.5 243.5 c 128,-1,5
 476 128 476 128 625 128 c 256,6,7
 774 128 774 128 862 243.5 c 128,-1,8
 950 359 950 359 950 562 c 0,9,10
 950 757 950 757 862 874 c 128,-1,11
 774 991 774 991 625 991 c 256,0,1
625 1144 m 256,12,13
 871 1144 871 1144 1006 991 c 128,-1,14
 1141 838 1141 838 1141 562 c 256,15,16
 1141 285 1141 285 1006 128.5 c 128,-1,17
 871 -28 871 -28 625 -28 c 256,18,19
 380 -28 380 -28 247.5 128.5 c 128,-1,20
 115 285 115 285 115 562 c 256,21,22
 115 838 115 838 247.5 991 c 128,-1,23
 380 1144 380 1144 625 1144 c 256,12,13
924 1351 m 1,24,-1
 722 1351 l 1,25,-1
 722 1554 l 1,26,-1
 924 1554 l 1,27,-1
 924 1351 l 1,24,-1
529 1351 m 1,28,-1
 330 1351 l 1,29,-1
 330 1554 l 1,30,-1
 529 1554 l 1,31,-1
 529 1351 l 1,28,-1
EndSplineSet
Layer: 2
SplineSet
950 562 m 3
 950 794 844 991 625 991 c 259
 403 991 309 799 309 562 c 259
 309 324 403 128 625 128 c 259
 848 128 950 324 950 562 c 3
115 562 m 259
 115 912 284 1144 625 1144 c 259
 967 1144 1141 913 1141 562 c 259
 1141 211 967 -28 625 -28 c 259
 283 -28 115 211 115 562 c 259
924 1351 m 1
 722 1351 l 1
 722 1554 l 1
 924 1554 l 1
 924 1351 l 1
529 1351 m 1
 330 1351 l 1
 330 1554 l 1
 529 1554 l 1
 529 1351 l 1
EndSplineSet
EndChar

StartChar: otilde
Encoding: 181 245 125
Width: 1253
VWidth: 3555
Flags: W
HStem: -28 156<472.357 785.645> 991 153<465.853 778.053> 1312 127<682.21 816.559> 1465 129<439.44 575.953>
VStem: 115 194<320.912 801.241> 299 124<1312 1454.58> 832 124<1451.42 1594> 950 191<320.912 789.319>
LayerCount: 3
Fore
SplineSet
625 991 m 256,0,1
 476 991 476 991 392.5 877.5 c 128,-1,2
 309 764 309 764 309 562 c 256,3,4
 309 359 309 359 392.5 243.5 c 128,-1,5
 476 128 476 128 625 128 c 256,6,7
 774 128 774 128 862 243.5 c 128,-1,8
 950 359 950 359 950 562 c 0,9,10
 950 757 950 757 862 874 c 128,-1,11
 774 991 774 991 625 991 c 256,0,1
625 1144 m 256,12,13
 871 1144 871 1144 1006 991 c 128,-1,14
 1141 838 1141 838 1141 562 c 256,15,16
 1141 285 1141 285 1006 128.5 c 128,-1,17
 871 -28 871 -28 625 -28 c 256,18,19
 380 -28 380 -28 247.5 128.5 c 128,-1,20
 115 285 115 285 115 562 c 256,21,22
 115 838 115 838 247.5 991 c 128,-1,23
 380 1144 380 1144 625 1144 c 256,12,13
569 1429 m 1,24,25
 523 1465 523 1465 495 1465 c 0,26,27
 424 1465 424 1465 424 1312 c 1,28,-1
 299 1312 l 1,29,30
 299 1594 299 1594 491 1594 c 0,31,32
 562 1594 562 1594 628 1533 c 2,33,-1
 689 1476 l 2,34,35
 726 1439 726 1439 753 1439 c 0,36,37
 797 1439 797 1439 812.5 1474.5 c 128,-1,38
 828 1510 828 1510 832 1594 c 1,39,-1
 957 1594 l 1,40,41
 953 1312 953 1312 760 1312 c 0,42,43
 689 1312 689 1312 621 1373 c 2,44,-1
 569 1429 l 1,24,25
EndSplineSet
Layer: 2
SplineSet
754 1439 m 3xf6
 824 1439 829 1510 832 1594 c 1
 956 1594 l 1
 953 1406 888 1312 761 1312 c 3
 714 1312 664 1329 622 1373 c 2
 568 1429 l 2
 541 1457 513 1465 494 1465 c 3
 447 1465 423 1414 423 1312 c 1
 299 1312 l 1
 299 1500 363 1594 490 1594 c 3
 537 1594 584 1574 629 1533 c 2
 690 1476 l 2
 715 1453 735 1439 754 1439 c 3xf6
950 562 m 3xf9
 950 794 844 991 625 991 c 259
 403 991 309 799 309 562 c 259
 309 324 403 128 625 128 c 259
 848 128 950 324 950 562 c 3xf9
115 562 m 259
 115 912 284 1144 625 1144 c 259
 967 1144 1141 913 1141 562 c 259
 1141 211 967 -28 625 -28 c 259
 283 -28 115 211 115 562 c 259
EndSplineSet
EndChar

StartChar: uacute
Encoding: 186 250 126
Width: 1300
VWidth: 3555
Flags: W
HStem: -28 160<460.469 762.379> 0 21G<932 1113> 1100 20G<170 359 932 1113>
VStem: 170 189<238.478 1120> 932 181<0 170 289.754 1120>
LayerCount: 3
Fore
SplineSet
359 1120 m 1,0,-1
 359 451 l 2,1,2
 359 132 359 132 608 132 c 0,3,4
 757 132 757 132 844.5 227.5 c 128,-1,5
 932 323 932 323 932 488 c 2,6,-1
 932 1120 l 1,7,-1
 1113 1120 l 1,8,-1
 1113 0 l 1,9,-1
 932 0 l 1,10,-1
 932 170 l 1,11,12
 861 71 861 71 773.5 21.5 c 128,-1,13
 686 -28 686 -28 569 -28 c 0,14,15
 170 -28 170 -28 170 444 c 2,16,-1
 170 1120 l 1,17,-1
 359 1120 l 1,0,-1
648 1262 m 1,18,-1
 498 1262 l 1,19,-1
 774 1639 l 1,20,-1
 974 1639 l 1,21,-1
 648 1262 l 1,18,-1
EndSplineSet
Layer: 2
SplineSet
932 170 m 1x78
 850 56 748 -28 569 -28 c 3
 303 -28 170 129 170 444 c 2
 170 1120 l 1
 359 1120 l 1
 359 451 l 2
 359 238 442 132 608 132 c 3xb8
 814 132 932 277 932 488 c 2
 932 1120 l 1
 1113 1120 l 1
 1113 0 l 1
 932 0 l 1
 932 170 l 1x78
648 1262 m 1
 498 1262 l 1
 774 1639 l 1
 974 1639 l 1
 648 1262 l 1
EndSplineSet
EndChar

StartChar: ugrave
Encoding: 185 249 127
Width: 1300
VWidth: 3555
Flags: W
HStem: -28 160<460.469 762.379> 0 21G<932 1113> 1100 20G<170 359 932 1113>
VStem: 170 189<238.478 1120> 932 181<0 170 289.754 1120>
LayerCount: 3
Fore
SplineSet
359 1120 m 1,0,-1
 359 451 l 2,1,2
 359 132 359 132 608 132 c 0,3,4
 757 132 757 132 844.5 227.5 c 128,-1,5
 932 323 932 323 932 488 c 2,6,-1
 932 1120 l 1,7,-1
 1113 1120 l 1,8,-1
 1113 0 l 1,9,-1
 932 0 l 1,10,-1
 932 170 l 1,11,12
 861 71 861 71 773.5 21.5 c 128,-1,13
 686 -28 686 -28 569 -28 c 0,14,15
 170 -28 170 -28 170 444 c 2,16,-1
 170 1120 l 1,17,-1
 359 1120 l 1,0,-1
621 1266 m 1,18,-1
 292 1639 l 1,19,-1
 495 1639 l 1,20,-1
 771 1266 l 1,21,-1
 621 1266 l 1,18,-1
EndSplineSet
Layer: 2
SplineSet
932 170 m 1x78
 850 56 748 -28 569 -28 c 3
 303 -28 170 129 170 444 c 2
 170 1120 l 1
 359 1120 l 1
 359 451 l 2
 359 238 442 132 608 132 c 3xb8
 814 132 932 277 932 488 c 2
 932 1120 l 1
 1113 1120 l 1
 1113 0 l 1
 932 0 l 1
 932 170 l 1x78
621 1266 m 1
 292 1639 l 1
 495 1639 l 1
 771 1266 l 1
 621 1266 l 1
EndSplineSet
EndChar

StartChar: ucircumflex
Encoding: 187 251 128
Width: 1300
VWidth: 3555
Flags: W
HStem: -28 160<460.469 762.379> 0 21G<932 1113> 1100 20G<170 359 932 1113>
VStem: 170 189<238.478 1120> 932 181<0 170 289.754 1120>
LayerCount: 3
Fore
SplineSet
359 1120 m 1,0,-1
 359 451 l 2,1,2
 359 132 359 132 608 132 c 0,3,4
 757 132 757 132 844.5 227.5 c 128,-1,5
 932 323 932 323 932 488 c 2,6,-1
 932 1120 l 1,7,-1
 1113 1120 l 1,8,-1
 1113 0 l 1,9,-1
 932 0 l 1,10,-1
 932 170 l 1,11,12
 861 71 861 71 773.5 21.5 c 128,-1,13
 686 -28 686 -28 569 -28 c 0,14,15
 170 -28 170 -28 170 444 c 2,16,-1
 170 1120 l 1,17,-1
 359 1120 l 1,0,-1
957 1262 m 1,18,-1
 818 1262 l 1,19,-1
 637 1507 l 1,20,-1
 458 1262 l 1,21,-1
 319 1262 l 1,22,-1
 566 1639 l 1,23,-1
 712 1639 l 1,24,-1
 957 1262 l 1,18,-1
EndSplineSet
Layer: 2
SplineSet
932 170 m 1x78
 850 56 748 -28 569 -28 c 3
 303 -28 170 129 170 444 c 2
 170 1120 l 1
 359 1120 l 1
 359 451 l 2
 359 238 442 132 608 132 c 3xb8
 814 132 932 277 932 488 c 2
 932 1120 l 1
 1113 1120 l 1
 1113 0 l 1
 932 0 l 1
 932 170 l 1x78
957 1262 m 1
 818 1262 l 1
 637 1507 l 1
 458 1262 l 1
 319 1262 l 1
 566 1639 l 1
 712 1639 l 1
 957 1262 l 1
EndSplineSet
EndChar

StartChar: udieresis
Encoding: 188 252 129
Width: 1300
VWidth: 3555
Flags: W
HStem: -28 160<460.469 762.379> 0 21G<932 1113> 1100 20G<170 359 932 1113> 1351 203<342 540 733 936>
VStem: 170 189<238.478 1120> 342 198<1351 1554> 733 203<1351 1554> 932 181<0 170 289.754 1120>
LayerCount: 3
Fore
SplineSet
359 1120 m 1,0,-1
 359 451 l 2,1,2
 359 132 359 132 608 132 c 0,3,4
 757 132 757 132 844.5 227.5 c 128,-1,5
 932 323 932 323 932 488 c 2,6,-1
 932 1120 l 1,7,-1
 1113 1120 l 1,8,-1
 1113 0 l 1,9,-1
 932 0 l 1,10,-1
 932 170 l 1,11,12
 861 71 861 71 773.5 21.5 c 128,-1,13
 686 -28 686 -28 569 -28 c 0,14,15
 170 -28 170 -28 170 444 c 2,16,-1
 170 1120 l 1,17,-1
 359 1120 l 1,0,-1
936 1351 m 1,18,-1
 733 1351 l 1,19,-1
 733 1554 l 1,20,-1
 936 1554 l 1,21,-1
 936 1351 l 1,18,-1
540 1351 m 1,22,-1
 342 1351 l 1,23,-1
 342 1554 l 1,24,-1
 540 1554 l 1,25,-1
 540 1351 l 1,22,-1
EndSplineSet
Layer: 2
SplineSet
932 170 m 1x79
 850 56 748 -28 569 -28 c 3
 303 -28 170 129 170 444 c 2
 170 1120 l 1
 359 1120 l 1
 359 451 l 2
 359 238 442 132 608 132 c 3xb9
 814 132 932 277 932 488 c 2
 932 1120 l 1
 1113 1120 l 1
 1113 0 l 1
 932 0 l 1
 932 170 l 1x79
936 1351 m 1x32
 733 1351 l 1
 733 1554 l 1
 936 1554 l 1
 936 1351 l 1x32
540 1351 m 1x34
 342 1351 l 1
 342 1554 l 1
 540 1554 l 1
 540 1351 l 1x34
EndSplineSet
EndChar

StartChar: dagger
Encoding: 324 8224 130
Width: 1022
VWidth: 3555
Flags: W
HStem: 920 153<57 424 601 970> 1473 20G<424 601>
VStem: 424 177<-200 920 1073 1493>
LayerCount: 3
Fore
SplineSet
601 1073 m 1,0,-1
 970 1073 l 1,1,-1
 970 920 l 1,2,-1
 601 920 l 1,3,-1
 601 -200 l 1,4,-1
 424 -200 l 1,5,-1
 424 920 l 1,6,-1
 57 920 l 1,7,-1
 57 1073 l 1,8,-1
 424 1073 l 1,9,-1
 424 1493 l 1,10,-1
 601 1493 l 1,11,-1
 601 1073 l 1,0,-1
EndSplineSet
Layer: 2
SplineSet
601 1073 m 1
 970 1073 l 1
 970 920 l 1
 601 920 l 1
 601 -200 l 1
 424 -200 l 1
 424 920 l 1
 57 920 l 1
 57 1073 l 1
 424 1073 l 1
 424 1493 l 1
 601 1493 l 1
 601 1073 l 1
EndSplineSet
EndChar

StartChar: degree
Encoding: 112 176 131
Width: 1022
VWidth: 3555
Flags: W
HStem: 885 129<393.319 636.946> 1391 131<391.873 637.978>
VStem: 196 127<1082.73 1322.51> 705 127<1083.13 1323.13>
LayerCount: 3
Fore
SplineSet
512 1391 m 259,0,1
 434 1391 434 1391 378.5 1337 c 128,-1,2
 323 1283 323 1283 323 1201 c 259,3,4
 323 1123 323 1123 378.5 1068.5 c 128,-1,5
 434 1014 434 1014 512 1014 c 259,6,7
 594 1014 594 1014 649.5 1068.5 c 128,-1,8
 705 1123 705 1123 705 1201 c 259,9,10
 705 1283 705 1283 649.5 1337 c 128,-1,11
 594 1391 594 1391 512 1391 c 259,0,1
512 1522 m 259,12,13
 648 1522 648 1522 740 1423 c 152,-1,14
 832 1324 832 1324 832 1201 c 259,15,16
 832 1069 832 1069 738 977 c 128,-1,17
 644 885 644 885 512 885 c 259,18,19
 377 885 377 885 286.5 975.5 c 128,-1,20
 196 1066 196 1066 196 1201 c 259,21,22
 196 1338 196 1338 288 1430 c 128,-1,23
 380 1522 380 1522 512 1522 c 259,12,13
EndSplineSet
Layer: 2
SplineSet
705 1201 m 3
 705 1310 621 1391 512 1391 c 3
 407 1391 323 1308 323 1201 c 3
 323 1098 409 1014 512 1014 c 3
 618 1014 705 1096 705 1201 c 3
512 885 m 3
 333 885 196 1022 196 1201 c 3
 196 1387 328 1522 512 1522 c 3
 689 1522 832 1388 832 1201 c 3
 832 1026 687 885 512 885 c 3
EndSplineSet
EndChar

StartChar: cent
Encoding: 98 162 132
Width: 1303
VWidth: 3555
Flags: W
HStem: -24 156<545.5 682 779 987.086> 988 156<546.358 682 779 985.843>
VStem: 170 200<316.935 794.766> 682 97<-312 -23.609 132 988 1144 1436>
LayerCount: 3
Fore
SplineSet
682 988 m 1,0,1
 529 970 529 970 449.5 856.5 c 128,-1,2
 370 743 370 743 370 562 c 259,3,4
 370 170 370 170 682 132 c 1,5,-1
 682 988 l 1,0,1
1062 43 m 1,6,7
 948 -13 948 -13 779 -28 c 1,8,-1
 779 -312 l 1,9,-1
 682 -312 l 1,10,-1
 682 -24 l 1,11,12
 437 -3 437 -3 303.5 149.5 c 128,-1,13
 170 302 170 302 170 562 c 259,14,15
 170 821 170 821 303.5 972 c 128,-1,16
 437 1123 437 1123 682 1144 c 1,17,-1
 682 1436 l 1,18,-1
 779 1436 l 1,19,-1
 779 1144 l 1,20,21
 929 1137 929 1137 1062 1078 c 1,22,-1
 1062 906 l 1,23,24
 930 985 930 985 779 991 c 1,25,-1
 779 128 l 1,26,27
 932 137 932 137 1062 214 c 1,28,-1
 1062 43 l 1,6,7
EndSplineSet
Layer: 2
SplineSet
682 988 m 1
 474 964 370 797 370 562 c 3
 370 301 474 157 682 132 c 1
 682 988 l 1
170 562 m 259
 170 910 359 1116 682 1144 c 1
 682 1436 l 1
 779 1436 l 1
 779 1144 l 1
 879 1139 973 1117 1062 1078 c 1
 1062 906 l 1
 977 956 894 986 779 991 c 1
 779 128 l 1
 894 135 977 164 1062 214 c 1
 1062 43 l 1
 977 1 892 -18 779 -28 c 1
 779 -312 l 1
 682 -312 l 1
 682 -24 l 1
 359 4 170 213 170 562 c 259
EndSplineSet
EndChar

StartChar: sterling
Encoding: 99 163 133
Width: 1303
VWidth: 3555
Flags: W
HStem: 0 167<128 366 566 1123> 637 142<163 366 566 957> 1361 161<655.971 1029.73>
VStem: 366 200<167 637 779 1259.61>
LayerCount: 3
Fore
SplineSet
814 1522 m 259,0,1
 929 1522 929 1522 1102 1462 c 1,2,-1
 1102 1283 l 1,3,4
 958 1361 958 1361 820 1361 c 259,5,6
 682 1361 682 1361 624 1284.5 c 128,-1,7
 566 1208 566 1208 566 991 c 2,8,-1
 566 779 l 1,9,-1
 957 779 l 1,10,-1
 957 637 l 1,11,-1
 566 637 l 1,12,-1
 566 167 l 1,13,-1
 1123 167 l 1,14,-1
 1123 0 l 1,15,-1
 128 0 l 1,16,-1
 128 167 l 1,17,-1
 366 167 l 1,18,-1
 366 637 l 1,19,-1
 163 637 l 1,20,-1
 163 779 l 1,21,-1
 366 779 l 1,22,-1
 366 1017 l 2,23,24
 366 1276 366 1276 473 1399 c 128,-1,25
 580 1522 580 1522 814 1522 c 259,0,1
EndSplineSet
Layer: 2
SplineSet
814 1522 m 3
 912 1522 1019 1491 1102 1462 c 1
 1102 1283 l 1
 1024 1325 935 1361 832 1361 c 3
 604 1361 566 1244 566 991 c 2
 566 779 l 1
 957 779 l 1
 957 637 l 1
 566 637 l 1
 566 167 l 1
 1123 167 l 1
 1123 0 l 1
 128 0 l 1
 128 167 l 1
 366 167 l 1
 366 637 l 1
 163 637 l 1
 163 779 l 1
 366 779 l 1
 366 1017 l 2
 366 1349 490 1522 814 1522 c 3
EndSplineSet
EndChar

StartChar: section
Encoding: 103 167 134
Width: 1022
VWidth: 3555
Flags: W
HStem: -196 146<248.606 630.705> 1377 145<391.545 758.939>
VStem: 92 160<637.08 860.298> 156 189<1139.69 1329.83> 682 183<0.745634 203.545> 767 165<482.099 707.024>
DStem2: 550 1019 380 939 0.866906 -0.498471<-121.61 333.642> 438 526 437 348 0.868243 -0.496139<-214.64 250.888>
LayerCount: 3
Fore
SplineSet
644 410 m 1,0,1
 767 500 767 500 767 582 c 259,2,3
 767 664 767 664 693.5 736 c 128,-1,4
 620 808 620 808 380 939 c 1,5,6
 252 840 252 840 252 756 c 259,7,8
 252 672 252 672 322.5 608 c 128,-1,9
 393 544 393 544 644 410 c 1,0,1
278 1007 m 1,10,11
 156 1100 156 1100 156 1234 c 259,12,13
 156 1368 156 1368 261 1445 c 128,-1,14
 366 1522 366 1522 520 1522 c 259,15,16
 674 1522 674 1522 832 1465 c 1,17,-1
 832 1302 l 1,18,19
 748 1339 748 1339 683 1358 c 128,-1,20
 618 1377 618 1377 536 1377 c 259,21,22
 454 1377 454 1377 399.5 1339.5 c 128,-1,23
 345 1302 345 1302 345 1227 c 259,24,25
 345 1179 345 1179 403.5 1124 c 128,-1,26
 462 1069 462 1069 550 1019 c 2,27,-1
 590 996 l 2,28,29
 754 902 754 902 805 858 c 0,30,31
 932 749 932 749 932 621 c 259,32,33
 932 441 932 441 746 342 c 1,34,35
 805 293 805 293 835 241.5 c 128,-1,36
 865 190 865 190 865 115 c 259,37,38
 865 -31 865 -31 758.5 -113.5 c 128,-1,39
 652 -196 652 -196 488 -196 c 259,40,41
 398 -196 398 -196 170 -139 c 1,42,-1
 170 24 l 1,43,44
 365 -50 365 -50 465 -50 c 259,45,46
 682 -50 682 -50 682 109 c 259,47,48
 682 208 682 208 458 336 c 2,49,-1
 437 348 l 2,50,51
 279 438 279 438 229 475 c 0,52,53
 92 579 92 579 92 726 c 259,54,55
 92 909 92 909 278 1007 c 1,10,11
EndSplineSet
Layer: 2
SplineSet
380 939 m 1xe4
 317 890 252 831 252 753 c 3
 252 643 347 582 438 526 c 0
 492 493 561 454 644 410 c 1
 709 458 767 511 767 594 c 3
 767 697 670 765 583 821 c 0
 531 854 463 894 380 939 c 1xe4
156 1231 m 3xd0
 156 1420 325 1522 523 1522 c 3
 624 1522 727 1503 832 1465 c 1
 832 1302 l 1
 740 1343 654 1377 543 1377 c 3
 432 1377 345 1332 345 1227 c 3
 345 1158 447 1078 550 1019 c 2
 590 996 l 2
 774 890 932 802 932 621 c 3xd4
 932 501 870 408 746 342 c 1
 815 284 865 223 865 115 c 3
 865 -86 698 -196 488 -196 c 3
 369 -196 275 -167 170 -139 c 1
 170 24 l 1
 266 -13 355 -50 465 -50 c 3
 610 -50 682 3 682 109 c 3
 682 179 605 252 458 336 c 2
 437 348 l 2
 237 462 92 536 92 726 c 3xe8
 92 867 177 954 278 1007 c 1
 214 1056 156 1129 156 1231 c 3xd0
EndSplineSet
EndChar

StartChar: bullet
Encoding: 326 8226 135
Width: 1208
VWidth: 3555
Flags: W
HStem: 465 594<451.24 758.539>
VStem: 309 594<606.554 914.983>
LayerCount: 3
Fore
SplineSet
309 760 m 259,0,1
 309 885 309 885 394 972 c 128,-1,2
 479 1059 479 1059 608 1059 c 259,3,4
 733 1059 733 1059 818 972 c 128,-1,5
 903 885 903 885 903 760 c 259,6,7
 903 637 903 637 816 551 c 128,-1,8
 729 465 729 465 604 465 c 259,9,10
 479 465 479 465 394 551 c 128,-1,11
 309 637 309 637 309 760 c 259,0,1
EndSplineSet
Layer: 2
SplineSet
604 465 m 259
 440 465 309 596 309 760 c 259
 309 928 439 1059 608 1059 c 3
 773 1059 903 925 903 760 c 259
 903 596 768 465 604 465 c 259
EndSplineSet
EndChar

StartChar: paragraph
Encoding: 118 182 136
Width: 1303
VWidth: 3555
Flags: W
HStem: 1373 120<750 943>
VStem: 156 594<877.821 1261.33> 608 142<-200 651.713> 943 139<-200 1373>
LayerCount: 3
Fore
SplineSet
1082 -200 m 1,0,-1
 943 -200 l 1,1,-1
 943 1373 l 1,2,-1
 750 1373 l 1,3,-1
 750 -200 l 1,4,-1
 608 -200 l 1,5,-1
 608 648 l 1,6,7
 391 665 391 665 273.5 777 c 128,-1,8
 156 889 156 889 156 1073 c 259,9,10
 156 1266 156 1266 286.5 1379.5 c 128,-1,11
 417 1493 417 1493 634 1493 c 2,12,-1
 1082 1493 l 1,13,-1
 1082 -200 l 1,0,-1
EndSplineSet
Layer: 2
SplineSet
156 1073 m 3xd0
 156 1341 359 1493 634 1493 c 2
 1082 1493 l 1
 1082 -200 l 1
 943 -200 l 1
 943 1373 l 1
 750 1373 l 1
 750 -200 l 1
 608 -200 l 1
 608 648 l 1xb0
 346 669 156 805 156 1073 c 3xd0
EndSplineSet
EndChar

StartChar: germandbls
Encoding: 159 223 137
Width: 1293
VWidth: 3555
Flags: W
HStem: -28 153<530.536 941.547> 0 21G<189 373> 1408 149<473.466 802.271>
VStem: 189 184<0 1301.05> 576 177<781.385 997.388> 1007 191<189.368 436.878>
DStem2: 878 712 757 576 0.850068 -0.526673<-161.781 280.843>
LayerCount: 3
Fore
SplineSet
760 -28 m 259,0,1
 654 -28 654 -28 488 17 c 1,2,-1
 488 184 l 1,3,4
 648 125 648 125 771 125 c 259,5,6
 1007 125 1007 125 1007 312 c 259,7,8
 1007 373 1007 373 978.5 415.5 c 128,-1,9
 950 458 950 458 849 519 c 2,10,-1
 757 576 l 2,11,12
 661 634 661 634 618.5 700.5 c 128,-1,13
 576 767 576 767 576 861 c 259,14,15
 576 988 576 988 658 1075.5 c 128,-1,16
 740 1163 740 1163 892 1191 c 1,17,18
 871 1408 871 1408 641 1408 c 259,19,20
 509 1408 509 1408 441 1337 c 128,-1,21
 373 1266 373 1266 373 1134 c 2,22,-1
 373 0 l 1,23,-1
 189 0 l 1,24,-1
 189 1137 l 2,25,26
 189 1340 189 1340 304.5 1448.5 c 128,-1,27
 420 1557 420 1557 644 1557 c 259,28,29
 1066 1557 1066 1557 1073 1102 c 1,30,31
 924 1095 924 1095 838.5 1036 c 128,-1,32
 753 977 753 977 753 882 c 259,33,34
 753 793 753 793 878 712 c 2,35,-1
 936 675 l 2,36,37
 1099 569 1099 569 1148.5 498 c 128,-1,38
 1198 427 1198 427 1198 326 c 259,39,40
 1198 153 1198 153 1086 62.5 c 128,-1,41
 974 -28 974 -28 760 -28 c 259,0,1
EndSplineSet
Layer: 2
SplineSet
641 1408 m 3xbc
 465 1408 373 1310 373 1134 c 2
 373 0 l 1
 189 0 l 1x7c
 189 1137 l 2
 189 1418 357 1557 644 1557 c 3
 925 1557 1068 1405 1073 1102 c 1
 912 1094 753 1033 753 882 c 3
 753 823 795 766 878 712 c 2
 936 675 l 2
 1097 572 1198 518 1198 326 c 3
 1198 76 1022 -28 760 -28 c 3
 660 -28 575 -6 488 17 c 1
 488 184 l 1
 595 145 689 125 771 125 c 3
 928 125 1007 187 1007 312 c 3
 1007 430 948 458 849 519 c 2
 757 576 l 2
 649 642 576 708 576 861 c 3
 576 1054 716 1159 892 1191 c 1
 878 1336 794 1408 641 1408 c 3xbc
EndSplineSet
EndChar

StartChar: registered
Encoding: 110 174 138
Width: 2050
VWidth: 3555
Flags: W
HStem: 0 102<807.457 1249.13> 696 101<875 1052.37> 1073 104<875 1160.9> 1384 102<806.056 1244.66>
VStem: 281 99<526.441 958.758> 722 153<339 696 797 1073> 1198 156<828.782 1036.37> 1255 174<339 513> 1668 96<523.383 968.678>
DStem2: 1293 562 1127 543 0.520675 -0.853755<-207.198 170.602>
LayerCount: 3
Fore
SplineSet
1024 1384 m 259,0,1
 760 1384 760 1384 570 1193.5 c 128,-1,2
 380 1003 380 1003 380 743 c 259,3,4
 380 476 380 476 572 289 c 128,-1,5
 764 102 764 102 1024 102 c 259,6,7
 1279 102 1279 102 1473.5 290.5 c 128,-1,8
 1668 479 1668 479 1668 743 c 259,9,10
 1668 998 1668 998 1480.5 1191 c 128,-1,11
 1293 1384 1293 1384 1024 1384 c 259,0,1
1024 1486 m 259,12,13
 1337 1486 1337 1486 1550.5 1269 c 128,-1,14
 1764 1052 1764 1052 1764 743 c 259,15,16
 1764 434 1764 434 1550.5 217 c 128,-1,17
 1337 0 1337 0 1024 0 c 259,18,19
 722 0 722 0 501.5 220.5 c 128,-1,20
 281 441 281 441 281 743 c 259,21,22
 281 1045 281 1045 501.5 1265.5 c 128,-1,23
 722 1486 722 1486 1024 1486 c 259,12,13
875 797 m 1,24,-1
 995 797 l 2,25,26
 1109 797 1109 797 1153.5 827.5 c 128,-1,27
 1198 858 1198 858 1198 936 c 259,28,29
 1198 1007 1198 1007 1152 1040 c 128,-1,30
 1106 1073 1106 1073 995 1073 c 2,31,-1
 875 1073 l 1,32,-1
 875 797 l 1,24,-1
1003 1177 m 2,33,34
 1184 1177 1184 1177 1269 1118 c 128,-1,35
 1354 1059 1354 1059 1354 936 c 259,36,37
 1354 849 1354 849 1301 792.5 c 128,-1,38
 1248 736 1248 736 1153 722 c 1,39,40
 1203 709 1203 709 1293 562 c 2,41,-1
 1429 339 l 1,42,-1
 1255 339 l 1,43,-1
 1127 543 l 2,44,45
 1065 642 1065 642 1030 669 c 128,-1,46
 995 696 995 696 943 696 c 2,47,-1
 875 696 l 1,48,-1
 875 339 l 1,49,-1
 722 339 l 1,50,-1
 722 1177 l 1,51,-1
 1003 1177 l 2,33,34
EndSplineSet
Layer: 2
SplineSet
1024 1384 m 3xfc80
 674 1384 380 1083 380 743 c 3
 380 399 681 102 1024 102 c 3
 1365 102 1668 393 1668 743 c 3
 1668 1087 1379 1384 1024 1384 c 3xfc80
1024 1486 m 3
 1433 1486 1764 1152 1764 743 c 259
 1764 334 1433 0 1024 0 c 3
 625 0 281 344 281 743 c 259
 281 1142 625 1486 1024 1486 c 3
1198 936 m 3xfe80
 1198 1047 1120 1073 995 1073 c 2
 875 1073 l 1
 875 797 l 1
 995 797 l 2
 1127 797 1198 817 1198 936 c 3xfe80
1354 936 m 3
 1354 810 1268 739 1153 722 c 1
 1210 700 1253 628 1293 562 c 2
 1429 339 l 1
 1255 339 l 1xfd80
 1127 543 l 2
 1068 638 1051 696 943 696 c 2
 875 696 l 1
 875 339 l 1
 722 339 l 1
 722 1177 l 1
 1003 1177 l 2
 1210 1177 1354 1125 1354 936 c 3
EndSplineSet
EndChar

StartChar: copyright
Encoding: 105 169 139
Width: 2050
VWidth: 3555
Flags: W
HStem: 0 102<807.457 1249.13> 288 116<889.9 1273.28> 1073 121<887.901 1282.5> 1384 102<806.056 1244.66>
VStem: 281 99<526.441 958.758> 583 163<550.064 932.97> 1668 96<523.383 968.678>
LayerCount: 3
Fore
SplineSet
1024 1486 m 259,0,1
 1337 1486 1337 1486 1550.5 1269 c 128,-1,2
 1764 1052 1764 1052 1764 743 c 259,3,4
 1764 434 1764 434 1550.5 217 c 128,-1,5
 1337 0 1337 0 1024 0 c 259,6,7
 722 0 722 0 501.5 220.5 c 128,-1,8
 281 441 281 441 281 743 c 259,9,10
 281 1045 281 1045 501.5 1265.5 c 128,-1,11
 722 1486 722 1486 1024 1486 c 259,0,1
1024 1384 m 259,12,13
 760 1384 760 1384 570 1193.5 c 128,-1,14
 380 1003 380 1003 380 743 c 259,15,16
 380 476 380 476 572 289 c 128,-1,17
 764 102 764 102 1024 102 c 259,18,19
 1279 102 1279 102 1473.5 290.5 c 128,-1,20
 1668 479 1668 479 1668 743 c 259,21,22
 1668 998 1668 998 1480.5 1191 c 128,-1,23
 1293 1384 1293 1384 1024 1384 c 259,12,13
1073 404 m 259,24,25
 1179 404 1179 404 1326 472 c 1,26,-1
 1326 349 l 1,27,28
 1174 288 1174 288 1052 288 c 259,29,30
 835 288 835 288 709 408.5 c 128,-1,31
 583 529 583 529 583 743 c 259,32,33
 583 957 583 957 709 1075.5 c 128,-1,34
 835 1194 835 1194 1052 1194 c 259,35,36
 1201 1194 1201 1194 1326 1137 c 1,37,-1
 1326 1007 l 1,38,39
 1210 1073 1210 1073 1062 1073 c 259,40,41
 913 1073 913 1073 829.5 988 c 128,-1,42
 746 903 746 903 746 743 c 259,43,44
 746 583 746 583 829.5 493.5 c 128,-1,45
 913 404 913 404 1073 404 c 259,24,25
EndSplineSet
Layer: 2
SplineSet
1024 1486 m 3
 1433 1486 1764 1152 1764 743 c 259
 1764 334 1433 0 1024 0 c 3
 625 0 281 344 281 743 c 259
 281 1142 625 1486 1024 1486 c 3
1024 1384 m 3
 674 1384 380 1083 380 743 c 3
 380 399 681 102 1024 102 c 3
 1365 102 1668 393 1668 743 c 3
 1668 1087 1379 1384 1024 1384 c 3
583 743 m 259
 583 1029 765 1194 1052 1194 c 3
 1151 1194 1243 1175 1326 1137 c 1
 1326 1007 l 1
 1250 1050 1169 1073 1062 1073 c 3
 858 1073 746 950 746 743 c 259
 746 530 860 404 1073 404 c 3
 1174 404 1249 436 1326 472 c 1
 1326 349 l 1
 1225 308 1133 288 1052 288 c 3
 765 288 583 457 583 743 c 259
EndSplineSet
EndChar

StartChar: trademark
Encoding: 333 8482 140
Width: 2050
VWidth: 3555
Flags: W
HStem: 1397 96<295 498 611 814>
VStem: 498 113<917 1397> 929 113<917 1397> 1493 115<917 1397>
DStem2: 1099 1493 1042 1397 0.562993 -0.826462<47.2498 308.146> 1272 1238 1302 1099 0.539615 0.841912<0 253.119>
LayerCount: 3
Fore
SplineSet
1439 1493 m 1,0,-1
 1608 1493 l 1,1,-1
 1608 917 l 1,2,-1
 1493 917 l 1,3,-1
 1493 1397 l 1,4,-1
 1302 1099 l 1,5,-1
 1245 1099 l 1,6,-1
 1042 1397 l 1,7,-1
 1042 917 l 1,8,-1
 929 917 l 1,9,-1
 929 1493 l 1,10,-1
 1099 1493 l 1,11,-1
 1272 1238 l 1,12,-1
 1439 1493 l 1,0,-1
611 1397 m 1,13,-1
 611 917 l 1,14,-1
 498 917 l 1,15,-1
 498 1397 l 1,16,-1
 295 1397 l 1,17,-1
 295 1493 l 1,18,-1
 814 1493 l 1,19,-1
 814 1397 l 1,20,-1
 611 1397 l 1,13,-1
EndSplineSet
Layer: 2
SplineSet
1439 1493 m 1
 1608 1493 l 1
 1608 917 l 1
 1493 917 l 1
 1493 1397 l 1
 1302 1099 l 1
 1245 1099 l 1
 1042 1397 l 1
 1042 917 l 1
 929 917 l 1
 929 1493 l 1
 1099 1493 l 1
 1272 1238 l 1
 1439 1493 l 1
611 1397 m 1
 611 917 l 1
 498 917 l 1
 498 1397 l 1
 295 1397 l 1
 295 1493 l 1
 814 1493 l 1
 814 1397 l 1
 611 1397 l 1
EndSplineSet
EndChar

StartChar: acute
Encoding: 116 180 141
Width: 1022
VWidth: 3555
Flags: W
HStem: 1262 377
VStem: 373 476
LayerCount: 3
Fore
SplineSet
523 1262 m 1,0,-1
 373 1262 l 1,1,-1
 651 1639 l 1,2,-1
 849 1639 l 1,3,-1
 523 1262 l 1,0,-1
EndSplineSet
Layer: 2
SplineSet
523 1262 m 1
 373 1262 l 1
 651 1639 l 1
 849 1639 l 1
 523 1262 l 1
EndSplineSet
EndChar

StartChar: dieresis
Encoding: 104 168 142
Width: 1022
VWidth: 3555
Flags: W
HStem: 1351 203<217 417 608 811>
VStem: 217 200<1351 1554> 608 203<1351 1554>
LayerCount: 3
Fore
SplineSet
811 1351 m 1,0,-1
 608 1351 l 1,1,-1
 608 1554 l 1,2,-1
 811 1554 l 1,3,-1
 811 1351 l 1,0,-1
417 1351 m 1,4,-1
 217 1351 l 1,5,-1
 217 1554 l 1,6,-1
 417 1554 l 1,7,-1
 417 1351 l 1,4,-1
EndSplineSet
Layer: 2
SplineSet
811 1351 m 1
 608 1351 l 1
 608 1554 l 1
 811 1554 l 1
 811 1351 l 1
417 1351 m 1
 217 1351 l 1
 217 1554 l 1
 417 1554 l 1
 417 1351 l 1
EndSplineSet
EndChar

StartChar: notequal
Encoding: 345 8800 143
Width: 1716
VWidth: 3555
Flags: W
HStem: 352 171<220 516 865 1500> 760 172<220 849 1198 1500>
DStem2: 345 142 469 40 0.633543 0.773707<0 270.814 624.225 797.457 1151.64 1423.59>
LayerCount: 3
Fore
SplineSet
1245 1245 m 1,0,-1
 1373 1144 l 1,1,-1
 1198 932 l 1,2,-1
 1500 932 l 1,3,-1
 1500 760 l 1,4,-1
 1062 760 l 1,5,-1
 865 523 l 1,6,-1
 1500 523 l 1,7,-1
 1500 352 l 1,8,-1
 726 352 l 1,9,-1
 469 40 l 1,10,-1
 345 142 l 1,11,-1
 516 352 l 1,12,-1
 220 352 l 1,13,-1
 220 523 l 1,14,-1
 654 523 l 1,15,-1
 849 760 l 1,16,-1
 220 760 l 1,17,-1
 220 932 l 1,18,-1
 991 932 l 1,19,-1
 1245 1245 l 1,0,-1
EndSplineSet
Layer: 2
SplineSet
1245 1245 m 1
 1373 1144 l 1
 1198 932 l 1
 1500 932 l 1
 1500 760 l 1
 1062 760 l 1
 865 523 l 1
 1500 523 l 1
 1500 352 l 1
 726 352 l 1
 469 40 l 1
 345 142 l 1
 516 352 l 1
 220 352 l 1
 220 523 l 1
 654 523 l 1
 849 760 l 1
 220 760 l 1
 220 932 l 1
 991 932 l 1
 1245 1245 l 1
EndSplineSet
EndChar

StartChar: AE
Encoding: 134 198 144
Width: 1992
VWidth: 3555
Flags: W
HStem: 0 167<1106 1866> 380 174<444 903> 712 170<1106 1818> 1326 167<771 903 1106 1845>
VStem: 903 203<167 380 554 712 882 1326>
DStem2: 7 0 214 0 0.387201 0.921995<80.1506 492.074 679.992 1528.53>
LayerCount: 3
Fore
SplineSet
1106 1326 m 1,0,-1
 1106 882 l 1,1,-1
 1818 882 l 1,2,-1
 1818 712 l 1,3,-1
 1106 712 l 1,4,-1
 1106 167 l 1,5,-1
 1866 167 l 1,6,-1
 1866 0 l 1,7,-1
 903 0 l 1,8,-1
 903 380 l 1,9,-1
 373 380 l 1,10,-1
 214 0 l 1,11,-1
 7 0 l 1,12,-1
 634 1493 l 1,13,-1
 1845 1493 l 1,14,-1
 1845 1326 l 1,15,-1
 1106 1326 l 1,0,-1
903 554 m 1,16,-1
 903 1337 l 1,17,-1
 771 1337 l 1,18,-1
 444 554 l 1,19,-1
 903 554 l 1,16,-1
EndSplineSet
Layer: 2
SplineSet
1106 1326 m 1
 1106 882 l 1
 1818 882 l 1
 1818 712 l 1
 1106 712 l 1
 1106 167 l 1
 1866 167 l 1
 1866 0 l 1
 903 0 l 1
 903 380 l 1
 373 380 l 1
 214 0 l 1
 7 0 l 1
 634 1493 l 1
 1845 1493 l 1
 1845 1326 l 1
 1106 1326 l 1
903 554 m 1
 903 1337 l 1
 771 1337 l 1
 444 554 l 1
 903 554 l 1
EndSplineSet
EndChar

StartChar: Oslash
Encoding: 152 216 145
Width: 1612
VWidth: 3555
Flags: W
HStem: -28 163<611.131 1007.4> 1358 164<614.668 1007.28>
VStem: 115 215<449.621 1023.87> 1286 210<468.142 1037.14>
DStem2: 102 17 207 -71 0.646673 0.762768<0.777094 254.908 469.891 1551.21 1769.65 2020.34>
LayerCount: 3
Fore
SplineSet
491 267 m 1,0,1
 621 135 621 135 811 135 c 259,2,3
 1028 135 1028 135 1157 296.5 c 128,-1,4
 1286 458 1286 458 1286 746 c 259,5,6
 1286 970 1286 970 1208 1113 c 1,7,-1
 491 267 l 1,0,1
1123 1227 m 1,8,9
 1010 1358 1010 1358 811 1358 c 259,10,11
 587 1358 587 1358 458.5 1193 c 128,-1,12
 330 1028 330 1028 330 746 c 259,13,14
 330 532 330 532 404 377 c 1,15,-1
 1123 1227 l 1,8,9
1340 1272 m 1,16,17
 1496 1086 1496 1086 1496 746 c 259,18,19
 1496 391 1496 391 1308 181.5 c 128,-1,20
 1120 -28 1120 -28 811 -28 c 259,21,22
 547 -28 547 -28 370 122 c 1,23,-1
 207 -71 l 1,24,-1
 102 17 l 1,25,-1
 271 220 l 1,26,27
 115 434 115 434 115 746 c 259,28,29
 115 1099 115 1099 305 1310.5 c 128,-1,30
 495 1522 495 1522 811 1522 c 259,31,32
 1069 1522 1069 1522 1245 1368 c 1,33,-1
 1411 1561 l 1,34,-1
 1510 1472 l 1,35,-1
 1340 1272 l 1,16,17
EndSplineSet
Layer: 2
SplineSet
811 135 m 3
 1132 135 1286 404 1286 746 c 3
 1286 891 1258 1020 1208 1113 c 1
 491 267 l 1
 578 179 684 135 811 135 c 3
811 1358 m 3
 486 1358 330 1087 330 746 c 3
 330 601 358 474 404 377 c 1
 1123 1227 l 1
 1055 1305 948 1358 811 1358 c 3
1340 1272 m 1
 1444 1147 1496 969 1496 746 c 3
 1496 295 1259 -28 811 -28 c 3
 635 -28 488 22 370 122 c 1
 207 -71 l 1
 102 17 l 1
 271 220 l 1
 176 351 115 525 115 746 c 3
 115 1197 373 1522 811 1522 c 3
 983 1522 1128 1471 1245 1368 c 1
 1411 1561 l 1
 1510 1472 l 1
 1340 1272 l 1
EndSplineSet
EndChar

StartChar: infinity
Encoding: 342 8734 146
Width: 1706
VWidth: 3555
Flags: W
HStem: 224 146<387.252 623.856 1055 1305.65> 842 161<384.353 670.509> 858 149<1086.07 1312.73>
VStem: 224 71<474.042 734.945> 1415 74<488.352 755.697>
LayerCount: 3
Fore
SplineSet
917 562 m 1,0,1
 1021 380 1021 380 1184 380 c 259,2,3
 1286 380 1286 380 1350.5 448 c 128,-1,4
 1415 516 1415 516 1415 621 c 259,5,6
 1415 722 1415 722 1357 790 c 128,-1,7
 1299 858 1299 858 1205 858 c 259,8,9
 1123 858 1123 858 1057 790 c 128,-1,10
 991 722 991 722 917 562 c 1,0,1
797 665 m 1,11,12
 693 842 693 842 526 842 c 259,13,14
 424 842 424 842 359.5 777 c 128,-1,15
 295 712 295 712 295 604 c 259,16,17
 295 505 295 505 354 437.5 c 128,-1,18
 413 370 413 370 505 370 c 259,19,20
 587 370 587 370 654.5 437.5 c 128,-1,21
 722 505 722 505 797 665 c 1,11,12
865 484 m 1,22,23
 734.04 224 734.04 224 540 224 c 259,24,25
 401 224 401 224 312.5 336 c 128,-1,26
 224 448 224 448 224 611 c 259,27,28
 224 786 224 786 305.5 894.5 c 128,-1,29
 387 1003 387 1003 523 1003 c 259,30,31
 618 1003 618 1003 692.5 939 c 128,-1,32
 767 875 767 875 842 740 c 1,33,34
 977 1007 977 1007 1167 1007 c 259,35,36
 1301.2962963 1007 1301.2962963 1007 1395.14814815 891.818181818 c 128,-1,37
 1489 776.636363636 1489 776.636363636 1489 615 c 259,38,39
 1489 441 1489 441 1406 334 c 128,-1,40
 1323 227 1323 227 1187 227 c 259,41,42
 1095 227 1095 227 1020.5 286 c 128,-1,43
 946 345 946 345 865 484 c 1,22,23
EndSplineSet
Layer: 2
SplineSet
1415 621 m 3xb8
 1415 751 1333 858 1205 858 c 3
 1068 858 983 707 917 562 c 1
 986 441 1075 380 1184 380 c 3
 1321 380 1415 483 1415 621 c 3xb8
295 604 m 3
 295 477 380 370 505 370 c 3
 640 370 730 521 797 665 c 1
 728 783 637 842 526 842 c 3xd8
 388 842 295 744 295 604 c 3
1489 615 m 3
 1489 406 1385 227 1187 227 c 3
 1040 227 944 349 865 484 c 1
 797 347 700 224 540 224 c 3
 344 224 224 409 224 611 c 3
 224 820 324 1003 523 1003 c 3xd8
 689 1003 769 872 842 740 c 1
 932 918 1040 1007 1167 1007 c 3xb8
 1354 1007 1489 819 1489 615 c 3
EndSplineSet
EndChar

StartChar: plusminus
Encoding: 113 177 147
Width: 1716
VWidth: 3555
Flags: W
HStem: 0 167<220 1500> 729 167<220 771 946 1500>
VStem: 771 175<342 729 896 1286>
LayerCount: 3
Fore
SplineSet
1500 896 m 1,0,-1
 1500 729 l 1,1,-1
 946 729 l 1,2,-1
 946 342 l 1,3,-1
 771 342 l 1,4,-1
 771 729 l 1,5,-1
 220 729 l 1,6,-1
 220 896 l 1,7,-1
 771 896 l 1,8,-1
 771 1286 l 1,9,-1
 946 1286 l 1,10,-1
 946 896 l 1,11,-1
 1500 896 l 1,0,-1
1500 0 m 1,12,-1
 220 0 l 1,13,-1
 220 167 l 1,14,-1
 1500 167 l 1,15,-1
 1500 0 l 1,12,-1
EndSplineSet
Layer: 2
SplineSet
1500 896 m 1
 1500 729 l 1
 946 729 l 1
 946 342 l 1
 771 342 l 1
 771 729 l 1
 220 729 l 1
 220 896 l 1
 771 896 l 1
 771 1286 l 1
 946 1286 l 1
 946 896 l 1
 1500 896 l 1
1500 0 m 1
 220 0 l 1
 220 167 l 1
 1500 167 l 1
 1500 0 l 1
EndSplineSet
EndChar

StartChar: lessequal
Encoding: 346 8804 148
Width: 1716
VWidth: 3555
Flags: W
HStem: 0 167<220 1500> 288 177<1323 1500> 1017 177<1323 1500>
DStem2: 220 828 536 740 0.961467 0.27492<279.631 1282.64> 536 740 220 654 0.961467 -0.27492<0 1002.46>
LayerCount: 3
Fore
SplineSet
1500 465 m 1,0,-1
 1500 288 l 1,1,-1
 220 654 l 1,2,-1
 220 828 l 1,3,-1
 1500 1194 l 1,4,-1
 1500 1017 l 1,5,-1
 536 740 l 1,6,-1
 1500 465 l 1,0,-1
1500 0 m 1,7,-1
 220 0 l 1,8,-1
 220 167 l 1,9,-1
 1500 167 l 1,10,-1
 1500 0 l 1,7,-1
EndSplineSet
Layer: 2
SplineSet
1500 465 m 1
 1500 288 l 1
 220 654 l 1
 220 828 l 1
 1500 1194 l 1
 1500 1017 l 1
 536 740 l 1
 1500 465 l 1
1500 0 m 1
 220 0 l 1
 220 167 l 1
 1500 167 l 1
 1500 0 l 1
EndSplineSet
EndChar

StartChar: greaterequal
Encoding: 347 8805 149
Width: 1716
VWidth: 3555
Flags: W
HStem: 0 167<220 1500> 288 177<220 397> 1017 177<220 397>
DStem2: 220 1194 220 1017 0.961467 -0.27492<48.6608 1047.82> 220 465 220 288 0.961467 0.27492<0 998.611>
LayerCount: 3
Fore
SplineSet
1500 828 m 1,0,-1
 1500 654 l 1,1,-1
 220 288 l 1,2,-1
 220 465 l 1,3,-1
 1180 740 l 1,4,-1
 220 1017 l 1,5,-1
 220 1194 l 1,6,-1
 1500 828 l 1,0,-1
220 0 m 1,7,-1
 220 167 l 1,8,-1
 1500 167 l 1,9,-1
 1500 0 l 1,10,-1
 220 0 l 1,7,-1
EndSplineSet
Layer: 2
SplineSet
1500 828 m 1
 1500 654 l 1
 220 288 l 1
 220 465 l 1
 1180 740 l 1
 220 1017 l 1
 220 1194 l 1
 1500 828 l 1
220 0 m 1
 220 167 l 1
 1500 167 l 1
 1500 0 l 1
 220 0 l 1
EndSplineSet
EndChar

StartChar: yen
Encoding: 101 165 150
Width: 1303
VWidth: 3555
Flags: W
HStem: 0 21G<554 753> 458 122<135 554 753 1167> 783 123<135 398 903 1167> 1473 20G<82 281.92 1017.17 1219>
VStem: 554 199<0 458 580 628>
DStem2: 271 1493 82 1493 0.478994 -0.877818<0 576.111 718.092 792.979> 651 797 835 783 0.476643 0.879097<0 75.395 215.936 791.546>
LayerCount: 3
Fore
SplineSet
753 0 m 1,0,-1
 554 0 l 1,1,-1
 554 458 l 1,2,-1
 135 458 l 1,3,-1
 135 580 l 1,4,-1
 554 580 l 1,5,-1
 554 628 l 1,6,-1
 469 783 l 1,7,-1
 135 783 l 1,8,-1
 135 906 l 1,9,-1
 398 906 l 1,10,-1
 82 1493 l 1,11,-1
 271 1493 l 1,12,-1
 651 797 l 1,13,-1
 1028 1493 l 1,14,-1
 1219 1493 l 1,15,-1
 903 906 l 1,16,-1
 1167 906 l 1,17,-1
 1167 783 l 1,18,-1
 835 783 l 1,19,-1
 750 628 l 1,20,-1
 750 580 l 1,21,-1
 1167 580 l 1,22,-1
 1167 458 l 1,23,-1
 753 458 l 1,24,-1
 753 0 l 1,0,-1
EndSplineSet
Layer: 2
SplineSet
753 0 m 1
 554 0 l 1
 554 458 l 1
 135 458 l 1
 135 580 l 1
 554 580 l 1
 554 628 l 1
 469 783 l 1
 135 783 l 1
 135 906 l 1
 398 906 l 1
 82 1493 l 1
 271 1493 l 1
 651 797 l 1
 1028 1493 l 1
 1219 1493 l 1
 903 906 l 1
 1167 906 l 1
 1167 783 l 1
 835 783 l 1
 750 628 l 1
 750 580 l 1
 1167 580 l 1
 1167 458 l 1
 753 458 l 1
 753 0 l 1
EndSplineSet
EndChar

StartChar: mu
Encoding: 117 181 151
Width: 1303
VWidth: 3555
Flags: W
HStem: -431 21G<170 359> -28 160<459.719 807.999 1052.5 1252.9> 1100 20G<170 359 932 1113>
VStem: 170 189<-431 128 234.798 1120> 932 181<263.494 1120>
LayerCount: 3
Fore
SplineSet
644 -28 m 259,0,1
 434 -28 434 -28 359 128 c 1,2,-1
 359 -431 l 1,3,-1
 170 -431 l 1,4,-1
 170 1120 l 1,5,-1
 359 1120 l 1,6,-1
 359 424 l 2,7,8
 359 132 359 132 628 132 c 259,9,10
 932 132 932 132 932 469 c 2,11,-1
 932 1120 l 1,12,-1
 1113 1120 l 1,13,-1
 1113 255 l 2,14,15
 1113 200 1113 200 1128.5 171 c 128,-1,16
 1144 142 1144 142 1187 142 c 259,17,18
 1198 142 1198 142 1255 163 c 1,19,-1
 1255 14 l 1,20,21
 1177 -28 1177 -28 1106 -28 c 259,22,23
 1035 -28 1035 -28 996 9.5 c 128,-1,24
 957 47 957 47 939 128 c 1,25,26
 835 -28 835 -28 644 -28 c 259,0,1
EndSplineSet
Layer: 2
SplineSet
644 -28 m 3
 497 -28 408 26 359 128 c 1
 359 -431 l 1
 170 -431 l 1
 170 1120 l 1
 359 1120 l 1
 359 424 l 2
 359 229 449 132 628 132 c 3
 831 132 932 244 932 469 c 2
 932 1120 l 1
 1113 1120 l 1
 1113 255 l 2
 1113 189 1125 142 1187 142 c 3
 1194 142 1217 149 1255 163 c 1
 1255 14 l 1
 1203 -14 1153 -28 1106 -28 c 259
 999 -28 960 33 939 128 c 1
 870 24 771 -28 644 -28 c 3
EndSplineSet
EndChar

StartChar: partialdiff
Encoding: 334 8706 152
Width: 1062
VWidth: 3555
Flags: W
HStem: -24 52<371.249 548.49> 736 75<438.086 640.421> 1208 118<536.52 731.243>
VStem: 102 190<164.852 543.336> 786 177<628.561 1043.05>
LayerCount: 3
Fore
SplineSet
757 621 m 1,0,1
 786 801 786 801 786 950 c 259,2,3
 786 1208 786 1208 641 1208 c 259,4,5
 587 1208 587 1208 516 1149 c 256,6,7
 448 1092 448 1092 404 1092 c 259,8,9
 370 1092 370 1092 346.5 1113 c 128,-1,10
 323 1134 323 1134 323 1167 c 259,11,12
 323 1227 323 1227 394 1276.5 c 128,-1,13
 465 1326 465 1326 569 1326 c 259,14,15
 750 1326 750 1326 856.5 1170 c 128,-1,16
 963 1014 963 1014 963 753 c 259,17,18
 963 417 963 417 817.5 196.5 c 128,-1,19
 672 -24 672 -24 458 -24 c 259,20,21
 306 -24 306 -24 204 87 c 128,-1,22
 102 198 102 198 102 356 c 259,23,24
 102 549 102 549 213.5 680 c 128,-1,25
 325 811 325 811 488 811 c 259,26,27
 590 811 590 811 654.5 765 c 128,-1,28
 719 719 719 719 757 621 c 1,0,1
708 495 m 259,29,30
 708 611 708 611 663 673.5 c 128,-1,31
 618 736 618 736 540 736 c 259,32,33
 434 736 434 736 363 606 c 128,-1,34
 292 476 292 476 292 271 c 259,35,36
 292 28 292 28 458 28 c 259,37,38
 569 28 569 28 638.5 160 c 128,-1,39
 708 292 708 292 708 495 c 259,29,30
EndSplineSet
Layer: 2
SplineSet
488 811 m 3
 640 811 712 738 757 621 c 1
 774 728 786 833 786 950 c 3
 786 1122 738 1208 641 1208 c 3
 605 1208 563 1188 516 1149 c 0
 471 1111 433 1092 404 1092 c 3
 360 1092 323 1123 323 1167 c 3
 323 1265 459 1326 569 1326 c 3
 844 1326 963 1051 963 753 c 3
 963 384 795 -24 458 -24 c 3
 244 -24 102 142 102 356 c 3
 102 603 270 811 488 811 c 3
458 28 m 3
 640 28 708 288 708 495 c 3
 708 627 660 736 540 736 c 3
 362 736 292 476 292 271 c 3
 292 109 347 28 458 28 c 3
EndSplineSet
EndChar

StartChar: summation
Encoding: 337 8721 153
Width: 1378
VWidth: 3555
Flags: W
HStem: -391 188<335 1340> 1283 193<356 1316>
DStem2: 24 -245 335 -203 0.670188 0.742191<239.6 1083.28> 356 1283 54 1299 0.685119 -0.728431<0 797.321>
LayerCount: 3
Fore
SplineSet
1316 1283 m 1,0,-1
 356 1283 l 1,1,-1
 1028 566 l 1,2,-1
 335 -203 l 1,3,-1
 1340 -203 l 1,4,-1
 1340 -391 l 1,5,-1
 24 -391 l 1,6,-1
 24 -245 l 1,7,-1
 750 559 l 1,8,-1
 54 1299 l 1,9,-1
 54 1476 l 1,10,-1
 1316 1476 l 1,11,-1
 1316 1283 l 1,0,-1
EndSplineSet
Layer: 2
SplineSet
1316 1283 m 1
 356 1283 l 1
 1028 566 l 1
 335 -203 l 1
 1340 -203 l 1
 1340 -391 l 1
 24 -391 l 1
 24 -245 l 1
 750 559 l 1
 54 1299 l 1
 54 1476 l 1
 1316 1476 l 1
 1316 1283 l 1
EndSplineSet
EndChar

StartChar: product
Encoding: 336 8719 154
Width: 1551
VWidth: 3555
Flags: W
HStem: 1269 207<394 1153>
VStem: 153 241<-391 1269> 1153 241<-391 1269>
LayerCount: 3
Fore
SplineSet
1394 -391 m 1,0,-1
 1153 -391 l 1,1,-1
 1153 1269 l 1,2,-1
 394 1269 l 1,3,-1
 394 -391 l 1,4,-1
 153 -391 l 1,5,-1
 153 1476 l 1,6,-1
 1394 1476 l 1,7,-1
 1394 -391 l 1,0,-1
EndSplineSet
Layer: 2
SplineSet
1394 -391 m 1
 1153 -391 l 1
 1153 1269 l 1
 394 1269 l 1
 394 -391 l 1
 153 -391 l 1
 153 1476 l 1
 1394 1476 l 1
 1394 -391 l 1
EndSplineSet
EndChar

StartChar: pi
Encoding: 222 960 155
Width: 1208
VWidth: 3555
Flags: W
HStem: -14 146<860.014 1014> 917 156<162.07 292 472 800 977 1163>
VStem: -28 156<779 883.624> 99 179<0 179> 665 177<148.317 473.492>
DStem2: 99 0 278 0 0.206978 0.978346<37.0491 937.09> 722 536 871 431 0.213097 0.977031<-263.733 388.87>
LayerCount: 3
Fore
SplineSet
871 431 m 2,0,1
 842 298 842 298 842 238 c 259,2,3
 842 177 842 177 865.5 154.5 c 128,-1,4
 889 132 889 132 946 132 c 259,5,6
 989 132 989 132 1049 142 c 1,7,-1
 1014 0 l 1,8,9
 967 -14 967 -14 903 -14 c 259,10,11
 665 -14 665 -14 665 189 c 259,12,13
 665 261 665 261 722 536 c 2,14,-1
 800 917 l 1,15,-1
 472 917 l 1,16,-1
 278 0 l 1,17,-1
 99 0 l 1,18,-1
 292 917 l 1,19,-1
 252 917 l 2,20,21
 149 917 149 917 128 779 c 1,22,-1
 -28 779 l 1,23,24
 -3 950 -3 950 68 1011.5 c 128,-1,25
 139 1073 139 1073 302 1073 c 2,26,-1
 1198 1073 l 1,27,-1
 1163 917 l 1,28,-1
 977 917 l 1,29,-1
 871 431 l 2,0,1
EndSplineSet
Layer: 2
SplineSet
-28 779 m 1xe8
 3 994 68 1073 302 1073 c 2
 1198 1073 l 1
 1163 917 l 1
 977 917 l 1
 871 431 l 2
 855 355 842 301 842 238 c 3
 842 158 868 132 946 132 c 3
 986 132 1004 135 1049 142 c 1
 1014 0 l 1
 983 -9 946 -14 903 -14 c 3
 744 -14 665 54 665 189 c 3
 665 315 689 379 722 536 c 2
 800 917 l 1
 472 917 l 1
 278 0 l 1
 99 0 l 1xd8
 292 917 l 1
 252 917 l 2
 183 917 142 871 128 779 c 1
 -28 779 l 1xe8
EndSplineSet
EndChar

StartChar: integral
Encoding: 343 8747 156
Width: 1069
VWidth: 3555
Flags: W
HStem: -373 109<179.5 351.787> 1448 106<715.988 888.5>
VStem: 47 239<-260.675 -122.846> 434 200<123.387 1059.47> 777 240<1311.56 1447.31>
LayerCount: 3
Fore
SplineSet
227 -373 m 259,0,1
 153 -373 153 -373 100 -332 c 128,-1,2
 47 -291 47 -291 47 -224 c 259,3,4
 47 -102 47 -102 174 -102 c 259,5,6
 227 -102 227 -102 253 -131.5 c 128,-1,7
 279 -161 279 -161 286 -220 c 256,8,9
 292 -264 292 -264 312 -264 c 259,10,11
 370 -264 370 -264 402 -44 c 128,-1,12
 434 176 434 176 434 522 c 259,13,14
 434 1209.85365854 434 1209.85365854 603 1434.5 c 0,15,16
 692.899082569 1554 692.899082569 1554 838 1554 c 259,17,18
 916 1554 916 1554 966.5 1513 c 128,-1,19
 1017 1472 1017 1472 1017 1401 c 259,20,21
 1017 1286 1017 1286 899 1286 c 259,22,23
 795.295081967 1286 795.295081967 1286 777 1410 c 256,24,25
 771 1448 771 1448 757 1448 c 259,26,27
 715 1448 715 1448 674.5 1281.73684211 c 128,-1,28
 634 1115.47368421 634 1115.47368421 634 654 c 259,29,30
 634 -30.6904761905 634 -30.6904761905 465 -252 c 0,31,32
 372.6 -373 372.6 -373 227 -373 c 259,0,1
EndSplineSet
Layer: 2
SplineSet
227 -373 m 3
 132 -373 47 -316 47 -224 c 3
 47 -143 89 -102 174 -102 c 3
 248 -102 277 -146 286 -220 c 0
 290 -249 299 -264 312 -264 c 3
 392 -264 434 78 434 522 c 3
 434 1002 484 1554 838 1554 c 3
 939 1554 1017 1498 1017 1401 c 3
 1017 1324 978 1286 899 1286 c 3
 822 1286 789 1333 777 1410 c 0
 773 1435 766 1448 757 1448 c 3
 669 1448 634 1058 634 654 c 3
 634 186 586 -373 227 -373 c 3
EndSplineSet
EndChar

StartChar: ordfeminine
Encoding: 106 170 157
Width: 966
VWidth: 3555
Flags: W
HStem: 469 125<139 828> 700 121<306.827 580.165> 1106 113<311.454 679> 1408 114<229.022 615.054>
VStem: 115 149<865.161 1062.41> 679 149<719 832 923.346 1106 1219 1346.64>
LayerCount: 3
Fore
SplineSet
828 469 m 1,0,-1
 139 469 l 1,1,-1
 139 594 l 1,2,-1
 828 594 l 1,3,-1
 828 469 l 1,0,-1
444 1408 m 259,4,5
 320 1408 320 1408 174 1340 c 1,6,-1
 174 1465 l 1,7,8
 312 1522 312 1522 462 1522 c 259,9,10
 828 1522 828 1522 828 1167 c 2,11,-1
 828 719 l 1,12,-1
 679 719 l 1,13,-1
 679 832 l 1,14,15
 590 700 590 700 394 700 c 259,16,17
 267 700 267 700 191 767.5 c 128,-1,18
 115 835 115 835 115 950 c 259,19,20
 115 1219 115 1219 495 1219 c 2,21,-1
 679 1219 l 1,22,-1
 679 1224 l 2,23,24
 679 1408 679 1408 444 1408 c 259,4,5
550 1106 m 2,25,26
 387 1106 387 1106 325.5 1074 c 128,-1,27
 264 1042 264 1042 264 969 c 259,28,29
 264 896 264 896 313.5 858.5 c 128,-1,30
 363 821 363 821 453 821 c 259,31,32
 543 821 543 821 611 892 c 128,-1,33
 679 963 679 963 679 1078 c 2,34,-1
 679 1106 l 1,35,-1
 550 1106 l 2,25,26
EndSplineSet
Layer: 2
SplineSet
828 469 m 1
 139 469 l 1
 139 594 l 1
 828 594 l 1
 828 469 l 1
444 1408 m 3
 340 1408 254 1377 174 1340 c 1
 174 1465 l 1
 266 1503 362 1522 462 1522 c 3
 706 1522 828 1404 828 1167 c 2
 828 719 l 1
 679 719 l 1
 679 832 l 1
 620 744 525 700 394 700 c 3
 232 700 115 791 115 950 c 3
 115 1129 242 1219 495 1219 c 2
 679 1219 l 1
 679 1224 l 2
 679 1347 601 1408 444 1408 c 3
444 821 m 3
 583 821 679 934 679 1078 c 2
 679 1106 l 1
 550 1106 l 2
 382 1106 264 1097 264 960 c 3
 264 867 346 821 444 821 c 3
EndSplineSet
EndChar

StartChar: ordmasculine
Encoding: 122 186 158
Width: 966
VWidth: 3555
Flags: W
HStem: 469 125<139 828> 700 118<354.962 612.93> 1408 114<354.332 613.559>
VStem: 95 157<930.192 1297.96> 715 153<927.471 1297.95>
LayerCount: 3
Fore
SplineSet
828 469 m 1,0,-1
 139 469 l 1,1,-1
 139 594 l 1,2,-1
 828 594 l 1,3,-1
 828 469 l 1,0,-1
484 1522 m 259,4,5
 665 1522 665 1522 766.5 1412 c 128,-1,6
 868 1302 868 1302 868 1109 c 259,7,8
 868 917 868 917 766.5 808.5 c 128,-1,9
 665 700 665 700 484 700 c 259,10,11
 302 700 302 700 198.5 808.5 c 128,-1,12
 95 917 95 917 95 1109 c 259,13,14
 95 1302 95 1302 198.5 1412 c 128,-1,15
 302 1522 302 1522 484 1522 c 259,4,5
484 1408 m 259,16,17
 380 1408 380 1408 316 1326.5 c 128,-1,18
 252 1245 252 1245 252 1109 c 259,19,20
 252 977 252 977 316 897.5 c 128,-1,21
 380 818 380 818 484 818 c 259,22,23
 590 818 590 818 652.5 897.5 c 128,-1,24
 715 977 715 977 715 1109 c 259,25,26
 715 1245 715 1245 652.5 1326.5 c 128,-1,27
 590 1408 590 1408 484 1408 c 259,16,17
EndSplineSet
Layer: 2
SplineSet
828 469 m 1
 139 469 l 1
 139 594 l 1
 828 594 l 1
 828 469 l 1
95 1109 m 259
 95 1360 236 1522 484 1522 c 259
 731 1522 868 1359 868 1109 c 259
 868 860 730 700 484 700 c 259
 237 700 95 859 95 1109 c 259
715 1109 m 3
 715 1272 639 1408 484 1408 c 3
 331 1408 252 1271 252 1109 c 3
 252 950 333 818 484 818 c 3
 637 818 715 949 715 1109 c 3
EndSplineSet
EndChar

StartChar: Omega
Encoding: 221 937 159
Width: 1567
VWidth: 3555
Flags: W
HStem: 0 177<78 394 1170 1489> 1340 170<574.414 994.596>
VStem: 95 207<559.101 1057.64> 1262 210<554.258 1059.38>
LayerCount: 3
Fore
SplineSet
889 0 m 1,0,-1
 889 177 l 1,1,2
 1069 274 1069 274 1165.5 441 c 128,-1,3
 1262 608 1262 608 1262 811 c 259,4,5
 1262 1055 1262 1055 1130 1197.5 c 128,-1,6
 998 1340 998 1340 783 1340 c 259,7,8
 569 1340 569 1340 435.5 1197.5 c 128,-1,9
 302 1055 302 1055 302 811 c 259,10,11
 302 608 302 608 402 441 c 128,-1,12
 502 274 502 274 682 177 c 1,13,-1
 682 0 l 1,14,-1
 78 0 l 1,15,-1
 78 177 l 1,16,-1
 394 177 l 1,17,18
 234 319 234 319 164.5 467 c 128,-1,19
 95 615 95 615 95 800 c 259,20,21
 95 1120 95 1120 284 1315 c 152,-1,22
 473 1510 473 1510 783 1510 c 259,23,24
 1088 1510 1088 1510 1280 1315 c 128,-1,25
 1472 1120 1472 1120 1472 811 c 259,26,27
 1472 615 1472 615 1401 467 c 128,-1,28
 1330 319 1330 319 1170 177 c 1,29,-1
 1489 177 l 1,30,-1
 1489 0 l 1,31,-1
 889 0 l 1,0,-1
EndSplineSet
Layer: 2
SplineSet
302 811 m 3
 302 507 471 290 682 177 c 1
 682 0 l 1
 78 0 l 1
 78 177 l 1
 394 177 l 1
 214 337 95 500 95 800 c 3
 95 1216 367 1510 783 1510 c 259
 1191 1510 1472 1218 1472 811 c 3
 1472 502 1353 340 1170 177 c 1
 1489 177 l 1
 1489 0 l 1
 889 0 l 1
 889 177 l 1
 1100 291 1262 507 1262 811 c 3
 1262 1119 1083 1340 783 1340 c 3
 484 1340 302 1119 302 811 c 3
EndSplineSet
EndChar

StartChar: ae
Encoding: 166 230 160
Width: 2015
VWidth: 3555
Flags: W
HStem: -28 153<392.903 715.805 1247.33 1723.45> 516 142<1066 1720> 566 142<406.391 885> 991 153<314.297 765.124 1227.9 1580.31>
VStem: 125 184<203.915 478.29> 885 174<320.364 516 708 810.798> 1720 190<661 838.028>
LayerCount: 3
Fore
SplineSet
1720 661 m 1,0,1
 1720 814 1720 814 1637 902.5 c 128,-1,2
 1554 991 1554 991 1418 991 c 259,3,4
 1259 991 1259 991 1168.5 906 c 128,-1,5
 1078 821 1078 821 1066 658 c 1,6,-1
 1720 661 l 1,0,1
587 1144 m 259,7,8
 893 1144 893 1144 995 963 c 1,9,10
 1141 1144 1141 1144 1415 1144 c 259,11,12
 1639 1144 1639 1144 1774.5 1001 c 128,-1,13
 1910 858 1910 858 1910 608 c 2,14,-1
 1910 516 l 1,15,-1
 1059 516 l 1,16,17
 1082 125 1082 125 1458 125 c 259,18,19
 1661 125 1661 125 1863 231 c 1,20,-1
 1863 57 l 1,21,22
 1656 -28 1656 -28 1451 -28 c 259,23,24
 1106 -28 1106 -28 957 214 c 1,25,26
 807 -28 807 -28 523 -28 c 259,27,28
 330 -28 330 -28 227.5 64 c 128,-1,29
 125 156 125 156 125 326 c 259,30,31
 125 708 125 708 625 708 c 2,32,-1
 885 708 l 1,33,-1
 885 726 l 2,34,35
 885 854 885 854 802 922.5 c 128,-1,36
 719 991 719 991 569 991 c 259,37,38
 373 991 373 991 207 899 c 1,39,-1
 207 1069 l 1,40,41
 385 1144 385 1144 587 1144 c 259,7,8
705 566 m 2,42,43
 479 566 479 566 394 514 c 128,-1,44
 309 462 309 462 309 339 c 259,45,46
 309 238 309 238 373 181.5 c 128,-1,47
 437 125 437 125 543 125 c 259,48,49
 705 125 705 125 795 233.5 c 128,-1,50
 885 342 885 342 885 523 c 2,51,-1
 885 566 l 1,52,-1
 705 566 l 2,42,43
EndSplineSet
Layer: 2
SplineSet
1720 661 m 1xde
 1720 855 1607 991 1418 991 c 3
 1198 991 1081 867 1066 658 c 1
 1720 661 l 1xde
587 1144 m 3
 777 1144 926 1085 995 963 c 1
 1085 1075 1222 1144 1415 1144 c 3
 1726 1144 1910 926 1910 608 c 2
 1910 516 l 1
 1059 516 l 1xde
 1074 255 1207 125 1458 125 c 3
 1624 125 1743 168 1863 231 c 1
 1863 57 l 1
 1725 0 1588 -28 1451 -28 c 3
 1221 -28 1056 53 957 214 c 1
 857 53 712 -28 523 -28 c 3
 278 -28 125 88 125 326 c 3
 125 581 292 708 625 708 c 2
 885 708 l 1xbe
 885 726 l 2
 885 907 756 991 569 991 c 3
 438 991 318 960 207 899 c 1
 207 1069 l 1
 316 1115 445 1144 587 1144 c 3
543 125 m 3
 768 125 885 293 885 523 c 2
 885 566 l 1
 705 566 l 2xbe
 464 566 309 542 309 339 c 3
 309 202 405 125 543 125 c 3
EndSplineSet
EndChar

StartChar: oslash
Encoding: 184 248 161
Width: 1253
VWidth: 3555
Flags: W
HStem: -28 156<463.609 785.645> 991 153<464.763 787.705> 1195 20G<1071.37 1111.7>
VStem: 115 194<321.218 801.158> 950 191<320.912 800.588>
DStem2: 75 -14 167 -95 0.637529 0.770426<0 217.75 431.235 1160 1372.18 1591.47>
LayerCount: 3
Fore
SplineSet
417 210 m 1,0,1
 498 128 498 128 625 128 c 259,2,3
 774 128 774 128 862 243.5 c 128,-1,4
 950 359 950 359 950 562 c 259,5,6
 950 715 950 715 906 804 c 1,7,-1
 417 210 l 1,0,1
835 910 m 1,8,9
 753 991 753 991 625 991 c 259,10,11
 476 991 476 991 392.5 874 c 128,-1,12
 309 757 309 757 309 543 c 259,13,14
 309 404 309 404 349 319 c 1,15,-1
 835 910 l 1,8,9
224 163 m 1,16,17
 115 316 115 316 115 562 c 259,18,19
 115 838 115 838 247.5 991 c 128,-1,20
 380 1144 380 1144 625 1144 c 259,21,22
 722 1144 722 1144 800 1121.5 c 128,-1,23
 878 1099 878 1099 950 1049 c 1,24,-1
 1088 1215 l 1,25,-1
 1184 1134 l 1,26,-1
 1035 957 l 1,27,28
 1141 804 1141 804 1141 562 c 259,29,30
 1141 285 1141 285 1006 128.5 c 128,-1,31
 871 -28 871 -28 625 -28 c 259,32,33
 431 -28 431 -28 309 75 c 1,34,-1
 167 -95 l 1,35,-1
 75 -14 l 1,36,-1
 224 163 l 1,16,17
EndSplineSet
Layer: 2
SplineSet
625 128 m 3
 848 128 950 324 950 562 c 3
 950 664 935 745 906 804 c 1
 417 210 l 1
 471 155 540 128 625 128 c 3
625 991 m 3
 398 991 309 789 309 543 c 3
 309 450 322 376 349 319 c 1
 835 910 l 1
 780 964 710 991 625 991 c 3
1141 562 m 3
 1141 211 967 -28 625 -28 c 3
 496 -28 390 6 309 75 c 1
 167 -95 l 1
 75 -14 l 1
 224 163 l 1
 151 265 115 398 115 562 c 3
 115 912 284 1144 625 1144 c 3
 767 1144 861 1111 950 1049 c 1
 1088 1215 l 1
 1184 1134 l 1
 1035 957 l 1
 1106 855 1141 723 1141 562 c 3
EndSplineSet
EndChar

StartChar: questiondown
Encoding: 127 191 162
Width: 1086
VWidth: 3555
Flags: W
HStem: -28 163<429.797 779.12> 85 186<757 943> 1241 252<495 696>
VStem: 142 207<213.483 458.073> 495 201<780.666 1095 1241 1493>
DStem2: 302 621 458 529 0.699207 0.714919<-156.087 320.182>
LayerCount: 3
Fore
SplineSet
943 85 m 1,0,1
 761 -28 761 -28 566 -28 c 259,2,3
 370 -28 370 -28 256 67.5 c 128,-1,4
 142 163 142 163 142 323 c 259,5,6
 142 398 142 398 180 466.5 c 128,-1,7
 218 535 218 535 302 621 c 2,8,-1
 391 712 l 2,9,10
 474 797 474 797 488 838 c 128,-1,11
 502 879 502 879 502 970 c 2,12,-1
 502 1095 l 1,13,-1
 689 1095 l 1,14,-1
 689 939 l 2,15,16
 689 831 689 831 664 774.5 c 152,-1,17
 639 718 639 718 543 618 c 2,18,-1
 458 529 l 2,19,20
 349 416 349 416 349 342 c 259,21,22
 349 245 349 245 412.5 190 c 128,-1,23
 476 135 476 135 587 135 c 259,24,25
 735 135 735 135 943 271 c 1,26,-1
 943 85 l 1,0,1
495 1493 m 1,27,-1
 696 1493 l 1,28,-1
 696 1241 l 1,29,-1
 495 1241 l 1,30,-1
 495 1493 l 1,27,-1
EndSplineSet
Layer: 2
SplineSet
554 -28 m 3xb8
 323 -28 142 99 142 323 c 3
 142 459 217 535 302 621 c 2
 391 712 l 2
 468 791 502 825 502 970 c 2
 502 1095 l 1
 689 1095 l 1
 689 939 l 2
 689 767 645 725 543 618 c 2
 458 529 l 2
 402 470 349 424 349 335 c 3
 349 205 451 135 587 135 c 3xb8
 725 135 843 205 943 271 c 1
 943 85 l 1x78
 831 15 716 -28 554 -28 c 3xb8
495 1493 m 1
 696 1493 l 1
 696 1241 l 1
 495 1241 l 1
 495 1493 l 1
EndSplineSet
EndChar

StartChar: exclamdown
Encoding: 97 161 163
Width: 824
VWidth: 3555
Flags: W
HStem: 0 21G<309 512> 1241 252<309 512>
VStem: 309 203<0 899.76 1241 1493>
LayerCount: 3
Fore
SplineSet
309 1493 m 1,0,-1
 512 1493 l 1,1,-1
 512 1241 l 1,2,-1
 309 1241 l 1,3,-1
 309 1493 l 1,0,-1
309 654 m 1,4,-1
 330 1014 l 1,5,-1
 495 1014 l 1,6,-1
 512 654 l 1,7,-1
 512 0 l 1,8,-1
 309 0 l 1,9,-1
 309 654 l 1,4,-1
EndSplineSet
Layer: 2
SplineSet
309 1493 m 1
 512 1493 l 1
 512 1241 l 1
 309 1241 l 1
 309 1493 l 1
309 654 m 1
 330 1014 l 1
 495 1014 l 1
 512 654 l 1
 512 0 l 1
 309 0 l 1
 309 654 l 1
EndSplineSet
EndChar

StartChar: logicalnot
Encoding: 108 172 164
Width: 1716
VWidth: 3555
Flags: W
HStem: 693 172<220 1333>
VStem: 1333 167<288 693>
LayerCount: 3
Fore
SplineSet
1500 288 m 1,0,-1
 1333 288 l 1,1,-1
 1333 693 l 1,2,-1
 220 693 l 1,3,-1
 220 865 l 1,4,-1
 1500 865 l 1,5,-1
 1500 288 l 1,0,-1
EndSplineSet
Layer: 2
SplineSet
1500 288 m 1
 1333 288 l 1
 1333 693 l 1
 220 693 l 1
 220 865 l 1
 1500 865 l 1
 1500 288 l 1
EndSplineSet
EndChar

StartChar: radical
Encoding: 341 8730 165
Width: 1307
VWidth: 3555
Flags: W
HStem: 1568 95<1191 1309>
DStem2: 64 878 85 800 0.943176 0.332293<0 129.514> 345 977 214 842 0.336336 -0.941742<83.0751 754.739> 601 267 597 -40 0.346516 0.938044<0 1424.84>
LayerCount: 3
Fore
SplineSet
1309 1568 m 1,0,-1
 1191 1568 l 1,1,-1
 597 -40 l 1,2,-1
 529 -40 l 1,3,-1
 214 842 l 1,4,-1
 85 800 l 1,5,-1
 64 878 l 1,6,-1
 345 977 l 1,7,-1
 601 267 l 1,8,-1
 1116 1663 l 1,9,-1
 1309 1663 l 1,10,-1
 1309 1568 l 1,0,-1
EndSplineSet
Layer: 2
SplineSet
1309 1568 m 1
 1191 1568 l 1
 597 -40 l 1
 529 -40 l 1
 214 842 l 1
 85 800 l 1
 64 878 l 1
 345 977 l 1
 601 267 l 1
 1116 1663 l 1
 1309 1663 l 1
 1309 1568 l 1
EndSplineSet
EndChar

StartChar: florin
Encoding: 212 402 166
Width: 1303
VWidth: 3555
Flags: W
HStem: -431 150<60.7172 354.163> 708 141<356 604 828 1113> 1415 142<987.138 1266.01>
DStem2: 604 708 797 708 0.194818 0.980839<-951.64 0 181.938 706.855>
LayerCount: 3
Fore
SplineSet
28 -220 m 1,0,1
 146 -281 146 -281 227 -281 c 259,2,3
 322 -281 322 -281 379.5 -212.5 c 128,-1,4
 437 -144 437 -144 469 17 c 2,5,-1
 604 708 l 1,6,-1
 356 708 l 1,7,-1
 356 849 l 1,8,-1
 637 849 l 1,9,-1
 700 1180 l 2,10,11
 735 1361 735 1361 835.5 1459 c 128,-1,12
 936 1557 936 1557 1085 1557 c 259,13,14
 1194 1557 1194 1557 1286 1522 c 1,15,-1
 1286 1358 l 1,16,17
 1208 1415 1208 1415 1120 1415 c 259,18,19
 931 1415 931 1415 885 1163 c 2,20,-1
 828 849 l 1,21,-1
 1113 849 l 1,22,-1
 1113 708 l 1,23,-1
 797 708 l 1,24,-1
 668 71 l 2,25,26
 611 -209 611 -209 518 -320 c 128,-1,27
 425 -431 425 -431 234 -431 c 259,28,29
 134 -431 134 -431 28 -380 c 1,30,-1
 28 -220 l 1,0,1
EndSplineSet
Layer: 2
SplineSet
28 -220 m 1
 89 -251 146 -281 227 -281 c 3
 389 -281 437 -148 469 17 c 2
 604 708 l 1
 356 708 l 1
 356 849 l 1
 637 849 l 1
 700 1180 l 2
 739 1387 857 1557 1085 1557 c 3
 1158 1557 1225 1545 1286 1522 c 1
 1286 1358 l 1
 1234 1396 1179 1415 1120 1415 c 3
 997 1415 916 1332 885 1163 c 2
 828 849 l 1
 1113 849 l 1
 1113 708 l 1
 797 708 l 1
 668 71 l 2
 612 -204 553 -431 234 -431 c 3
 150 -431 89 -409 28 -380 c 1
 28 -220 l 1
EndSplineSet
EndChar

StartChar: approxequal
Encoding: 344 8776 167
Width: 1716
VWidth: 3555
Flags: W
HStem: 295 167<935.141 1328.45> 434 167<393.411 776.339> 448 173<1327 1500> 661 177<220 397> 689 165<937.222 1328.64> 825 163<392.495 773.814>
DStem2: 892 917 825 761 0.928477 -0.371391<-256.426 251.913> 892 523 825 372 0.924678 -0.38075<-255.817 250.977>
LayerCount: 3
Fore
SplineSet
1500 448 m 1,0,1
 1403 372 1403 372 1316 333.5 c 128,-1,2
 1229 295 1229 295 1120 295 c 259,3,4
 1018 295 1018 295 845 364 c 2,5,-1
 825 372 l 2,6,7
 669 434 669 434 576 434 c 259,8,9
 474 434 474 434 390.5 391.5 c 128,-1,10
 307 349 307 349 220 271 c 1,11,-1
 220 455 l 1,12,13
 318 525 318 525 407 563 c 128,-1,14
 496 601 496 601 601 601 c 259,15,16
 700 601 700 601 858 537 c 2,17,-1
 892 523 l 2,18,19
 1042 462 1042 462 1141 462 c 259,20,21
 1241 462 1241 462 1324 503 c 128,-1,22
 1407 544 1407 544 1500 621 c 1,23,-1
 1500 448 l 1,0,1
825 761 m 2,24,25
 666 825 666 825 576 825 c 259,26,27
 476 825 476 825 391.5 782 c 128,-1,28
 307 739 307 739 220 661 c 1,29,-1
 220 838 l 1,30,31
 312 912 312 912 401 950 c 128,-1,32
 490 988 490 988 601 988 c 259,33,34
 729 988 729 988 858 932 c 2,35,-1
 892 917 l 2,36,37
 1033 854 1033 854 1141 854 c 259,38,39
 1241 854 1241 854 1323 895 c 128,-1,40
 1405 936 1405 936 1500 1014 c 1,41,-1
 1500 835 l 1,42,43
 1401 762 1401 762 1315.5 725.5 c 128,-1,44
 1230 689 1230 689 1120 689 c 259,45,46
 1005 689 1005 689 865 745 c 2,47,-1
 825 761 l 2,24,25
EndSplineSet
Layer: 2
SplineSet
1500 448 m 1x20
 1387 360 1278 295 1120 295 c 3x80
 1049 295 945 324 845 364 c 2
 825 372 l 2
 717 415 633 434 576 434 c 3
 428 434 320 360 220 271 c 1
 220 455 l 1
 333 536 449 601 601 601 c 3x40
 672 601 757 578 858 537 c 2
 892 523 l 2
 1000 479 1084 462 1141 462 c 259x80
 1287 462 1394 533 1500 621 c 1
 1500 448 l 1x20
825 761 m 2
 723 802 640 825 576 825 c 3x04
 430 825 320 750 220 661 c 1
 220 838 l 1x10
 332 928 443 988 601 988 c 3x04
 680 988 766 972 858 932 c 2
 892 917 l 2
 995 871 1080 854 1141 854 c 3
 1287 854 1394 927 1500 1014 c 1
 1500 835 l 1
 1386 751 1280 689 1120 689 c 3x08
 1039 689 955 709 865 745 c 2
 825 761 l 2
EndSplineSet
EndChar

StartChar: Delta
Encoding: 335 8710 168
Width: 1371
VWidth: 3555
Flags: W
HStem: 0 177<267 1102>
DStem2: -3 0 267 177 0.365184 0.930935<263.375 1426.45> 800 1476 686 1262 0.36409 -0.931364<157.806 1319.8>
LayerCount: 3
Fore
SplineSet
1102 177 m 1,0,-1
 686 1262 l 1,1,-1
 267 177 l 1,2,-1
 1102 177 l 1,0,-1
1377 0 m 1,3,-1
 -3 0 l 1,4,-1
 576 1476 l 1,5,-1
 800 1476 l 1,6,-1
 1377 0 l 1,3,-1
EndSplineSet
Layer: 2
SplineSet
1102 177 m 1
 686 1262 l 1
 267 177 l 1
 1102 177 l 1
1377 0 m 1
 -3 0 l 1
 576 1476 l 1
 800 1476 l 1
 1377 0 l 1
EndSplineSet
EndChar

StartChar: guillemotleft
Encoding: 107 171 169
Width: 1253
VWidth: 3555
Flags: W
HStem: 142 193<432 625 869 1062> 868 194<431 625 868 1062>
DStem2: 156 641 326 601 0.744161 0.668<99.7874 500.648> 326 601 156 562 0.74495 -0.66712<0 400.194> 594 641 760 601 0.743452 0.668789<96.6615 499.751> 760 601 594 562 0.744242 -0.66791<0 402.425>
LayerCount: 3
Fore
SplineSet
760 601 m 1,0,-1
 1062 335 l 1,1,-1
 1062 142 l 1,2,-1
 594 562 l 1,3,-1
 594 641 l 1,4,-1
 1062 1062 l 1,5,-1
 1062 868 l 1,6,-1
 760 601 l 1,0,-1
326 601 m 1,7,-1
 625 335 l 1,8,-1
 625 142 l 1,9,-1
 156 562 l 1,10,-1
 156 641 l 1,11,-1
 625 1062 l 1,12,-1
 625 868 l 1,13,-1
 326 601 l 1,7,-1
EndSplineSet
Layer: 2
SplineSet
760 601 m 1
 1062 335 l 1
 1062 142 l 1
 594 562 l 1
 594 641 l 1
 1062 1062 l 1
 1062 868 l 1
 760 601 l 1
326 601 m 1
 625 335 l 1
 625 142 l 1
 156 562 l 1
 156 641 l 1
 625 1062 l 1
 625 868 l 1
 326 601 l 1
EndSplineSet
EndChar

StartChar: guillemotright
Encoding: 123 187 170
Width: 1253
VWidth: 3555
Flags: W
HStem: 142 193<196 389 625 818> 868 194<196 390 625 819>
DStem2: 196 1062 196 868 0.741309 -0.671164<130.206 531.058> 196 335 196 142 0.742103 0.670286<0 400.185> 625 1062 625 868 0.74767 -0.66407<128.83 535.671> 625 335 625 142 0.748454 0.663187<0 406.183>
LayerCount: 3
Fore
SplineSet
661 562 m 1,0,-1
 196 142 l 1,1,-1
 196 335 l 1,2,-1
 495 601 l 1,3,-1
 196 868 l 1,4,-1
 196 1062 l 1,5,-1
 661 641 l 1,6,-1
 661 562 l 1,0,-1
1099 562 m 1,7,-1
 625 142 l 1,8,-1
 625 335 l 1,9,-1
 932 601 l 1,10,-1
 625 868 l 1,11,-1
 625 1062 l 1,12,-1
 1099 641 l 1,13,-1
 1099 562 l 1,7,-1
EndSplineSet
Layer: 2
SplineSet
661 562 m 1
 196 142 l 1
 196 335 l 1
 495 601 l 1
 196 868 l 1
 196 1062 l 1
 661 641 l 1
 661 562 l 1
1099 562 m 1
 625 142 l 1
 625 335 l 1
 932 601 l 1
 625 868 l 1
 625 1062 l 1
 1099 641 l 1
 1099 562 l 1
EndSplineSet
EndChar

StartChar: ellipsis
Encoding: 327 8230 171
Width: 2050
VWidth: 3555
Flags: W
HStem: 0 252<234 451 920 1130 1601 1818>
VStem: 234 217<0 252> 920 210<0 252> 1601 217<0 252>
LayerCount: 3
Fore
SplineSet
1130 0 m 1,0,-1
 920 0 l 1,1,-1
 920 252 l 1,2,-1
 1130 252 l 1,3,-1
 1130 0 l 1,0,-1
1818 0 m 1,4,-1
 1601 0 l 1,5,-1
 1601 252 l 1,6,-1
 1818 252 l 1,7,-1
 1818 0 l 1,4,-1
451 0 m 1,8,-1
 234 0 l 1,9,-1
 234 252 l 1,10,-1
 451 252 l 1,11,-1
 451 0 l 1,8,-1
EndSplineSet
Layer: 2
SplineSet
1130 0 m 1
 920 0 l 1
 920 252 l 1
 1130 252 l 1
 1130 0 l 1
1818 0 m 1
 1601 0 l 1
 1601 252 l 1
 1818 252 l 1
 1818 0 l 1
451 0 m 1
 234 0 l 1
 234 252 l 1
 451 252 l 1
 451 0 l 1
EndSplineSet
EndChar

StartChar: Agrave
Encoding: 128 192 173
Width: 1399
VWidth: 3555
Flags: W
HStem: 0 21G<14 238.105 1169.89 1384> 380 174<431 977> 1473 20G<579.324 825.582>
DStem2: 14 0 231 0 0.358309 0.933603<77.753 480.894 666.631 1431.02> 818 1493 700 1299 0.354484 -0.935062<139.573 934.386 1120.13 1120.13>
LayerCount: 3
Fore
SplineSet
977 554 m 1,0,-1
 700 1299 l 1,1,-1
 431 554 l 1,2,-1
 977 554 l 1,0,-1
1384 0 m 1,3,-1
 1177 0 l 1,4,-1
 1042 380 l 1,5,-1
 366 380 l 1,6,-1
 231 0 l 1,7,-1
 14 0 l 1,8,-1
 587 1493 l 1,9,-1
 818 1493 l 1,10,-1
 1384 0 l 1,3,-1
686 1635 m 1,11,-1
 455 1903 l 1,12,-1
 648 1903 l 1,13,-1
 838 1635 l 1,14,-1
 686 1635 l 1,11,-1
EndSplineSet
Layer: 2
SplineSet
977 554 m 1
 700 1299 l 1
 431 554 l 1
 977 554 l 1
1384 0 m 1
 1177 0 l 1
 1042 380 l 1
 366 380 l 1
 231 0 l 1
 14 0 l 1
 587 1493 l 1
 818 1493 l 1
 1384 0 l 1
686 1635 m 1
 455 1903 l 1
 648 1903 l 1
 838 1635 l 1
 686 1635 l 1
EndSplineSet
EndChar

StartChar: Atilde
Encoding: 131 195 174
Width: 1399
VWidth: 3555
Flags: W
HStem: 0 21G<14 238.105 1169.89 1384> 380 174<431 977> 1473 20G<579.324 825.582> 1672 120<723.479 897.356> 1767 120<506.944 680.622>
VStem: 373 125<1672 1762.31> 906 125<1796.69 1887>
DStem2: 14 0 231 0 0.358309 0.933603<77.753 480.894 666.631 1431.02> 818 1493 700 1299 0.354484 -0.935062<139.573 934.386 1120.13 1120.13>
LayerCount: 3
Fore
SplineSet
977 554 m 1,0,-1
 700 1299 l 1,1,-1
 431 554 l 1,2,-1
 977 554 l 1,0,-1
1384 0 m 1,3,-1
 1177 0 l 1,4,-1
 1042 380 l 1,5,-1
 366 380 l 1,6,-1
 231 0 l 1,7,-1
 14 0 l 1,8,-1
 587 1493 l 1,9,-1
 818 1493 l 1,10,-1
 1384 0 l 1,3,-1
644 1746 m 1,11,12
 597 1767 597 1767 569 1767 c 0,13,14
 498 1767 498 1767 498 1675 c 2,15,-1
 498 1672 l 1,16,-1
 373 1672 l 1,17,18
 373 1767 373 1767 422.5 1827 c 128,-1,19
 472 1887 472 1887 562 1887 c 0,20,21
 594 1887 594 1887 626 1878.5 c 128,-1,22
 658 1870 658 1870 705 1845 c 2,23,-1
 764 1818 l 1,24,25
 800 1792 800 1792 832 1792 c 0,26,27
 906 1792 906 1792 906 1880 c 2,28,-1
 906 1887 l 1,29,-1
 1031 1887 l 1,30,31
 1028 1788 1028 1788 978.5 1730 c 128,-1,32
 929 1672 929 1672 842 1672 c 0,33,34
 807 1672 807 1672 778.5 1679 c 128,-1,35
 750 1686 750 1686 696 1713 c 2,36,-1
 644 1746 l 1,11,12
EndSplineSet
Layer: 2
SplineSet
977 554 m 1xe6
 700 1299 l 1
 431 554 l 1
 977 554 l 1xe6
1384 0 m 1
 1177 0 l 1
 1042 380 l 1
 366 380 l 1
 231 0 l 1
 14 0 l 1
 587 1493 l 1
 818 1493 l 1
 1384 0 l 1
1031 1887 m 1xee
 1027 1764 965 1672 842 1672 c 3xf6
 774 1672 752 1678 696 1713 c 2
 644 1746 l 2
 615 1764 588 1767 569 1767 c 3xee
 522 1767 498 1736 498 1675 c 2
 498 1672 l 1
 373 1672 l 1xf6
 373 1795 440 1887 562 1887 c 3xee
 623 1887 653 1869 705 1845 c 2
 764 1818 l 2
 791 1806 811 1792 832 1792 c 3xf6
 885 1792 906 1824 906 1887 c 1
 1031 1887 l 1xee
EndSplineSet
EndChar

StartChar: Otilde
Encoding: 149 213 175
Width: 1612
VWidth: 3555
Flags: W
HStem: -28 163<613.549 1007.4> 1358 164<614.668 1006.99> 1672 120<829.479 1003.36> 1767 120<612.944 786.622>
VStem: 115 215<466.66 1023.87> 479 125<1672 1762.31> 1012 125<1796.69 1887> 1286 210<468.142 1023.19>
LayerCount: 3
Fore
SplineSet
811 1358 m 0,0,1
 587 1358 587 1358 458.5 1193 c 128,-1,2
 330 1028 330 1028 330 746 c 0,3,4
 330 458 330 458 458.5 296.5 c 128,-1,5
 587 135 587 135 811 135 c 0,6,7
 1028 135 1028 135 1157 296.5 c 128,-1,8
 1286 458 1286 458 1286 746 c 0,9,10
 1286 1028 1286 1028 1157 1193 c 128,-1,11
 1028 1358 1028 1358 811 1358 c 0,0,1
811 1522 m 0,12,13
 967 1522 967 1522 1093 1466.5 c 128,-1,14
 1219 1411 1219 1411 1310 1309.5 c 128,-1,15
 1401 1208 1401 1208 1448.5 1066 c 128,-1,16
 1496 924 1496 924 1496 746 c 0,17,18
 1496 573 1496 573 1448.5 429 c 128,-1,19
 1401 285 1401 285 1310 183.5 c 128,-1,20
 1219 82 1219 82 1093 27 c 128,-1,21
 967 -28 967 -28 811 -28 c 0,22,23
 495 -28 495 -28 302 181 c 0,24,25
 115 391 115 391 115 746 c 0,26,27
 115 1099 115 1099 302 1309 c 0,28,29
 495 1522 495 1522 811 1522 c 0,12,13
750 1746 m 1,30,31
 705 1767 705 1767 675 1767 c 0,32,33
 604 1767 604 1767 604 1675 c 2,34,-1
 604 1672 l 1,35,-1
 479 1672 l 1,36,37
 479 1767 479 1767 529.5 1827 c 128,-1,38
 580 1887 580 1887 668 1887 c 0,39,40
 700 1887 700 1887 732 1878.5 c 128,-1,41
 764 1870 764 1870 811 1845 c 2,42,-1
 871 1818 l 1,43,44
 906 1792 906 1792 939 1792 c 0,45,46
 1014 1792 1014 1792 1014 1880 c 2,47,-1
 1014 1887 l 1,48,-1
 1137 1887 l 1,49,50
 1134 1788 1134 1788 1084.5 1730 c 128,-1,51
 1035 1672 1035 1672 950 1672 c 0,52,53
 913 1672 913 1672 885.5 1679 c 128,-1,54
 858 1686 858 1686 804 1713 c 2,55,-1
 750 1746 l 1,30,31
EndSplineSet
Layer: 2
SplineSet
1137 1887 m 1xdf
 1133 1764 1071 1672 948 1672 c 3xef
 880 1672 858 1678 802 1713 c 2
 750 1746 l 2
 721 1764 694 1767 675 1767 c 3xdf
 628 1767 604 1736 604 1675 c 2
 604 1672 l 1
 479 1672 l 1xef
 479 1795 546 1887 668 1887 c 3xdf
 729 1887 759 1869 811 1845 c 2
 870 1818 l 2
 897 1806 917 1792 938 1792 c 3xef
 991 1792 1012 1824 1012 1887 c 1
 1137 1887 l 1xdf
1286 746 m 3
 1286 1083 1130 1358 811 1358 c 3
 486 1358 330 1087 330 746 c 3
 330 400 483 135 811 135 c 3
 1132 135 1286 404 1286 746 c 3
811 1522 m 3
 1259 1522 1496 1198 1496 746 c 3
 1496 295 1259 -28 811 -28 c 3
 370 -28 115 292 115 746 c 3
 115 1197 373 1522 811 1522 c 3
EndSplineSet
EndChar

